G75*
%MOIN*%
%OFA0B0*%
%FSLAX24Y24*%
%IPPOS*%
%LPD*%
%AMOC8*
5,1,8,0,0,1.08239X$1,22.5*
%
%ADD10C,0.0000*%
%ADD11C,0.0110*%
%ADD12C,0.0004*%
%ADD13C,0.0060*%
%ADD14C,0.0020*%
%ADD15R,0.0050X0.0200*%
%ADD16C,0.0070*%
%ADD17C,0.0160*%
D10*
X002680Y000150D02*
X002680Y031646D01*
X042050Y031646D01*
X042050Y000150D01*
X002680Y000150D01*
X003491Y001650D02*
X003493Y001702D01*
X003499Y001754D01*
X003509Y001805D01*
X003522Y001855D01*
X003540Y001905D01*
X003561Y001952D01*
X003585Y001998D01*
X003614Y002042D01*
X003645Y002084D01*
X003679Y002123D01*
X003716Y002160D01*
X003756Y002193D01*
X003799Y002224D01*
X003843Y002251D01*
X003889Y002275D01*
X003938Y002295D01*
X003987Y002311D01*
X004038Y002324D01*
X004089Y002333D01*
X004141Y002338D01*
X004193Y002339D01*
X004245Y002336D01*
X004297Y002329D01*
X004348Y002318D01*
X004398Y002304D01*
X004447Y002285D01*
X004494Y002263D01*
X004539Y002238D01*
X004583Y002209D01*
X004624Y002177D01*
X004663Y002142D01*
X004698Y002104D01*
X004731Y002063D01*
X004761Y002021D01*
X004787Y001976D01*
X004810Y001929D01*
X004829Y001880D01*
X004845Y001830D01*
X004857Y001780D01*
X004865Y001728D01*
X004869Y001676D01*
X004869Y001624D01*
X004865Y001572D01*
X004857Y001520D01*
X004845Y001470D01*
X004829Y001420D01*
X004810Y001371D01*
X004787Y001324D01*
X004761Y001279D01*
X004731Y001237D01*
X004698Y001196D01*
X004663Y001158D01*
X004624Y001123D01*
X004583Y001091D01*
X004539Y001062D01*
X004494Y001037D01*
X004447Y001015D01*
X004398Y000996D01*
X004348Y000982D01*
X004297Y000971D01*
X004245Y000964D01*
X004193Y000961D01*
X004141Y000962D01*
X004089Y000967D01*
X004038Y000976D01*
X003987Y000989D01*
X003938Y001005D01*
X003889Y001025D01*
X003843Y001049D01*
X003799Y001076D01*
X003756Y001107D01*
X003716Y001140D01*
X003679Y001177D01*
X003645Y001216D01*
X003614Y001258D01*
X003585Y001302D01*
X003561Y001348D01*
X003540Y001395D01*
X003522Y001445D01*
X003509Y001495D01*
X003499Y001546D01*
X003493Y001598D01*
X003491Y001650D01*
X019430Y003650D02*
X019432Y003700D01*
X019438Y003750D01*
X019448Y003800D01*
X019461Y003848D01*
X019478Y003896D01*
X019499Y003942D01*
X019523Y003986D01*
X019551Y004028D01*
X019582Y004068D01*
X019616Y004105D01*
X019653Y004140D01*
X019692Y004171D01*
X019733Y004200D01*
X019777Y004225D01*
X019823Y004247D01*
X019870Y004265D01*
X019918Y004279D01*
X019967Y004290D01*
X020017Y004297D01*
X020067Y004300D01*
X020118Y004299D01*
X020168Y004294D01*
X020218Y004285D01*
X020266Y004273D01*
X020314Y004256D01*
X020360Y004236D01*
X020405Y004213D01*
X020448Y004186D01*
X020488Y004156D01*
X020526Y004123D01*
X020561Y004087D01*
X020594Y004048D01*
X020623Y004007D01*
X020649Y003964D01*
X020672Y003919D01*
X020691Y003872D01*
X020706Y003824D01*
X020718Y003775D01*
X020726Y003725D01*
X020730Y003675D01*
X020730Y003625D01*
X020726Y003575D01*
X020718Y003525D01*
X020706Y003476D01*
X020691Y003428D01*
X020672Y003381D01*
X020649Y003336D01*
X020623Y003293D01*
X020594Y003252D01*
X020561Y003213D01*
X020526Y003177D01*
X020488Y003144D01*
X020448Y003114D01*
X020405Y003087D01*
X020360Y003064D01*
X020314Y003044D01*
X020266Y003027D01*
X020218Y003015D01*
X020168Y003006D01*
X020118Y003001D01*
X020067Y003000D01*
X020017Y003003D01*
X019967Y003010D01*
X019918Y003021D01*
X019870Y003035D01*
X019823Y003053D01*
X019777Y003075D01*
X019733Y003100D01*
X019692Y003129D01*
X019653Y003160D01*
X019616Y003195D01*
X019582Y003232D01*
X019551Y003272D01*
X019523Y003314D01*
X019499Y003358D01*
X019478Y003404D01*
X019461Y003452D01*
X019448Y003500D01*
X019438Y003550D01*
X019432Y003600D01*
X019430Y003650D01*
X039991Y001650D02*
X039993Y001702D01*
X039999Y001754D01*
X040009Y001805D01*
X040022Y001855D01*
X040040Y001905D01*
X040061Y001952D01*
X040085Y001998D01*
X040114Y002042D01*
X040145Y002084D01*
X040179Y002123D01*
X040216Y002160D01*
X040256Y002193D01*
X040299Y002224D01*
X040343Y002251D01*
X040389Y002275D01*
X040438Y002295D01*
X040487Y002311D01*
X040538Y002324D01*
X040589Y002333D01*
X040641Y002338D01*
X040693Y002339D01*
X040745Y002336D01*
X040797Y002329D01*
X040848Y002318D01*
X040898Y002304D01*
X040947Y002285D01*
X040994Y002263D01*
X041039Y002238D01*
X041083Y002209D01*
X041124Y002177D01*
X041163Y002142D01*
X041198Y002104D01*
X041231Y002063D01*
X041261Y002021D01*
X041287Y001976D01*
X041310Y001929D01*
X041329Y001880D01*
X041345Y001830D01*
X041357Y001780D01*
X041365Y001728D01*
X041369Y001676D01*
X041369Y001624D01*
X041365Y001572D01*
X041357Y001520D01*
X041345Y001470D01*
X041329Y001420D01*
X041310Y001371D01*
X041287Y001324D01*
X041261Y001279D01*
X041231Y001237D01*
X041198Y001196D01*
X041163Y001158D01*
X041124Y001123D01*
X041083Y001091D01*
X041039Y001062D01*
X040994Y001037D01*
X040947Y001015D01*
X040898Y000996D01*
X040848Y000982D01*
X040797Y000971D01*
X040745Y000964D01*
X040693Y000961D01*
X040641Y000962D01*
X040589Y000967D01*
X040538Y000976D01*
X040487Y000989D01*
X040438Y001005D01*
X040389Y001025D01*
X040343Y001049D01*
X040299Y001076D01*
X040256Y001107D01*
X040216Y001140D01*
X040179Y001177D01*
X040145Y001216D01*
X040114Y001258D01*
X040085Y001302D01*
X040061Y001348D01*
X040040Y001395D01*
X040022Y001445D01*
X040009Y001495D01*
X039999Y001546D01*
X039993Y001598D01*
X039991Y001650D01*
X005540Y022900D02*
X005542Y022950D01*
X005548Y023000D01*
X005558Y023049D01*
X005571Y023098D01*
X005589Y023145D01*
X005610Y023191D01*
X005634Y023234D01*
X005662Y023276D01*
X005693Y023316D01*
X005727Y023353D01*
X005764Y023387D01*
X005804Y023418D01*
X005846Y023446D01*
X005889Y023470D01*
X005935Y023491D01*
X005982Y023509D01*
X006031Y023522D01*
X006080Y023532D01*
X006130Y023538D01*
X006180Y023540D01*
X006230Y023538D01*
X006280Y023532D01*
X006329Y023522D01*
X006378Y023509D01*
X006425Y023491D01*
X006471Y023470D01*
X006514Y023446D01*
X006556Y023418D01*
X006596Y023387D01*
X006633Y023353D01*
X006667Y023316D01*
X006698Y023276D01*
X006726Y023234D01*
X006750Y023191D01*
X006771Y023145D01*
X006789Y023098D01*
X006802Y023049D01*
X006812Y023000D01*
X006818Y022950D01*
X006820Y022900D01*
X006818Y022850D01*
X006812Y022800D01*
X006802Y022751D01*
X006789Y022702D01*
X006771Y022655D01*
X006750Y022609D01*
X006726Y022566D01*
X006698Y022524D01*
X006667Y022484D01*
X006633Y022447D01*
X006596Y022413D01*
X006556Y022382D01*
X006514Y022354D01*
X006471Y022330D01*
X006425Y022309D01*
X006378Y022291D01*
X006329Y022278D01*
X006280Y022268D01*
X006230Y022262D01*
X006180Y022260D01*
X006130Y022262D01*
X006080Y022268D01*
X006031Y022278D01*
X005982Y022291D01*
X005935Y022309D01*
X005889Y022330D01*
X005846Y022354D01*
X005804Y022382D01*
X005764Y022413D01*
X005727Y022447D01*
X005693Y022484D01*
X005662Y022524D01*
X005634Y022566D01*
X005610Y022609D01*
X005589Y022655D01*
X005571Y022702D01*
X005558Y022751D01*
X005548Y022800D01*
X005542Y022850D01*
X005540Y022900D01*
X005540Y027400D02*
X005542Y027450D01*
X005548Y027500D01*
X005558Y027549D01*
X005571Y027598D01*
X005589Y027645D01*
X005610Y027691D01*
X005634Y027734D01*
X005662Y027776D01*
X005693Y027816D01*
X005727Y027853D01*
X005764Y027887D01*
X005804Y027918D01*
X005846Y027946D01*
X005889Y027970D01*
X005935Y027991D01*
X005982Y028009D01*
X006031Y028022D01*
X006080Y028032D01*
X006130Y028038D01*
X006180Y028040D01*
X006230Y028038D01*
X006280Y028032D01*
X006329Y028022D01*
X006378Y028009D01*
X006425Y027991D01*
X006471Y027970D01*
X006514Y027946D01*
X006556Y027918D01*
X006596Y027887D01*
X006633Y027853D01*
X006667Y027816D01*
X006698Y027776D01*
X006726Y027734D01*
X006750Y027691D01*
X006771Y027645D01*
X006789Y027598D01*
X006802Y027549D01*
X006812Y027500D01*
X006818Y027450D01*
X006820Y027400D01*
X006818Y027350D01*
X006812Y027300D01*
X006802Y027251D01*
X006789Y027202D01*
X006771Y027155D01*
X006750Y027109D01*
X006726Y027066D01*
X006698Y027024D01*
X006667Y026984D01*
X006633Y026947D01*
X006596Y026913D01*
X006556Y026882D01*
X006514Y026854D01*
X006471Y026830D01*
X006425Y026809D01*
X006378Y026791D01*
X006329Y026778D01*
X006280Y026768D01*
X006230Y026762D01*
X006180Y026760D01*
X006130Y026762D01*
X006080Y026768D01*
X006031Y026778D01*
X005982Y026791D01*
X005935Y026809D01*
X005889Y026830D01*
X005846Y026854D01*
X005804Y026882D01*
X005764Y026913D01*
X005727Y026947D01*
X005693Y026984D01*
X005662Y027024D01*
X005634Y027066D01*
X005610Y027109D01*
X005589Y027155D01*
X005571Y027202D01*
X005558Y027251D01*
X005548Y027300D01*
X005542Y027350D01*
X005540Y027400D01*
X003491Y030150D02*
X003493Y030202D01*
X003499Y030254D01*
X003509Y030305D01*
X003522Y030355D01*
X003540Y030405D01*
X003561Y030452D01*
X003585Y030498D01*
X003614Y030542D01*
X003645Y030584D01*
X003679Y030623D01*
X003716Y030660D01*
X003756Y030693D01*
X003799Y030724D01*
X003843Y030751D01*
X003889Y030775D01*
X003938Y030795D01*
X003987Y030811D01*
X004038Y030824D01*
X004089Y030833D01*
X004141Y030838D01*
X004193Y030839D01*
X004245Y030836D01*
X004297Y030829D01*
X004348Y030818D01*
X004398Y030804D01*
X004447Y030785D01*
X004494Y030763D01*
X004539Y030738D01*
X004583Y030709D01*
X004624Y030677D01*
X004663Y030642D01*
X004698Y030604D01*
X004731Y030563D01*
X004761Y030521D01*
X004787Y030476D01*
X004810Y030429D01*
X004829Y030380D01*
X004845Y030330D01*
X004857Y030280D01*
X004865Y030228D01*
X004869Y030176D01*
X004869Y030124D01*
X004865Y030072D01*
X004857Y030020D01*
X004845Y029970D01*
X004829Y029920D01*
X004810Y029871D01*
X004787Y029824D01*
X004761Y029779D01*
X004731Y029737D01*
X004698Y029696D01*
X004663Y029658D01*
X004624Y029623D01*
X004583Y029591D01*
X004539Y029562D01*
X004494Y029537D01*
X004447Y029515D01*
X004398Y029496D01*
X004348Y029482D01*
X004297Y029471D01*
X004245Y029464D01*
X004193Y029461D01*
X004141Y029462D01*
X004089Y029467D01*
X004038Y029476D01*
X003987Y029489D01*
X003938Y029505D01*
X003889Y029525D01*
X003843Y029549D01*
X003799Y029576D01*
X003756Y029607D01*
X003716Y029640D01*
X003679Y029677D01*
X003645Y029716D01*
X003614Y029758D01*
X003585Y029802D01*
X003561Y029848D01*
X003540Y029895D01*
X003522Y029945D01*
X003509Y029995D01*
X003499Y030046D01*
X003493Y030098D01*
X003491Y030150D01*
X039991Y030150D02*
X039993Y030202D01*
X039999Y030254D01*
X040009Y030305D01*
X040022Y030355D01*
X040040Y030405D01*
X040061Y030452D01*
X040085Y030498D01*
X040114Y030542D01*
X040145Y030584D01*
X040179Y030623D01*
X040216Y030660D01*
X040256Y030693D01*
X040299Y030724D01*
X040343Y030751D01*
X040389Y030775D01*
X040438Y030795D01*
X040487Y030811D01*
X040538Y030824D01*
X040589Y030833D01*
X040641Y030838D01*
X040693Y030839D01*
X040745Y030836D01*
X040797Y030829D01*
X040848Y030818D01*
X040898Y030804D01*
X040947Y030785D01*
X040994Y030763D01*
X041039Y030738D01*
X041083Y030709D01*
X041124Y030677D01*
X041163Y030642D01*
X041198Y030604D01*
X041231Y030563D01*
X041261Y030521D01*
X041287Y030476D01*
X041310Y030429D01*
X041329Y030380D01*
X041345Y030330D01*
X041357Y030280D01*
X041365Y030228D01*
X041369Y030176D01*
X041369Y030124D01*
X041365Y030072D01*
X041357Y030020D01*
X041345Y029970D01*
X041329Y029920D01*
X041310Y029871D01*
X041287Y029824D01*
X041261Y029779D01*
X041231Y029737D01*
X041198Y029696D01*
X041163Y029658D01*
X041124Y029623D01*
X041083Y029591D01*
X041039Y029562D01*
X040994Y029537D01*
X040947Y029515D01*
X040898Y029496D01*
X040848Y029482D01*
X040797Y029471D01*
X040745Y029464D01*
X040693Y029461D01*
X040641Y029462D01*
X040589Y029467D01*
X040538Y029476D01*
X040487Y029489D01*
X040438Y029505D01*
X040389Y029525D01*
X040343Y029549D01*
X040299Y029576D01*
X040256Y029607D01*
X040216Y029640D01*
X040179Y029677D01*
X040145Y029716D01*
X040114Y029758D01*
X040085Y029802D01*
X040061Y029848D01*
X040040Y029895D01*
X040022Y029945D01*
X040009Y029995D01*
X039999Y030046D01*
X039993Y030098D01*
X039991Y030150D01*
D11*
X038985Y027923D02*
X038985Y027529D01*
X038985Y027726D02*
X039576Y027726D01*
X039379Y027529D01*
X039083Y026661D02*
X038985Y026661D01*
X038985Y026562D01*
X039083Y026562D01*
X039083Y026661D01*
X039379Y026311D02*
X038985Y026115D01*
X039379Y025918D01*
X039280Y025667D02*
X039182Y025667D01*
X039182Y025273D01*
X039280Y025273D02*
X039083Y025273D01*
X038985Y025372D01*
X038985Y025568D01*
X039280Y025667D02*
X039379Y025568D01*
X039379Y025372D01*
X039280Y025273D01*
X039379Y025031D02*
X039379Y024933D01*
X039182Y024736D01*
X038985Y024736D02*
X039379Y024736D01*
X039083Y023859D02*
X039083Y023760D01*
X038985Y023760D01*
X038985Y023859D01*
X039083Y023859D01*
X038985Y023859D02*
X038788Y023662D01*
X039083Y023411D02*
X038985Y023312D01*
X038985Y023116D01*
X039083Y023017D01*
X039477Y023411D01*
X039083Y023411D01*
X039083Y023017D02*
X039477Y023017D01*
X039576Y023116D01*
X039576Y023312D01*
X039477Y023411D01*
X039477Y022766D02*
X039576Y022668D01*
X039576Y022471D01*
X039477Y022373D01*
X039477Y022122D02*
X039083Y022122D01*
X038985Y022023D01*
X038985Y021827D01*
X039083Y021728D01*
X039477Y022122D01*
X039576Y022023D01*
X039576Y021827D01*
X039477Y021728D01*
X039083Y021728D01*
X038985Y021477D02*
X038985Y021084D01*
X039379Y021477D01*
X039477Y021477D01*
X039576Y021379D01*
X039576Y021182D01*
X039477Y021084D01*
X039083Y020206D02*
X039083Y020108D01*
X038985Y020108D01*
X038985Y020206D01*
X039083Y020206D01*
X038985Y020206D02*
X038788Y020009D01*
X038985Y019767D02*
X039182Y019472D01*
X039379Y019767D01*
X039576Y019472D02*
X038985Y019472D01*
X038985Y019221D02*
X038985Y018926D01*
X039083Y018828D01*
X039182Y018926D01*
X039182Y019221D01*
X039280Y019221D02*
X038985Y019221D01*
X039280Y019221D02*
X039379Y019123D01*
X039379Y018926D01*
X039379Y018496D02*
X038985Y018496D01*
X038985Y018398D02*
X038985Y018595D01*
X039379Y018496D02*
X039379Y018398D01*
X039576Y018496D02*
X039674Y018496D01*
X039379Y018147D02*
X039083Y018147D01*
X038985Y018049D01*
X039083Y017950D01*
X038985Y017852D01*
X039083Y017753D01*
X039379Y017753D01*
X039280Y017503D02*
X039379Y017404D01*
X039379Y017207D01*
X039280Y017109D01*
X039083Y017109D01*
X038985Y017207D01*
X038985Y017404D01*
X039083Y017503D01*
X039280Y017503D01*
X039280Y016858D02*
X038985Y016858D01*
X039280Y016858D02*
X039379Y016760D01*
X039379Y016563D01*
X039280Y016464D01*
X039379Y016213D02*
X039379Y015918D01*
X039280Y015820D01*
X039083Y015820D01*
X038985Y015918D01*
X038985Y016213D01*
X038985Y016464D02*
X039576Y016464D01*
X039280Y015569D02*
X038985Y015569D01*
X038985Y015274D01*
X039083Y015175D01*
X039182Y015274D01*
X039182Y015569D01*
X039280Y015569D02*
X039379Y015470D01*
X039379Y015274D01*
X039379Y014942D02*
X039379Y014746D01*
X039477Y014844D02*
X039083Y014844D01*
X038985Y014942D01*
X039083Y014495D02*
X038985Y014396D01*
X038985Y014199D01*
X039083Y014101D01*
X039280Y014199D02*
X039280Y014396D01*
X039182Y014495D01*
X039083Y014495D01*
X039280Y014199D02*
X039379Y014101D01*
X039477Y014101D01*
X039576Y014199D01*
X039576Y014396D01*
X039477Y014495D01*
X039280Y013206D02*
X038985Y013206D01*
X038985Y012910D01*
X039083Y012812D01*
X039182Y012910D01*
X039182Y013206D01*
X039280Y013206D02*
X039379Y013107D01*
X039379Y012910D01*
X039576Y012481D02*
X038985Y012481D01*
X038985Y012579D02*
X038985Y012382D01*
X038985Y012131D02*
X039379Y012131D01*
X039576Y012382D02*
X039576Y012481D01*
X038985Y012131D02*
X038985Y011836D01*
X039083Y011738D01*
X039379Y011738D01*
X039379Y011487D02*
X038985Y011093D01*
X038985Y011487D01*
X039379Y011487D02*
X039379Y011093D01*
X039379Y010842D02*
X039379Y010547D01*
X039280Y010449D01*
X039182Y010547D01*
X039182Y010744D01*
X039083Y010842D01*
X038985Y010744D01*
X038985Y010449D01*
X039379Y010207D02*
X039379Y010108D01*
X039182Y009911D01*
X038985Y009911D02*
X039379Y009911D01*
X039576Y009661D02*
X039083Y009661D01*
X038985Y009562D01*
X038985Y009365D01*
X039083Y009267D01*
X039576Y009267D01*
X040035Y008918D02*
X040035Y008721D01*
X040133Y008622D01*
X040133Y008371D02*
X040035Y008273D01*
X040035Y008076D01*
X040133Y007978D01*
X040330Y007978D02*
X040429Y008175D01*
X040429Y008273D01*
X040330Y008371D01*
X040133Y008371D01*
X040330Y007978D02*
X040626Y007978D01*
X040626Y008371D01*
X040527Y008622D02*
X040626Y008721D01*
X040626Y008918D01*
X040527Y009016D01*
X040429Y009016D01*
X040330Y008918D01*
X040232Y009016D01*
X040133Y009016D01*
X040035Y008918D01*
X040330Y008918D02*
X040330Y008819D01*
X039379Y008371D02*
X038887Y008371D01*
X038788Y008273D01*
X038788Y008175D01*
X038985Y008076D02*
X038985Y008371D01*
X038985Y008076D02*
X039083Y007978D01*
X039379Y007978D01*
X039280Y007727D02*
X039083Y007727D01*
X038985Y007628D01*
X038985Y007333D01*
X039576Y007333D01*
X039379Y007333D02*
X039379Y007628D01*
X039280Y007727D01*
X040035Y007628D02*
X040133Y007727D01*
X040527Y007727D01*
X040626Y007628D01*
X040626Y007432D01*
X040527Y007333D01*
X040429Y007333D01*
X040330Y007432D01*
X040330Y007727D01*
X040035Y007628D02*
X040035Y007432D01*
X040133Y007333D01*
X040330Y007082D02*
X040330Y006689D01*
X040626Y006438D02*
X040626Y006044D01*
X040626Y006241D02*
X040035Y006241D01*
X039576Y006339D02*
X039477Y006438D01*
X039379Y006438D01*
X039280Y006339D01*
X039280Y006044D01*
X038985Y006044D02*
X039576Y006044D01*
X039576Y006339D01*
X039280Y006339D02*
X039182Y006438D01*
X039083Y006438D01*
X038985Y006339D01*
X038985Y006044D01*
X039083Y005793D02*
X038985Y005695D01*
X038985Y005498D01*
X039083Y005400D01*
X039477Y005400D01*
X039576Y005498D01*
X039576Y005695D01*
X039477Y005793D01*
X040035Y005596D02*
X040232Y005793D01*
X040626Y005793D01*
X040626Y005400D02*
X040232Y005400D01*
X040035Y005596D01*
X040035Y005149D02*
X040429Y005149D01*
X040626Y004952D01*
X040429Y004755D01*
X040035Y004755D01*
X040330Y004755D02*
X040330Y005149D01*
X039576Y005050D02*
X039576Y004755D01*
X038985Y004755D01*
X039182Y004755D02*
X039182Y005050D01*
X039280Y005149D01*
X039477Y005149D01*
X039576Y005050D01*
X038985Y022373D02*
X039379Y022766D01*
X039477Y022766D01*
X038985Y022766D02*
X038985Y022373D01*
D12*
X002960Y021325D02*
X002960Y028975D01*
D13*
X009860Y017220D02*
X012500Y017220D01*
X012523Y017218D01*
X012546Y017213D01*
X012568Y017204D01*
X012588Y017191D01*
X012606Y017176D01*
X012621Y017158D01*
X012634Y017138D01*
X012643Y017116D01*
X012648Y017093D01*
X012650Y017070D01*
X012650Y013230D01*
X012648Y013207D01*
X012643Y013184D01*
X012634Y013162D01*
X012621Y013142D01*
X012606Y013124D01*
X012588Y013109D01*
X012568Y013096D01*
X012546Y013087D01*
X012523Y013082D01*
X012500Y013080D01*
X011680Y013080D01*
X010680Y013080D01*
X009860Y013080D01*
X009837Y013082D01*
X009814Y013087D01*
X009792Y013096D01*
X009772Y013109D01*
X009754Y013124D01*
X009739Y013142D01*
X009726Y013162D01*
X009717Y013184D01*
X009712Y013207D01*
X009710Y013230D01*
X009710Y017070D01*
X009712Y017093D01*
X009717Y017116D01*
X009726Y017138D01*
X009739Y017158D01*
X009754Y017176D01*
X009772Y017191D01*
X009792Y017204D01*
X009814Y017213D01*
X009837Y017218D01*
X009860Y017220D01*
X010680Y013080D02*
X010682Y013124D01*
X010688Y013167D01*
X010697Y013209D01*
X010710Y013251D01*
X010727Y013291D01*
X010747Y013330D01*
X010770Y013367D01*
X010797Y013401D01*
X010826Y013434D01*
X010859Y013463D01*
X010893Y013490D01*
X010930Y013513D01*
X010969Y013533D01*
X011009Y013550D01*
X011051Y013563D01*
X011093Y013572D01*
X011136Y013578D01*
X011180Y013580D01*
X011224Y013578D01*
X011267Y013572D01*
X011309Y013563D01*
X011351Y013550D01*
X011391Y013533D01*
X011430Y013513D01*
X011467Y013490D01*
X011501Y013463D01*
X011534Y013434D01*
X011563Y013401D01*
X011590Y013367D01*
X011613Y013330D01*
X011633Y013291D01*
X011650Y013251D01*
X011663Y013209D01*
X011672Y013167D01*
X011678Y013124D01*
X011680Y013080D01*
X029030Y015950D02*
X029030Y018350D01*
X029032Y018400D01*
X029038Y018449D01*
X029047Y018498D01*
X029060Y018546D01*
X029077Y018593D01*
X029097Y018638D01*
X029121Y018682D01*
X029148Y018724D01*
X029179Y018764D01*
X029212Y018801D01*
X029248Y018835D01*
X029286Y018867D01*
X029327Y018896D01*
X029369Y018921D01*
X029414Y018943D01*
X029460Y018962D01*
X029508Y018977D01*
X029556Y018988D01*
X029605Y018996D01*
X029655Y019000D01*
X029705Y019000D01*
X029755Y018996D01*
X029804Y018988D01*
X029852Y018977D01*
X029900Y018962D01*
X029946Y018943D01*
X029991Y018921D01*
X030033Y018896D01*
X030074Y018867D01*
X030112Y018835D01*
X030148Y018801D01*
X030181Y018764D01*
X030212Y018724D01*
X030239Y018682D01*
X030263Y018638D01*
X030283Y018593D01*
X030300Y018546D01*
X030313Y018498D01*
X030322Y018449D01*
X030328Y018400D01*
X030330Y018350D01*
X030330Y015950D01*
X030328Y015900D01*
X030322Y015851D01*
X030313Y015802D01*
X030300Y015754D01*
X030283Y015707D01*
X030263Y015662D01*
X030239Y015618D01*
X030212Y015576D01*
X030181Y015536D01*
X030148Y015499D01*
X030112Y015465D01*
X030074Y015433D01*
X030033Y015404D01*
X029991Y015379D01*
X029946Y015357D01*
X029900Y015338D01*
X029852Y015323D01*
X029804Y015312D01*
X029755Y015304D01*
X029705Y015300D01*
X029655Y015300D01*
X029605Y015304D01*
X029556Y015312D01*
X029508Y015323D01*
X029460Y015338D01*
X029414Y015357D01*
X029369Y015379D01*
X029327Y015404D01*
X029286Y015433D01*
X029248Y015465D01*
X029212Y015499D01*
X029179Y015536D01*
X029148Y015576D01*
X029121Y015618D01*
X029097Y015662D01*
X029077Y015707D01*
X029060Y015754D01*
X029047Y015802D01*
X029038Y015851D01*
X029032Y015900D01*
X029030Y015950D01*
X029680Y016650D02*
X029680Y016900D01*
X029380Y016900D01*
X029380Y017050D02*
X029980Y017050D01*
X029980Y017250D01*
X029380Y017250D01*
X029380Y017050D01*
X029680Y016900D02*
X029980Y016900D01*
X029980Y017400D02*
X029680Y017400D01*
X029680Y017650D01*
X029680Y017400D02*
X029380Y017400D01*
D14*
X009850Y017210D02*
X009850Y013100D01*
D15*
X009685Y013400D03*
X009685Y013900D03*
X009685Y014400D03*
X009685Y014900D03*
X009685Y015400D03*
X009685Y015900D03*
X009685Y016400D03*
X009685Y016900D03*
X012675Y016900D03*
X012675Y016400D03*
X012675Y015900D03*
X012675Y015400D03*
X012675Y014900D03*
X012675Y014400D03*
X012675Y013900D03*
X012675Y013400D03*
D16*
X012674Y012766D02*
X012884Y012766D01*
X012990Y012660D01*
X013214Y012660D02*
X013319Y012766D01*
X013529Y012766D01*
X013634Y012660D01*
X013634Y012555D01*
X013529Y012450D01*
X013319Y012450D01*
X013214Y012345D01*
X013214Y012240D01*
X013319Y012135D01*
X013529Y012135D01*
X013634Y012240D01*
X013858Y012240D02*
X013858Y012766D01*
X014279Y012766D02*
X014279Y012240D01*
X014174Y012135D01*
X013963Y012135D01*
X013858Y012240D01*
X012990Y012135D02*
X012569Y012555D01*
X012569Y012660D01*
X012674Y012766D01*
X012569Y012135D02*
X012990Y012135D01*
X010012Y012325D02*
X010012Y012536D01*
X009907Y012641D01*
X009487Y012220D01*
X009382Y012325D01*
X009382Y012536D01*
X009487Y012641D01*
X009907Y012641D01*
X010012Y012325D02*
X009907Y012220D01*
X009487Y012220D01*
X009382Y011996D02*
X009382Y011576D01*
X009382Y011786D02*
X010012Y011786D01*
X009802Y011576D01*
X009907Y011352D02*
X010012Y011247D01*
X010012Y011036D01*
X009907Y010931D01*
X009487Y010931D01*
X009382Y011036D01*
X009382Y011247D01*
X009487Y011352D01*
X010015Y009149D02*
X010225Y009149D01*
X010330Y009044D01*
X010330Y008938D01*
X010225Y008833D01*
X009910Y008833D01*
X009910Y008623D02*
X009910Y009044D01*
X010015Y009149D01*
X009910Y008623D02*
X010015Y008518D01*
X010225Y008518D01*
X010330Y008623D01*
X010555Y008623D02*
X010660Y008518D01*
X010870Y008518D01*
X010975Y008623D01*
X010975Y009044D01*
X010870Y009149D01*
X010660Y009149D01*
X010555Y009044D01*
X013510Y006944D02*
X013615Y007049D01*
X013825Y007049D01*
X013930Y006944D01*
X014155Y006944D02*
X014260Y007049D01*
X014470Y007049D01*
X014575Y006944D01*
X014575Y006523D01*
X014470Y006418D01*
X014260Y006418D01*
X014155Y006523D01*
X013930Y006418D02*
X013510Y006838D01*
X013510Y006944D01*
X013510Y006418D02*
X013930Y006418D01*
X015580Y006466D02*
X015790Y006360D01*
X016000Y006150D01*
X015685Y006150D01*
X015580Y006045D01*
X015580Y005940D01*
X015685Y005835D01*
X015895Y005835D01*
X016000Y005940D01*
X016000Y006150D01*
X016225Y006150D02*
X016225Y006360D01*
X016330Y006466D01*
X016645Y006466D01*
X016645Y005835D01*
X016645Y006045D02*
X016330Y006045D01*
X016225Y006150D01*
X016435Y006045D02*
X016225Y005835D01*
X016183Y009102D02*
X016078Y009207D01*
X016183Y009102D02*
X016394Y009102D01*
X016499Y009207D01*
X016499Y009627D01*
X016394Y009732D01*
X016183Y009732D01*
X016078Y009627D01*
X015854Y009522D02*
X015644Y009732D01*
X015644Y009102D01*
X015854Y009102D02*
X015434Y009102D01*
X015210Y009207D02*
X015105Y009102D01*
X014894Y009102D01*
X014789Y009207D01*
X014789Y009417D01*
X014894Y009522D01*
X014999Y009522D01*
X015210Y009417D01*
X015210Y009732D01*
X014789Y009732D01*
X018439Y009267D02*
X018860Y009267D01*
X018544Y009582D01*
X018544Y008952D01*
X019084Y008952D02*
X019504Y008952D01*
X019294Y008952D02*
X019294Y009582D01*
X019504Y009372D01*
X019728Y009477D02*
X019833Y009582D01*
X020044Y009582D01*
X020149Y009477D01*
X020149Y009057D01*
X020044Y008952D01*
X019833Y008952D01*
X019728Y009057D01*
X026798Y013860D02*
X026798Y014070D01*
X026903Y014175D01*
X026903Y014400D02*
X026798Y014505D01*
X026798Y014715D01*
X026903Y014820D01*
X027113Y014820D01*
X027218Y014715D01*
X027218Y014610D01*
X027113Y014400D01*
X027429Y014400D01*
X027429Y014820D01*
X027324Y014175D02*
X027429Y014070D01*
X027429Y013860D01*
X027324Y013755D01*
X026903Y013755D01*
X026798Y013860D01*
X027937Y018376D02*
X027832Y018481D01*
X027832Y018691D01*
X027937Y018796D01*
X028147Y019020D02*
X028147Y019441D01*
X027832Y019336D02*
X028462Y019336D01*
X028147Y019020D01*
X028357Y018796D02*
X028462Y018691D01*
X028462Y018481D01*
X028357Y018376D01*
X027937Y018376D01*
X030215Y019535D02*
X030846Y019955D01*
X030635Y020180D02*
X030846Y020390D01*
X030215Y020390D01*
X030215Y020180D02*
X030215Y020600D01*
X030215Y019955D02*
X030846Y019535D01*
X022862Y025736D02*
X022757Y025631D01*
X022337Y025631D01*
X022232Y025736D01*
X022232Y025947D01*
X022337Y026052D01*
X022232Y026276D02*
X022652Y026696D01*
X022757Y026696D01*
X022862Y026591D01*
X022862Y026381D01*
X022757Y026276D01*
X022757Y026052D02*
X022862Y025947D01*
X022862Y025736D01*
X022232Y026276D02*
X022232Y026696D01*
X022232Y026920D02*
X022232Y027341D01*
X022232Y027131D02*
X022862Y027131D01*
X022652Y026920D01*
X022615Y028196D02*
X023246Y028196D01*
X023246Y028511D01*
X023140Y028616D01*
X022930Y028616D01*
X022825Y028511D01*
X022825Y028196D01*
X022825Y028406D02*
X022615Y028616D01*
X022930Y028840D02*
X022930Y029261D01*
X022615Y029156D02*
X023246Y029156D01*
X022930Y028840D01*
X021046Y028656D02*
X021046Y028446D01*
X020940Y028340D01*
X020940Y028116D02*
X020730Y028116D01*
X020625Y028011D01*
X020625Y027696D01*
X020415Y027696D02*
X021046Y027696D01*
X021046Y028011D01*
X020940Y028116D01*
X020625Y027906D02*
X020415Y028116D01*
X020520Y028340D02*
X020415Y028446D01*
X020415Y028656D01*
X020520Y028761D01*
X020625Y028761D01*
X020730Y028656D01*
X020730Y028551D01*
X020730Y028656D02*
X020835Y028761D01*
X020940Y028761D01*
X021046Y028656D01*
X018125Y026194D02*
X018125Y025773D01*
X018020Y025668D01*
X017810Y025668D01*
X017705Y025773D01*
X017480Y025668D02*
X017060Y025668D01*
X017270Y025668D02*
X017270Y026299D01*
X017480Y026088D01*
X017705Y026194D02*
X017810Y026299D01*
X018020Y026299D01*
X018125Y026194D01*
X016836Y026194D02*
X016731Y026299D01*
X016521Y026299D01*
X016415Y026194D01*
X016415Y026088D01*
X016836Y025668D01*
X016415Y025668D01*
X015974Y027405D02*
X015553Y027405D01*
X015448Y027510D01*
X015448Y027720D01*
X015553Y027825D01*
X015553Y028050D02*
X015448Y028155D01*
X015448Y028365D01*
X015553Y028470D01*
X015658Y028470D01*
X015763Y028365D01*
X015763Y028050D01*
X015553Y028050D01*
X015763Y028050D02*
X015974Y028260D01*
X016079Y028470D01*
X015974Y027825D02*
X016079Y027720D01*
X016079Y027510D01*
X015974Y027405D01*
X013029Y027510D02*
X012924Y027405D01*
X012503Y027405D01*
X012398Y027510D01*
X012398Y027720D01*
X012503Y027825D01*
X012503Y028050D02*
X012398Y028050D01*
X012503Y028050D02*
X012924Y028470D01*
X013029Y028470D01*
X013029Y028050D01*
X012924Y027825D02*
X013029Y027720D01*
X013029Y027510D01*
X010979Y028960D02*
X010874Y028855D01*
X010453Y028855D01*
X010348Y028960D01*
X010348Y029170D01*
X010453Y029275D01*
X010348Y029500D02*
X010348Y029920D01*
X010348Y029710D02*
X010979Y029710D01*
X010768Y029500D01*
X010874Y029275D02*
X010979Y029170D01*
X010979Y028960D01*
X010768Y030144D02*
X010979Y030354D01*
X010348Y030354D01*
X010348Y030144D02*
X010348Y030565D01*
X016465Y022949D02*
X016465Y022844D01*
X016886Y022423D01*
X016886Y022318D01*
X017110Y022318D02*
X017530Y022318D01*
X017320Y022318D02*
X017320Y022949D01*
X017530Y022738D01*
X017755Y022844D02*
X017860Y022949D01*
X018070Y022949D01*
X018175Y022844D01*
X018175Y022423D01*
X018070Y022318D01*
X017860Y022318D01*
X017755Y022423D01*
X016886Y022949D02*
X016465Y022949D01*
X014099Y020927D02*
X013994Y021032D01*
X013783Y021032D01*
X013678Y020927D01*
X013454Y020822D02*
X013244Y021032D01*
X013244Y020402D01*
X013454Y020402D02*
X013034Y020402D01*
X012810Y020507D02*
X012810Y020612D01*
X012705Y020717D01*
X012494Y020717D01*
X012389Y020612D01*
X012389Y020507D01*
X012494Y020402D01*
X012705Y020402D01*
X012810Y020507D01*
X012705Y020717D02*
X012810Y020822D01*
X012810Y020927D01*
X012705Y021032D01*
X012494Y021032D01*
X012389Y020927D01*
X012389Y020822D01*
X012494Y020717D01*
X013678Y020507D02*
X013783Y020402D01*
X013994Y020402D01*
X014099Y020507D01*
X014099Y020927D01*
X010579Y018865D02*
X010579Y018655D01*
X010474Y018550D01*
X010368Y018550D01*
X010263Y018655D01*
X010263Y018865D01*
X010158Y018970D01*
X010053Y018970D01*
X009948Y018865D01*
X009948Y018655D01*
X010053Y018550D01*
X010158Y018550D01*
X010263Y018655D01*
X010263Y018865D02*
X010368Y018970D01*
X010474Y018970D01*
X010579Y018865D01*
X010474Y018325D02*
X010579Y018220D01*
X010579Y018010D01*
X010474Y017905D01*
X010053Y017905D01*
X009948Y018010D01*
X009948Y018220D01*
X010053Y018325D01*
X019119Y018940D02*
X019224Y018835D01*
X019434Y018835D01*
X019540Y018940D01*
X019540Y019045D01*
X019434Y019150D01*
X019224Y019150D01*
X019119Y019045D01*
X019119Y018940D01*
X019224Y019150D02*
X019119Y019255D01*
X019119Y019360D01*
X019224Y019466D01*
X019434Y019466D01*
X019540Y019360D01*
X019540Y019255D01*
X019434Y019150D01*
X019764Y019150D02*
X019869Y019045D01*
X020184Y019045D01*
X020184Y018835D02*
X020184Y019466D01*
X019869Y019466D01*
X019764Y019360D01*
X019764Y019150D01*
X019974Y019045D02*
X019764Y018835D01*
D17*
X028830Y018350D02*
X028830Y015950D01*
X028832Y015893D01*
X028838Y015837D01*
X028847Y015781D01*
X028860Y015725D01*
X028877Y015671D01*
X028897Y015618D01*
X028921Y015567D01*
X028949Y015517D01*
X028979Y015469D01*
X029013Y015423D01*
X029050Y015380D01*
X029089Y015339D01*
X029131Y015301D01*
X029176Y015266D01*
X029223Y015234D01*
X029272Y015205D01*
X029322Y015179D01*
X029375Y015157D01*
X029428Y015138D01*
X029483Y015123D01*
X029539Y015112D01*
X029595Y015104D01*
X029652Y015100D01*
X029708Y015100D01*
X029765Y015104D01*
X029821Y015112D01*
X029877Y015123D01*
X029932Y015138D01*
X029985Y015157D01*
X030038Y015179D01*
X030088Y015205D01*
X030137Y015234D01*
X030184Y015266D01*
X030229Y015301D01*
X030271Y015339D01*
X030310Y015380D01*
X030347Y015423D01*
X030381Y015469D01*
X030411Y015517D01*
X030439Y015567D01*
X030463Y015618D01*
X030483Y015671D01*
X030500Y015725D01*
X030513Y015781D01*
X030522Y015837D01*
X030528Y015893D01*
X030530Y015950D01*
X030530Y018350D01*
X030528Y018407D01*
X030522Y018463D01*
X030513Y018519D01*
X030500Y018575D01*
X030483Y018629D01*
X030463Y018682D01*
X030439Y018733D01*
X030411Y018783D01*
X030381Y018831D01*
X030347Y018877D01*
X030310Y018920D01*
X030271Y018961D01*
X030229Y018999D01*
X030184Y019034D01*
X030137Y019066D01*
X030088Y019095D01*
X030038Y019121D01*
X029985Y019143D01*
X029932Y019162D01*
X029877Y019177D01*
X029821Y019188D01*
X029765Y019196D01*
X029708Y019200D01*
X029652Y019200D01*
X029595Y019196D01*
X029539Y019188D01*
X029483Y019177D01*
X029428Y019162D01*
X029375Y019143D01*
X029322Y019121D01*
X029272Y019095D01*
X029223Y019066D01*
X029176Y019034D01*
X029131Y018999D01*
X029089Y018961D01*
X029050Y018920D01*
X029013Y018877D01*
X028979Y018831D01*
X028949Y018783D01*
X028921Y018733D01*
X028897Y018682D01*
X028877Y018629D01*
X028860Y018575D01*
X028847Y018519D01*
X028838Y018463D01*
X028832Y018407D01*
X028830Y018350D01*
M02*
