G75*
%MOIN*%
%OFA0B0*%
%FSLAX24Y24*%
%IPPOS*%
%LPD*%
%AMOC8*
5,1,8,0,0,1.08239X$1,22.5*
%
%ADD10C,0.0000*%
%ADD11C,0.0110*%
%ADD12C,0.0080*%
%ADD13C,0.0004*%
%ADD14R,0.0450X0.0364*%
%ADD15C,0.0070*%
%ADD16C,0.0060*%
%ADD17C,0.0050*%
%ADD18C,0.0020*%
%ADD19C,0.0040*%
%ADD20R,0.0350X0.0500*%
%ADD21C,0.0039*%
%ADD22R,0.0300X0.7300*%
%ADD23R,0.0200X1.2200*%
%ADD24R,0.2850X0.0320*%
%ADD25R,0.1850X0.0320*%
%ADD26C,0.0100*%
%ADD27C,0.0160*%
%ADD28R,0.0200X0.0800*%
%ADD29R,0.0750X0.0200*%
D10*
X002680Y000150D02*
X002680Y031646D01*
X042050Y031646D01*
X042050Y000150D01*
X002680Y000150D01*
X003491Y001650D02*
X003493Y001702D01*
X003499Y001754D01*
X003509Y001805D01*
X003522Y001855D01*
X003540Y001905D01*
X003561Y001952D01*
X003585Y001998D01*
X003614Y002042D01*
X003645Y002084D01*
X003679Y002123D01*
X003716Y002160D01*
X003756Y002193D01*
X003799Y002224D01*
X003843Y002251D01*
X003889Y002275D01*
X003938Y002295D01*
X003987Y002311D01*
X004038Y002324D01*
X004089Y002333D01*
X004141Y002338D01*
X004193Y002339D01*
X004245Y002336D01*
X004297Y002329D01*
X004348Y002318D01*
X004398Y002304D01*
X004447Y002285D01*
X004494Y002263D01*
X004539Y002238D01*
X004583Y002209D01*
X004624Y002177D01*
X004663Y002142D01*
X004698Y002104D01*
X004731Y002063D01*
X004761Y002021D01*
X004787Y001976D01*
X004810Y001929D01*
X004829Y001880D01*
X004845Y001830D01*
X004857Y001780D01*
X004865Y001728D01*
X004869Y001676D01*
X004869Y001624D01*
X004865Y001572D01*
X004857Y001520D01*
X004845Y001470D01*
X004829Y001420D01*
X004810Y001371D01*
X004787Y001324D01*
X004761Y001279D01*
X004731Y001237D01*
X004698Y001196D01*
X004663Y001158D01*
X004624Y001123D01*
X004583Y001091D01*
X004539Y001062D01*
X004494Y001037D01*
X004447Y001015D01*
X004398Y000996D01*
X004348Y000982D01*
X004297Y000971D01*
X004245Y000964D01*
X004193Y000961D01*
X004141Y000962D01*
X004089Y000967D01*
X004038Y000976D01*
X003987Y000989D01*
X003938Y001005D01*
X003889Y001025D01*
X003843Y001049D01*
X003799Y001076D01*
X003756Y001107D01*
X003716Y001140D01*
X003679Y001177D01*
X003645Y001216D01*
X003614Y001258D01*
X003585Y001302D01*
X003561Y001348D01*
X003540Y001395D01*
X003522Y001445D01*
X003509Y001495D01*
X003499Y001546D01*
X003493Y001598D01*
X003491Y001650D01*
X019430Y003650D02*
X019432Y003700D01*
X019438Y003750D01*
X019448Y003800D01*
X019461Y003848D01*
X019478Y003896D01*
X019499Y003942D01*
X019523Y003986D01*
X019551Y004028D01*
X019582Y004068D01*
X019616Y004105D01*
X019653Y004140D01*
X019692Y004171D01*
X019733Y004200D01*
X019777Y004225D01*
X019823Y004247D01*
X019870Y004265D01*
X019918Y004279D01*
X019967Y004290D01*
X020017Y004297D01*
X020067Y004300D01*
X020118Y004299D01*
X020168Y004294D01*
X020218Y004285D01*
X020266Y004273D01*
X020314Y004256D01*
X020360Y004236D01*
X020405Y004213D01*
X020448Y004186D01*
X020488Y004156D01*
X020526Y004123D01*
X020561Y004087D01*
X020594Y004048D01*
X020623Y004007D01*
X020649Y003964D01*
X020672Y003919D01*
X020691Y003872D01*
X020706Y003824D01*
X020718Y003775D01*
X020726Y003725D01*
X020730Y003675D01*
X020730Y003625D01*
X020726Y003575D01*
X020718Y003525D01*
X020706Y003476D01*
X020691Y003428D01*
X020672Y003381D01*
X020649Y003336D01*
X020623Y003293D01*
X020594Y003252D01*
X020561Y003213D01*
X020526Y003177D01*
X020488Y003144D01*
X020448Y003114D01*
X020405Y003087D01*
X020360Y003064D01*
X020314Y003044D01*
X020266Y003027D01*
X020218Y003015D01*
X020168Y003006D01*
X020118Y003001D01*
X020067Y003000D01*
X020017Y003003D01*
X019967Y003010D01*
X019918Y003021D01*
X019870Y003035D01*
X019823Y003053D01*
X019777Y003075D01*
X019733Y003100D01*
X019692Y003129D01*
X019653Y003160D01*
X019616Y003195D01*
X019582Y003232D01*
X019551Y003272D01*
X019523Y003314D01*
X019499Y003358D01*
X019478Y003404D01*
X019461Y003452D01*
X019448Y003500D01*
X019438Y003550D01*
X019432Y003600D01*
X019430Y003650D01*
X039991Y001650D02*
X039993Y001702D01*
X039999Y001754D01*
X040009Y001805D01*
X040022Y001855D01*
X040040Y001905D01*
X040061Y001952D01*
X040085Y001998D01*
X040114Y002042D01*
X040145Y002084D01*
X040179Y002123D01*
X040216Y002160D01*
X040256Y002193D01*
X040299Y002224D01*
X040343Y002251D01*
X040389Y002275D01*
X040438Y002295D01*
X040487Y002311D01*
X040538Y002324D01*
X040589Y002333D01*
X040641Y002338D01*
X040693Y002339D01*
X040745Y002336D01*
X040797Y002329D01*
X040848Y002318D01*
X040898Y002304D01*
X040947Y002285D01*
X040994Y002263D01*
X041039Y002238D01*
X041083Y002209D01*
X041124Y002177D01*
X041163Y002142D01*
X041198Y002104D01*
X041231Y002063D01*
X041261Y002021D01*
X041287Y001976D01*
X041310Y001929D01*
X041329Y001880D01*
X041345Y001830D01*
X041357Y001780D01*
X041365Y001728D01*
X041369Y001676D01*
X041369Y001624D01*
X041365Y001572D01*
X041357Y001520D01*
X041345Y001470D01*
X041329Y001420D01*
X041310Y001371D01*
X041287Y001324D01*
X041261Y001279D01*
X041231Y001237D01*
X041198Y001196D01*
X041163Y001158D01*
X041124Y001123D01*
X041083Y001091D01*
X041039Y001062D01*
X040994Y001037D01*
X040947Y001015D01*
X040898Y000996D01*
X040848Y000982D01*
X040797Y000971D01*
X040745Y000964D01*
X040693Y000961D01*
X040641Y000962D01*
X040589Y000967D01*
X040538Y000976D01*
X040487Y000989D01*
X040438Y001005D01*
X040389Y001025D01*
X040343Y001049D01*
X040299Y001076D01*
X040256Y001107D01*
X040216Y001140D01*
X040179Y001177D01*
X040145Y001216D01*
X040114Y001258D01*
X040085Y001302D01*
X040061Y001348D01*
X040040Y001395D01*
X040022Y001445D01*
X040009Y001495D01*
X039999Y001546D01*
X039993Y001598D01*
X039991Y001650D01*
X005540Y022900D02*
X005542Y022950D01*
X005548Y023000D01*
X005558Y023049D01*
X005571Y023098D01*
X005589Y023145D01*
X005610Y023191D01*
X005634Y023234D01*
X005662Y023276D01*
X005693Y023316D01*
X005727Y023353D01*
X005764Y023387D01*
X005804Y023418D01*
X005846Y023446D01*
X005889Y023470D01*
X005935Y023491D01*
X005982Y023509D01*
X006031Y023522D01*
X006080Y023532D01*
X006130Y023538D01*
X006180Y023540D01*
X006230Y023538D01*
X006280Y023532D01*
X006329Y023522D01*
X006378Y023509D01*
X006425Y023491D01*
X006471Y023470D01*
X006514Y023446D01*
X006556Y023418D01*
X006596Y023387D01*
X006633Y023353D01*
X006667Y023316D01*
X006698Y023276D01*
X006726Y023234D01*
X006750Y023191D01*
X006771Y023145D01*
X006789Y023098D01*
X006802Y023049D01*
X006812Y023000D01*
X006818Y022950D01*
X006820Y022900D01*
X006818Y022850D01*
X006812Y022800D01*
X006802Y022751D01*
X006789Y022702D01*
X006771Y022655D01*
X006750Y022609D01*
X006726Y022566D01*
X006698Y022524D01*
X006667Y022484D01*
X006633Y022447D01*
X006596Y022413D01*
X006556Y022382D01*
X006514Y022354D01*
X006471Y022330D01*
X006425Y022309D01*
X006378Y022291D01*
X006329Y022278D01*
X006280Y022268D01*
X006230Y022262D01*
X006180Y022260D01*
X006130Y022262D01*
X006080Y022268D01*
X006031Y022278D01*
X005982Y022291D01*
X005935Y022309D01*
X005889Y022330D01*
X005846Y022354D01*
X005804Y022382D01*
X005764Y022413D01*
X005727Y022447D01*
X005693Y022484D01*
X005662Y022524D01*
X005634Y022566D01*
X005610Y022609D01*
X005589Y022655D01*
X005571Y022702D01*
X005558Y022751D01*
X005548Y022800D01*
X005542Y022850D01*
X005540Y022900D01*
X005540Y027400D02*
X005542Y027450D01*
X005548Y027500D01*
X005558Y027549D01*
X005571Y027598D01*
X005589Y027645D01*
X005610Y027691D01*
X005634Y027734D01*
X005662Y027776D01*
X005693Y027816D01*
X005727Y027853D01*
X005764Y027887D01*
X005804Y027918D01*
X005846Y027946D01*
X005889Y027970D01*
X005935Y027991D01*
X005982Y028009D01*
X006031Y028022D01*
X006080Y028032D01*
X006130Y028038D01*
X006180Y028040D01*
X006230Y028038D01*
X006280Y028032D01*
X006329Y028022D01*
X006378Y028009D01*
X006425Y027991D01*
X006471Y027970D01*
X006514Y027946D01*
X006556Y027918D01*
X006596Y027887D01*
X006633Y027853D01*
X006667Y027816D01*
X006698Y027776D01*
X006726Y027734D01*
X006750Y027691D01*
X006771Y027645D01*
X006789Y027598D01*
X006802Y027549D01*
X006812Y027500D01*
X006818Y027450D01*
X006820Y027400D01*
X006818Y027350D01*
X006812Y027300D01*
X006802Y027251D01*
X006789Y027202D01*
X006771Y027155D01*
X006750Y027109D01*
X006726Y027066D01*
X006698Y027024D01*
X006667Y026984D01*
X006633Y026947D01*
X006596Y026913D01*
X006556Y026882D01*
X006514Y026854D01*
X006471Y026830D01*
X006425Y026809D01*
X006378Y026791D01*
X006329Y026778D01*
X006280Y026768D01*
X006230Y026762D01*
X006180Y026760D01*
X006130Y026762D01*
X006080Y026768D01*
X006031Y026778D01*
X005982Y026791D01*
X005935Y026809D01*
X005889Y026830D01*
X005846Y026854D01*
X005804Y026882D01*
X005764Y026913D01*
X005727Y026947D01*
X005693Y026984D01*
X005662Y027024D01*
X005634Y027066D01*
X005610Y027109D01*
X005589Y027155D01*
X005571Y027202D01*
X005558Y027251D01*
X005548Y027300D01*
X005542Y027350D01*
X005540Y027400D01*
X003491Y030150D02*
X003493Y030202D01*
X003499Y030254D01*
X003509Y030305D01*
X003522Y030355D01*
X003540Y030405D01*
X003561Y030452D01*
X003585Y030498D01*
X003614Y030542D01*
X003645Y030584D01*
X003679Y030623D01*
X003716Y030660D01*
X003756Y030693D01*
X003799Y030724D01*
X003843Y030751D01*
X003889Y030775D01*
X003938Y030795D01*
X003987Y030811D01*
X004038Y030824D01*
X004089Y030833D01*
X004141Y030838D01*
X004193Y030839D01*
X004245Y030836D01*
X004297Y030829D01*
X004348Y030818D01*
X004398Y030804D01*
X004447Y030785D01*
X004494Y030763D01*
X004539Y030738D01*
X004583Y030709D01*
X004624Y030677D01*
X004663Y030642D01*
X004698Y030604D01*
X004731Y030563D01*
X004761Y030521D01*
X004787Y030476D01*
X004810Y030429D01*
X004829Y030380D01*
X004845Y030330D01*
X004857Y030280D01*
X004865Y030228D01*
X004869Y030176D01*
X004869Y030124D01*
X004865Y030072D01*
X004857Y030020D01*
X004845Y029970D01*
X004829Y029920D01*
X004810Y029871D01*
X004787Y029824D01*
X004761Y029779D01*
X004731Y029737D01*
X004698Y029696D01*
X004663Y029658D01*
X004624Y029623D01*
X004583Y029591D01*
X004539Y029562D01*
X004494Y029537D01*
X004447Y029515D01*
X004398Y029496D01*
X004348Y029482D01*
X004297Y029471D01*
X004245Y029464D01*
X004193Y029461D01*
X004141Y029462D01*
X004089Y029467D01*
X004038Y029476D01*
X003987Y029489D01*
X003938Y029505D01*
X003889Y029525D01*
X003843Y029549D01*
X003799Y029576D01*
X003756Y029607D01*
X003716Y029640D01*
X003679Y029677D01*
X003645Y029716D01*
X003614Y029758D01*
X003585Y029802D01*
X003561Y029848D01*
X003540Y029895D01*
X003522Y029945D01*
X003509Y029995D01*
X003499Y030046D01*
X003493Y030098D01*
X003491Y030150D01*
X039991Y030150D02*
X039993Y030202D01*
X039999Y030254D01*
X040009Y030305D01*
X040022Y030355D01*
X040040Y030405D01*
X040061Y030452D01*
X040085Y030498D01*
X040114Y030542D01*
X040145Y030584D01*
X040179Y030623D01*
X040216Y030660D01*
X040256Y030693D01*
X040299Y030724D01*
X040343Y030751D01*
X040389Y030775D01*
X040438Y030795D01*
X040487Y030811D01*
X040538Y030824D01*
X040589Y030833D01*
X040641Y030838D01*
X040693Y030839D01*
X040745Y030836D01*
X040797Y030829D01*
X040848Y030818D01*
X040898Y030804D01*
X040947Y030785D01*
X040994Y030763D01*
X041039Y030738D01*
X041083Y030709D01*
X041124Y030677D01*
X041163Y030642D01*
X041198Y030604D01*
X041231Y030563D01*
X041261Y030521D01*
X041287Y030476D01*
X041310Y030429D01*
X041329Y030380D01*
X041345Y030330D01*
X041357Y030280D01*
X041365Y030228D01*
X041369Y030176D01*
X041369Y030124D01*
X041365Y030072D01*
X041357Y030020D01*
X041345Y029970D01*
X041329Y029920D01*
X041310Y029871D01*
X041287Y029824D01*
X041261Y029779D01*
X041231Y029737D01*
X041198Y029696D01*
X041163Y029658D01*
X041124Y029623D01*
X041083Y029591D01*
X041039Y029562D01*
X040994Y029537D01*
X040947Y029515D01*
X040898Y029496D01*
X040848Y029482D01*
X040797Y029471D01*
X040745Y029464D01*
X040693Y029461D01*
X040641Y029462D01*
X040589Y029467D01*
X040538Y029476D01*
X040487Y029489D01*
X040438Y029505D01*
X040389Y029525D01*
X040343Y029549D01*
X040299Y029576D01*
X040256Y029607D01*
X040216Y029640D01*
X040179Y029677D01*
X040145Y029716D01*
X040114Y029758D01*
X040085Y029802D01*
X040061Y029848D01*
X040040Y029895D01*
X040022Y029945D01*
X040009Y029995D01*
X039999Y030046D01*
X039993Y030098D01*
X039991Y030150D01*
D11*
X040050Y029046D02*
X039951Y028947D01*
X039951Y028553D01*
X040050Y028455D01*
X040247Y028455D01*
X040345Y028553D01*
X040345Y028750D01*
X040148Y028750D01*
X040345Y028947D02*
X040247Y029046D01*
X040050Y029046D01*
X040596Y029046D02*
X040596Y028455D01*
X040990Y028455D02*
X040990Y029046D01*
X041240Y029046D02*
X041536Y029046D01*
X041634Y028947D01*
X041634Y028553D01*
X041536Y028455D01*
X041240Y028455D01*
X041240Y029046D01*
X040990Y028455D02*
X040596Y029046D01*
X040493Y027396D02*
X040493Y026805D01*
X040296Y026805D02*
X040690Y026805D01*
X040940Y026805D02*
X041334Y026805D01*
X041137Y026805D02*
X041137Y027396D01*
X040940Y027199D01*
X040493Y027396D02*
X040296Y027199D01*
X040543Y024796D02*
X040346Y024599D01*
X040543Y024796D02*
X040543Y024205D01*
X040346Y024205D02*
X040740Y024205D01*
X040990Y024303D02*
X041384Y024697D01*
X041384Y024303D01*
X041286Y024205D01*
X041089Y024205D01*
X040990Y024303D01*
X040990Y024697D01*
X041089Y024796D01*
X041286Y024796D01*
X041384Y024697D01*
X041286Y022396D02*
X041089Y022396D01*
X040990Y022297D01*
X040990Y022199D01*
X041089Y022100D01*
X041384Y022100D01*
X041384Y021903D02*
X041384Y022297D01*
X041286Y022396D01*
X041384Y021903D02*
X041286Y021805D01*
X041089Y021805D01*
X040990Y021903D01*
X041089Y019746D02*
X041286Y019746D01*
X041384Y019647D01*
X041384Y019549D01*
X041286Y019450D01*
X041089Y019450D01*
X040990Y019549D01*
X040990Y019647D01*
X041089Y019746D01*
X041089Y019450D02*
X040990Y019352D01*
X040990Y019253D01*
X041089Y019155D01*
X041286Y019155D01*
X041384Y019253D01*
X041384Y019352D01*
X041286Y019450D01*
X041384Y017346D02*
X041384Y017247D01*
X040990Y016853D01*
X040990Y016755D01*
X040990Y017346D02*
X041384Y017346D01*
X041434Y014896D02*
X041237Y014797D01*
X041040Y014600D01*
X041336Y014600D01*
X041434Y014502D01*
X041434Y014403D01*
X041336Y014305D01*
X041139Y014305D01*
X041040Y014403D01*
X041040Y014600D01*
X041090Y012296D02*
X041090Y012000D01*
X041287Y012099D01*
X041386Y012099D01*
X041484Y012000D01*
X041484Y011803D01*
X041386Y011705D01*
X041189Y011705D01*
X041090Y011803D01*
X041090Y012296D02*
X041484Y012296D01*
X041436Y009796D02*
X041140Y009500D01*
X041534Y009500D01*
X041436Y009205D02*
X041436Y009796D01*
X041436Y007246D02*
X041239Y007246D01*
X041140Y007147D01*
X041337Y006950D02*
X041436Y006950D01*
X041534Y006852D01*
X041534Y006753D01*
X041436Y006655D01*
X041239Y006655D01*
X041140Y006753D01*
X041436Y006950D02*
X041534Y007049D01*
X041534Y007147D01*
X041436Y007246D01*
X041436Y004846D02*
X041239Y004846D01*
X041140Y004747D01*
X041436Y004846D02*
X041534Y004747D01*
X041534Y004649D01*
X041140Y004255D01*
X041534Y004255D01*
X041337Y003296D02*
X041337Y002705D01*
X041140Y002705D02*
X041534Y002705D01*
X041140Y003099D02*
X041337Y003296D01*
X026125Y003184D02*
X026125Y002987D01*
X026027Y002889D01*
X025633Y002889D01*
X025534Y002987D01*
X025534Y003184D01*
X025633Y003282D01*
X025830Y003282D02*
X025830Y003085D01*
X025830Y003282D02*
X026027Y003282D01*
X026125Y003184D01*
X026027Y002638D02*
X025633Y002638D01*
X025534Y002539D01*
X025534Y002343D01*
X025633Y002244D01*
X026027Y002244D01*
X026125Y002343D01*
X026125Y002539D01*
X026027Y002638D01*
X026125Y001993D02*
X025928Y001796D01*
X025928Y001895D02*
X025928Y001600D01*
X026125Y001600D02*
X025534Y001600D01*
X025534Y001895D01*
X025633Y001993D01*
X025830Y001993D01*
X025928Y001895D01*
X025830Y001349D02*
X025633Y001349D01*
X025534Y001250D01*
X025534Y000955D01*
X026125Y000955D01*
X025928Y000955D02*
X025928Y001250D01*
X025830Y001349D01*
X006475Y029255D02*
X006081Y029255D01*
X005884Y029452D01*
X006081Y029649D01*
X006475Y029649D01*
X006377Y029900D02*
X005983Y029900D01*
X005884Y029998D01*
X005884Y030195D01*
X005983Y030293D01*
X005884Y030544D02*
X005884Y030938D01*
X005884Y030741D02*
X006475Y030741D01*
X006377Y030293D02*
X006475Y030195D01*
X006475Y029998D01*
X006377Y029900D01*
X006180Y029649D02*
X006180Y029255D01*
D12*
X007530Y029050D02*
X009030Y029050D01*
X008939Y028606D02*
X004866Y028606D01*
X003439Y028606D02*
X002116Y028606D01*
X002116Y021694D01*
X003439Y021694D01*
X004866Y021694D02*
X008939Y021694D01*
X010439Y021694D02*
X010439Y028606D01*
X034680Y002900D02*
X034680Y001400D01*
D13*
X002960Y021325D02*
X002960Y028975D01*
D14*
X003186Y028816D03*
X003186Y021484D03*
D15*
X009964Y020145D02*
X009964Y019935D01*
X010070Y019830D01*
X009964Y019605D02*
X010595Y019185D01*
X010595Y019605D02*
X009964Y019185D01*
X010595Y019830D02*
X010175Y020250D01*
X010070Y020250D01*
X009964Y020145D01*
X010595Y020250D02*
X010595Y019830D01*
X010614Y017211D02*
X010720Y017211D01*
X011140Y016790D01*
X011245Y016790D01*
X011245Y016566D02*
X011035Y016356D01*
X011035Y016461D02*
X011035Y016146D01*
X011245Y016146D02*
X010614Y016146D01*
X010614Y016461D01*
X010720Y016566D01*
X010930Y016566D01*
X011035Y016461D01*
X010614Y016790D02*
X010614Y017211D01*
X012864Y013561D02*
X012864Y013140D01*
X013180Y013140D01*
X013075Y013351D01*
X013075Y013456D01*
X013180Y013561D01*
X013390Y013561D01*
X013495Y013456D01*
X013495Y013246D01*
X013390Y013140D01*
X013390Y012916D02*
X012970Y012916D01*
X012864Y012811D01*
X012864Y012496D01*
X013495Y012496D01*
X013495Y012811D01*
X013390Y012916D01*
X011545Y011595D02*
X011545Y011385D01*
X011440Y011280D01*
X011440Y011055D02*
X011020Y011055D01*
X010914Y010950D01*
X010914Y010635D01*
X011545Y010635D01*
X011545Y010950D01*
X011440Y011055D01*
X011020Y011280D02*
X010914Y011385D01*
X010914Y011595D01*
X011020Y011700D01*
X011125Y011700D01*
X011230Y011595D01*
X011335Y011700D01*
X011440Y011700D01*
X011545Y011595D01*
X011230Y011595D02*
X011230Y011490D01*
X009645Y011039D02*
X009645Y010619D01*
X009225Y011039D01*
X009120Y011039D01*
X009014Y010934D01*
X009014Y010724D01*
X009120Y010619D01*
X009014Y010394D02*
X009645Y010394D01*
X009014Y009974D01*
X009645Y009974D01*
X009540Y009750D02*
X009120Y009750D01*
X009014Y009645D01*
X009014Y009435D01*
X009120Y009330D01*
X009540Y009330D01*
X009645Y009435D01*
X009645Y009645D01*
X009540Y009750D01*
X009540Y009105D02*
X009645Y009000D01*
X009645Y008790D01*
X009540Y008685D01*
X009120Y008685D01*
X009014Y008790D01*
X009014Y009000D01*
X009120Y009105D01*
X007409Y007416D02*
X007409Y006785D01*
X007199Y006785D02*
X007619Y006785D01*
X007199Y007205D02*
X007409Y007416D01*
X006974Y007416D02*
X006974Y006785D01*
X006554Y007416D01*
X006554Y006785D01*
X006330Y006890D02*
X006330Y007310D01*
X006225Y007416D01*
X006015Y007416D01*
X005910Y007310D01*
X005910Y006890D01*
X006015Y006785D01*
X006225Y006785D01*
X006330Y006890D01*
X005685Y006890D02*
X005580Y006785D01*
X005370Y006785D01*
X005265Y006890D01*
X005265Y007310D01*
X005370Y007416D01*
X005580Y007416D01*
X005685Y007310D01*
X009926Y007166D02*
X009926Y006535D01*
X010241Y006535D01*
X010346Y006640D01*
X010346Y007060D01*
X010241Y007166D01*
X009926Y007166D01*
X010570Y006955D02*
X010781Y007166D01*
X010781Y006535D01*
X010991Y006535D02*
X010570Y006535D01*
X013665Y007335D02*
X013665Y007966D01*
X013980Y007966D01*
X014085Y007860D01*
X014085Y007650D01*
X013980Y007545D01*
X013665Y007545D01*
X013875Y007545D02*
X014085Y007335D01*
X014310Y007440D02*
X014415Y007335D01*
X014625Y007335D01*
X014730Y007440D01*
X014730Y007860D01*
X014625Y007966D01*
X014415Y007966D01*
X014310Y007860D01*
X014310Y007755D01*
X014415Y007650D01*
X014730Y007650D01*
X015961Y007907D02*
X016066Y007802D01*
X016277Y007802D01*
X016382Y007907D01*
X016606Y007802D02*
X017026Y007802D01*
X016816Y007802D02*
X016816Y008432D01*
X016606Y008222D01*
X016382Y008327D02*
X016277Y008432D01*
X016066Y008432D01*
X015961Y008327D01*
X015961Y007907D01*
X016066Y007032D02*
X015961Y006927D01*
X015961Y006507D01*
X016066Y006402D01*
X016277Y006402D01*
X016382Y006507D01*
X016606Y006402D02*
X017026Y006402D01*
X016816Y006402D02*
X016816Y007032D01*
X016606Y006822D01*
X016382Y006927D02*
X016277Y007032D01*
X016066Y007032D01*
X017250Y006717D02*
X017250Y006507D01*
X017355Y006402D01*
X017566Y006402D01*
X017671Y006507D01*
X017671Y006612D01*
X017566Y006717D01*
X017250Y006717D01*
X017461Y006927D01*
X017671Y007032D01*
X017566Y007802D02*
X017355Y007802D01*
X017250Y007907D01*
X017461Y008117D02*
X017566Y008117D01*
X017671Y008012D01*
X017671Y007907D01*
X017566Y007802D01*
X017566Y008117D02*
X017671Y008222D01*
X017671Y008327D01*
X017566Y008432D01*
X017355Y008432D01*
X017250Y008327D01*
X021665Y009690D02*
X021770Y009585D01*
X021980Y009585D01*
X022085Y009690D01*
X022085Y010216D01*
X022310Y010110D02*
X022310Y010005D01*
X022415Y009900D01*
X022625Y009900D01*
X022730Y009795D01*
X022730Y009690D01*
X022625Y009585D01*
X022415Y009585D01*
X022310Y009690D01*
X022310Y010110D02*
X022415Y010216D01*
X022625Y010216D01*
X022730Y010110D01*
X022954Y010216D02*
X022954Y009900D01*
X023164Y010005D01*
X023269Y010005D01*
X023374Y009900D01*
X023374Y009690D01*
X023269Y009585D01*
X023059Y009585D01*
X022954Y009690D01*
X022954Y010216D02*
X023374Y010216D01*
X021665Y010216D02*
X021665Y009690D01*
X022420Y003261D02*
X022525Y003261D01*
X022630Y003156D01*
X022735Y003261D01*
X022840Y003261D01*
X022945Y003156D01*
X022945Y002946D01*
X022840Y002840D01*
X022840Y002616D02*
X022945Y002511D01*
X022945Y002301D01*
X022840Y002196D01*
X022840Y001972D02*
X022314Y001972D01*
X022420Y002196D02*
X022314Y002301D01*
X022314Y002511D01*
X022420Y002616D01*
X022420Y002840D02*
X022314Y002946D01*
X022314Y003156D01*
X022420Y003261D01*
X022630Y003156D02*
X022630Y003051D01*
X022735Y002616D02*
X022840Y002616D01*
X022735Y002616D02*
X022630Y002511D01*
X022630Y002301D01*
X022525Y002196D01*
X022420Y002196D01*
X022840Y001972D02*
X022945Y001867D01*
X022945Y001656D01*
X022840Y001551D01*
X022314Y001551D01*
X031320Y001560D02*
X031320Y001455D01*
X031426Y001350D01*
X031636Y001350D01*
X031741Y001245D01*
X031741Y001140D01*
X031636Y001035D01*
X031426Y001035D01*
X031320Y001140D01*
X031320Y001560D02*
X031426Y001666D01*
X031636Y001666D01*
X031741Y001560D01*
X031630Y002895D02*
X031735Y003000D01*
X031735Y003420D01*
X031630Y003526D01*
X031315Y003526D01*
X031315Y002895D01*
X031630Y002895D01*
X031960Y002895D02*
X032380Y003315D01*
X032380Y003420D01*
X032275Y003526D01*
X032065Y003526D01*
X031960Y003420D01*
X031960Y002895D02*
X032380Y002895D01*
X033076Y005235D02*
X033076Y005866D01*
X033391Y005866D01*
X033496Y005760D01*
X033496Y005550D01*
X033391Y005445D01*
X033076Y005445D01*
X033286Y005445D02*
X033496Y005235D01*
X033720Y005235D02*
X034141Y005655D01*
X034141Y005760D01*
X034036Y005866D01*
X033826Y005866D01*
X033720Y005760D01*
X033720Y005235D02*
X034141Y005235D01*
X033995Y008401D02*
X033364Y008401D01*
X033364Y008717D01*
X033470Y008822D01*
X033680Y008822D01*
X033785Y008717D01*
X033785Y008401D01*
X033785Y008612D02*
X033995Y008822D01*
X033995Y009046D02*
X033995Y009466D01*
X033995Y009256D02*
X033364Y009256D01*
X033575Y009046D01*
X033470Y009690D02*
X033364Y009796D01*
X033364Y010006D01*
X033470Y010111D01*
X033575Y010111D01*
X033680Y010006D01*
X033785Y010111D01*
X033890Y010111D01*
X033995Y010006D01*
X033995Y009796D01*
X033890Y009690D01*
X033680Y009901D02*
X033680Y010006D01*
X020991Y021485D02*
X020570Y021485D01*
X020781Y021485D02*
X020781Y022116D01*
X020570Y021905D01*
X020346Y022116D02*
X020346Y021485D01*
X019926Y022116D01*
X019926Y021485D01*
X011595Y026240D02*
X011595Y026450D01*
X011490Y026555D01*
X011490Y026780D02*
X011070Y026780D01*
X010964Y026885D01*
X010964Y027095D01*
X011070Y027200D01*
X011490Y027200D01*
X011595Y027095D01*
X011595Y026885D01*
X011490Y026780D01*
X011070Y026555D02*
X010964Y026450D01*
X010964Y026240D01*
X011070Y026135D01*
X011490Y026135D01*
X011595Y026240D01*
X011595Y027424D02*
X010964Y027424D01*
X011595Y027844D01*
X010964Y027844D01*
X011070Y028069D02*
X010964Y028174D01*
X010964Y028384D01*
X011070Y028489D01*
X011175Y028489D01*
X011280Y028384D01*
X011385Y028489D01*
X011490Y028489D01*
X011595Y028384D01*
X011595Y028174D01*
X011490Y028069D01*
X011280Y028279D02*
X011280Y028384D01*
X011330Y029845D02*
X010910Y029845D01*
X010910Y030476D01*
X011330Y030476D01*
X011554Y030476D02*
X011869Y030476D01*
X011974Y030370D01*
X011974Y029950D01*
X011869Y029845D01*
X011554Y029845D01*
X011554Y030476D01*
X011120Y030160D02*
X010910Y030160D01*
X010685Y029845D02*
X010265Y029845D01*
X010265Y030476D01*
X015181Y029010D02*
X015181Y028590D01*
X015286Y028485D01*
X015497Y028485D01*
X015602Y028590D01*
X015826Y028485D02*
X016246Y028905D01*
X016246Y029010D01*
X016141Y029116D01*
X015931Y029116D01*
X015826Y029010D01*
X015602Y029010D02*
X015497Y029116D01*
X015286Y029116D01*
X015181Y029010D01*
X015826Y028485D02*
X016246Y028485D01*
X016470Y028590D02*
X016891Y029010D01*
X016891Y028590D01*
X016786Y028485D01*
X016576Y028485D01*
X016470Y028590D01*
X016470Y029010D01*
X016576Y029116D01*
X016786Y029116D01*
X016891Y029010D01*
X020681Y028960D02*
X020681Y028540D01*
X020786Y028435D01*
X020997Y028435D01*
X021102Y028540D01*
X021326Y028435D02*
X021746Y028435D01*
X021536Y028435D02*
X021536Y029066D01*
X021326Y028855D01*
X021102Y028960D02*
X020997Y029066D01*
X020786Y029066D01*
X020681Y028960D01*
X021970Y028960D02*
X021970Y028855D01*
X022076Y028750D01*
X022391Y028750D01*
X022391Y028540D02*
X022286Y028435D01*
X022076Y028435D01*
X021970Y028540D01*
X022391Y028540D02*
X022391Y028960D01*
X022286Y029066D01*
X022076Y029066D01*
X021970Y028960D01*
X025431Y030130D02*
X025536Y030025D01*
X025747Y030025D01*
X025852Y030130D01*
X025852Y030656D01*
X026076Y030550D02*
X026076Y030445D01*
X026181Y030340D01*
X026391Y030340D01*
X026496Y030235D01*
X026496Y030130D01*
X026391Y030025D01*
X026181Y030025D01*
X026076Y030130D01*
X025431Y030130D02*
X025431Y030656D01*
X026076Y030550D02*
X026181Y030656D01*
X026391Y030656D01*
X026496Y030550D01*
X026720Y030340D02*
X027141Y030340D01*
X027036Y030025D02*
X027036Y030656D01*
X026720Y030340D01*
X031665Y027616D02*
X031665Y026985D01*
X031665Y027195D02*
X031980Y027195D01*
X032085Y027300D01*
X032085Y027510D01*
X031980Y027616D01*
X031665Y027616D01*
X031875Y027195D02*
X032085Y026985D01*
X032310Y027090D02*
X032415Y026985D01*
X032625Y026985D01*
X032730Y027090D01*
X032730Y027300D01*
X032625Y027405D01*
X032520Y027405D01*
X032310Y027300D01*
X032310Y027616D01*
X032730Y027616D01*
X031881Y025066D02*
X031670Y024855D01*
X031446Y024960D02*
X031341Y025066D01*
X031131Y025066D01*
X031026Y024960D01*
X031026Y024855D01*
X031131Y024750D01*
X031341Y024750D01*
X031446Y024645D01*
X031446Y024540D01*
X031341Y024435D01*
X031131Y024435D01*
X031026Y024540D01*
X030802Y024540D02*
X030697Y024435D01*
X030486Y024435D01*
X030381Y024540D01*
X030381Y025066D01*
X030802Y025066D02*
X030802Y024540D01*
X031670Y024435D02*
X032091Y024435D01*
X031881Y024435D02*
X031881Y025066D01*
X012231Y003716D02*
X012231Y003085D01*
X012441Y003085D02*
X012020Y003085D01*
X011796Y003190D02*
X011691Y003085D01*
X011481Y003085D01*
X011376Y003190D01*
X011376Y003610D01*
X011481Y003716D01*
X011691Y003716D01*
X011796Y003610D01*
X012020Y003505D02*
X012231Y003716D01*
X010030Y003660D02*
X010030Y003555D01*
X009925Y003450D01*
X010030Y003345D01*
X010030Y003240D01*
X009925Y003135D01*
X009715Y003135D01*
X009610Y003240D01*
X009385Y003240D02*
X009280Y003135D01*
X009070Y003135D01*
X008965Y003240D01*
X008965Y003660D01*
X009070Y003766D01*
X009280Y003766D01*
X009385Y003660D01*
X009610Y003660D02*
X009715Y003766D01*
X009925Y003766D01*
X010030Y003660D01*
X009925Y003450D02*
X009820Y003450D01*
D16*
X008680Y002350D02*
X008680Y002050D01*
X008830Y002200D02*
X008530Y002200D01*
X008180Y001650D02*
X008182Y001713D01*
X008188Y001775D01*
X008198Y001837D01*
X008211Y001899D01*
X008229Y001959D01*
X008250Y002018D01*
X008275Y002076D01*
X008304Y002132D01*
X008336Y002186D01*
X008371Y002238D01*
X008409Y002287D01*
X008451Y002335D01*
X008495Y002379D01*
X008543Y002421D01*
X008592Y002459D01*
X008644Y002494D01*
X008698Y002526D01*
X008754Y002555D01*
X008812Y002580D01*
X008871Y002601D01*
X008931Y002619D01*
X008993Y002632D01*
X009055Y002642D01*
X009117Y002648D01*
X009180Y002650D01*
X009243Y002648D01*
X009305Y002642D01*
X009367Y002632D01*
X009429Y002619D01*
X009489Y002601D01*
X009548Y002580D01*
X009606Y002555D01*
X009662Y002526D01*
X009716Y002494D01*
X009768Y002459D01*
X009817Y002421D01*
X009865Y002379D01*
X009909Y002335D01*
X009951Y002287D01*
X009989Y002238D01*
X010024Y002186D01*
X010056Y002132D01*
X010085Y002076D01*
X010110Y002018D01*
X010131Y001959D01*
X010149Y001899D01*
X010162Y001837D01*
X010172Y001775D01*
X010178Y001713D01*
X010180Y001650D01*
X010178Y001587D01*
X010172Y001525D01*
X010162Y001463D01*
X010149Y001401D01*
X010131Y001341D01*
X010110Y001282D01*
X010085Y001224D01*
X010056Y001168D01*
X010024Y001114D01*
X009989Y001062D01*
X009951Y001013D01*
X009909Y000965D01*
X009865Y000921D01*
X009817Y000879D01*
X009768Y000841D01*
X009716Y000806D01*
X009662Y000774D01*
X009606Y000745D01*
X009548Y000720D01*
X009489Y000699D01*
X009429Y000681D01*
X009367Y000668D01*
X009305Y000658D01*
X009243Y000652D01*
X009180Y000650D01*
X009117Y000652D01*
X009055Y000658D01*
X008993Y000668D01*
X008931Y000681D01*
X008871Y000699D01*
X008812Y000720D01*
X008754Y000745D01*
X008698Y000774D01*
X008644Y000806D01*
X008592Y000841D01*
X008543Y000879D01*
X008495Y000921D01*
X008451Y000965D01*
X008409Y001013D01*
X008371Y001062D01*
X008336Y001114D01*
X008304Y001168D01*
X008275Y001224D01*
X008250Y001282D01*
X008229Y001341D01*
X008211Y001401D01*
X008198Y001463D01*
X008188Y001525D01*
X008182Y001587D01*
X008180Y001650D01*
X010680Y001650D02*
X010682Y001713D01*
X010688Y001775D01*
X010698Y001837D01*
X010711Y001899D01*
X010729Y001959D01*
X010750Y002018D01*
X010775Y002076D01*
X010804Y002132D01*
X010836Y002186D01*
X010871Y002238D01*
X010909Y002287D01*
X010951Y002335D01*
X010995Y002379D01*
X011043Y002421D01*
X011092Y002459D01*
X011144Y002494D01*
X011198Y002526D01*
X011254Y002555D01*
X011312Y002580D01*
X011371Y002601D01*
X011431Y002619D01*
X011493Y002632D01*
X011555Y002642D01*
X011617Y002648D01*
X011680Y002650D01*
X011743Y002648D01*
X011805Y002642D01*
X011867Y002632D01*
X011929Y002619D01*
X011989Y002601D01*
X012048Y002580D01*
X012106Y002555D01*
X012162Y002526D01*
X012216Y002494D01*
X012268Y002459D01*
X012317Y002421D01*
X012365Y002379D01*
X012409Y002335D01*
X012451Y002287D01*
X012489Y002238D01*
X012524Y002186D01*
X012556Y002132D01*
X012585Y002076D01*
X012610Y002018D01*
X012631Y001959D01*
X012649Y001899D01*
X012662Y001837D01*
X012672Y001775D01*
X012678Y001713D01*
X012680Y001650D01*
X012678Y001587D01*
X012672Y001525D01*
X012662Y001463D01*
X012649Y001401D01*
X012631Y001341D01*
X012610Y001282D01*
X012585Y001224D01*
X012556Y001168D01*
X012524Y001114D01*
X012489Y001062D01*
X012451Y001013D01*
X012409Y000965D01*
X012365Y000921D01*
X012317Y000879D01*
X012268Y000841D01*
X012216Y000806D01*
X012162Y000774D01*
X012106Y000745D01*
X012048Y000720D01*
X011989Y000699D01*
X011929Y000681D01*
X011867Y000668D01*
X011805Y000658D01*
X011743Y000652D01*
X011680Y000650D01*
X011617Y000652D01*
X011555Y000658D01*
X011493Y000668D01*
X011431Y000681D01*
X011371Y000699D01*
X011312Y000720D01*
X011254Y000745D01*
X011198Y000774D01*
X011144Y000806D01*
X011092Y000841D01*
X011043Y000879D01*
X010995Y000921D01*
X010951Y000965D01*
X010909Y001013D01*
X010871Y001062D01*
X010836Y001114D01*
X010804Y001168D01*
X010775Y001224D01*
X010750Y001282D01*
X010729Y001341D01*
X010711Y001401D01*
X010698Y001463D01*
X010688Y001525D01*
X010682Y001587D01*
X010680Y001650D01*
X012030Y001100D02*
X012330Y001100D01*
X012180Y001250D02*
X012180Y000950D01*
X015180Y001600D02*
X020080Y001600D01*
X020080Y001950D01*
X020680Y001950D01*
X020680Y001600D01*
X021430Y001600D01*
X021430Y005700D01*
X020680Y005700D01*
X020680Y005350D01*
X020080Y005350D01*
X020080Y005700D01*
X015180Y005700D01*
X015180Y001600D01*
X011480Y005250D02*
X009880Y005250D01*
X009863Y005252D01*
X009846Y005256D01*
X009830Y005263D01*
X009816Y005273D01*
X009803Y005286D01*
X009793Y005300D01*
X009786Y005316D01*
X009782Y005333D01*
X009780Y005350D01*
X009780Y005950D01*
X009782Y005967D01*
X009786Y005984D01*
X009793Y006000D01*
X009803Y006014D01*
X009816Y006027D01*
X009830Y006037D01*
X009846Y006044D01*
X009863Y006048D01*
X009880Y006050D01*
X011480Y006050D01*
X011497Y006048D01*
X011514Y006044D01*
X011530Y006037D01*
X011544Y006027D01*
X011557Y006014D01*
X011567Y006000D01*
X011574Y005984D01*
X011578Y005967D01*
X011580Y005950D01*
X011580Y005350D01*
X011578Y005333D01*
X011574Y005316D01*
X011567Y005300D01*
X011557Y005286D01*
X011544Y005273D01*
X011530Y005263D01*
X011514Y005256D01*
X011497Y005252D01*
X011480Y005250D01*
X010930Y005650D02*
X010680Y005650D01*
X010680Y005900D01*
X010680Y005650D02*
X010680Y005400D01*
X010680Y005650D02*
X010280Y005400D01*
X010280Y005900D01*
X010680Y005650D01*
X010080Y005650D01*
X008180Y008550D02*
X004230Y008550D01*
X004180Y008550D01*
X002980Y008550D01*
X002780Y008550D01*
X002780Y009550D01*
X002780Y010550D01*
X002780Y018750D01*
X002980Y018750D01*
X002980Y018700D01*
X003930Y018700D01*
X003960Y018698D01*
X003990Y018693D01*
X004019Y018684D01*
X004046Y018671D01*
X004072Y018656D01*
X004096Y018637D01*
X004117Y018616D01*
X004136Y018592D01*
X004151Y018566D01*
X004164Y018539D01*
X004173Y018510D01*
X004178Y018480D01*
X004180Y018450D01*
X004180Y018400D02*
X004180Y018750D01*
X004180Y020750D01*
X004230Y020750D01*
X008230Y020750D01*
X008430Y020550D01*
X008430Y018600D01*
X008230Y018400D01*
X004180Y018400D01*
X004180Y018300D01*
X004480Y018300D01*
X004480Y011000D01*
X004180Y011000D01*
X004180Y018300D01*
X002780Y018750D02*
X002780Y019750D01*
X002780Y020750D01*
X002980Y020750D01*
X004180Y020750D01*
X002780Y020750D02*
X002580Y020750D01*
X002580Y017700D01*
X002580Y011600D01*
X002580Y008550D01*
X002780Y008550D01*
X004180Y008550D02*
X004180Y010550D01*
X004180Y010900D01*
X008230Y010900D01*
X008430Y010700D01*
X008430Y008800D01*
X008180Y008550D01*
X006530Y009720D02*
X006532Y009770D01*
X006538Y009820D01*
X006548Y009870D01*
X006561Y009918D01*
X006578Y009966D01*
X006599Y010012D01*
X006623Y010056D01*
X006651Y010098D01*
X006682Y010138D01*
X006716Y010175D01*
X006753Y010210D01*
X006792Y010241D01*
X006833Y010270D01*
X006877Y010295D01*
X006923Y010317D01*
X006970Y010335D01*
X007018Y010349D01*
X007067Y010360D01*
X007117Y010367D01*
X007167Y010370D01*
X007218Y010369D01*
X007268Y010364D01*
X007318Y010355D01*
X007366Y010343D01*
X007414Y010326D01*
X007460Y010306D01*
X007505Y010283D01*
X007548Y010256D01*
X007588Y010226D01*
X007626Y010193D01*
X007661Y010157D01*
X007694Y010118D01*
X007723Y010077D01*
X007749Y010034D01*
X007772Y009989D01*
X007791Y009942D01*
X007806Y009894D01*
X007818Y009845D01*
X007826Y009795D01*
X007830Y009745D01*
X007830Y009695D01*
X007826Y009645D01*
X007818Y009595D01*
X007806Y009546D01*
X007791Y009498D01*
X007772Y009451D01*
X007749Y009406D01*
X007723Y009363D01*
X007694Y009322D01*
X007661Y009283D01*
X007626Y009247D01*
X007588Y009214D01*
X007548Y009184D01*
X007505Y009157D01*
X007460Y009134D01*
X007414Y009114D01*
X007366Y009097D01*
X007318Y009085D01*
X007268Y009076D01*
X007218Y009071D01*
X007167Y009070D01*
X007117Y009073D01*
X007067Y009080D01*
X007018Y009091D01*
X006970Y009105D01*
X006923Y009123D01*
X006877Y009145D01*
X006833Y009170D01*
X006792Y009199D01*
X006753Y009230D01*
X006716Y009265D01*
X006682Y009302D01*
X006651Y009342D01*
X006623Y009384D01*
X006599Y009428D01*
X006578Y009474D01*
X006561Y009522D01*
X006548Y009570D01*
X006538Y009620D01*
X006532Y009670D01*
X006530Y009720D01*
X004180Y010900D02*
X004180Y011000D01*
X004180Y010850D02*
X004178Y010820D01*
X004173Y010790D01*
X004164Y010761D01*
X004151Y010734D01*
X004136Y010708D01*
X004117Y010684D01*
X004096Y010663D01*
X004072Y010644D01*
X004046Y010629D01*
X004019Y010616D01*
X003990Y010607D01*
X003960Y010602D01*
X003930Y010600D01*
X002980Y010600D01*
X002980Y010550D01*
X002780Y010550D01*
X002580Y011200D02*
X002578Y011230D01*
X002573Y011260D01*
X002564Y011289D01*
X002551Y011316D01*
X002536Y011342D01*
X002517Y011366D01*
X002496Y011387D01*
X002472Y011406D01*
X002446Y011421D01*
X002419Y011434D01*
X002390Y011443D01*
X002360Y011448D01*
X002330Y011450D01*
X000330Y011450D01*
X000304Y011452D01*
X000278Y011457D01*
X000253Y011465D01*
X000230Y011477D01*
X000208Y011491D01*
X000189Y011509D01*
X000171Y011528D01*
X000157Y011550D01*
X000145Y011573D01*
X000137Y011598D01*
X000132Y011624D01*
X000130Y011650D01*
X000130Y011750D01*
X000130Y017550D01*
X000130Y017650D01*
X000132Y017676D01*
X000137Y017702D01*
X000145Y017727D01*
X000157Y017750D01*
X000171Y017772D01*
X000189Y017791D01*
X000208Y017809D01*
X000230Y017823D01*
X000253Y017835D01*
X000278Y017843D01*
X000304Y017848D01*
X000330Y017850D01*
X002330Y017850D01*
X002360Y017852D01*
X002390Y017857D01*
X002419Y017866D01*
X002446Y017879D01*
X002472Y017894D01*
X002496Y017913D01*
X002517Y017934D01*
X002536Y017958D01*
X002551Y017984D01*
X002564Y018011D01*
X002573Y018040D01*
X002578Y018070D01*
X002580Y018100D01*
X006530Y019580D02*
X006532Y019630D01*
X006538Y019680D01*
X006548Y019730D01*
X006561Y019778D01*
X006578Y019826D01*
X006599Y019872D01*
X006623Y019916D01*
X006651Y019958D01*
X006682Y019998D01*
X006716Y020035D01*
X006753Y020070D01*
X006792Y020101D01*
X006833Y020130D01*
X006877Y020155D01*
X006923Y020177D01*
X006970Y020195D01*
X007018Y020209D01*
X007067Y020220D01*
X007117Y020227D01*
X007167Y020230D01*
X007218Y020229D01*
X007268Y020224D01*
X007318Y020215D01*
X007366Y020203D01*
X007414Y020186D01*
X007460Y020166D01*
X007505Y020143D01*
X007548Y020116D01*
X007588Y020086D01*
X007626Y020053D01*
X007661Y020017D01*
X007694Y019978D01*
X007723Y019937D01*
X007749Y019894D01*
X007772Y019849D01*
X007791Y019802D01*
X007806Y019754D01*
X007818Y019705D01*
X007826Y019655D01*
X007830Y019605D01*
X007830Y019555D01*
X007826Y019505D01*
X007818Y019455D01*
X007806Y019406D01*
X007791Y019358D01*
X007772Y019311D01*
X007749Y019266D01*
X007723Y019223D01*
X007694Y019182D01*
X007661Y019143D01*
X007626Y019107D01*
X007588Y019074D01*
X007548Y019044D01*
X007505Y019017D01*
X007460Y018994D01*
X007414Y018974D01*
X007366Y018957D01*
X007318Y018945D01*
X007268Y018936D01*
X007218Y018931D01*
X007167Y018930D01*
X007117Y018933D01*
X007067Y018940D01*
X007018Y018951D01*
X006970Y018965D01*
X006923Y018983D01*
X006877Y019005D01*
X006833Y019030D01*
X006792Y019059D01*
X006753Y019090D01*
X006716Y019125D01*
X006682Y019162D01*
X006651Y019202D01*
X006623Y019244D01*
X006599Y019288D01*
X006578Y019334D01*
X006561Y019382D01*
X006548Y019430D01*
X006538Y019480D01*
X006532Y019530D01*
X006530Y019580D01*
X011030Y019950D02*
X011030Y022350D01*
X011032Y022400D01*
X011038Y022449D01*
X011047Y022498D01*
X011060Y022546D01*
X011077Y022593D01*
X011097Y022638D01*
X011121Y022682D01*
X011148Y022724D01*
X011179Y022764D01*
X011212Y022801D01*
X011248Y022835D01*
X011286Y022867D01*
X011327Y022896D01*
X011369Y022921D01*
X011414Y022943D01*
X011460Y022962D01*
X011508Y022977D01*
X011556Y022988D01*
X011605Y022996D01*
X011655Y023000D01*
X011705Y023000D01*
X011755Y022996D01*
X011804Y022988D01*
X011852Y022977D01*
X011900Y022962D01*
X011946Y022943D01*
X011991Y022921D01*
X012033Y022896D01*
X012074Y022867D01*
X012112Y022835D01*
X012148Y022801D01*
X012181Y022764D01*
X012212Y022724D01*
X012239Y022682D01*
X012263Y022638D01*
X012283Y022593D01*
X012300Y022546D01*
X012313Y022498D01*
X012322Y022449D01*
X012328Y022400D01*
X012330Y022350D01*
X012330Y019950D01*
X012328Y019900D01*
X012322Y019851D01*
X012313Y019802D01*
X012300Y019754D01*
X012283Y019707D01*
X012263Y019662D01*
X012239Y019618D01*
X012212Y019576D01*
X012181Y019536D01*
X012148Y019499D01*
X012112Y019465D01*
X012074Y019433D01*
X012033Y019404D01*
X011991Y019379D01*
X011946Y019357D01*
X011900Y019338D01*
X011852Y019323D01*
X011804Y019312D01*
X011755Y019304D01*
X011705Y019300D01*
X011655Y019300D01*
X011605Y019304D01*
X011556Y019312D01*
X011508Y019323D01*
X011460Y019338D01*
X011414Y019357D01*
X011369Y019379D01*
X011327Y019404D01*
X011286Y019433D01*
X011248Y019465D01*
X011212Y019499D01*
X011179Y019536D01*
X011148Y019576D01*
X011121Y019618D01*
X011097Y019662D01*
X011077Y019707D01*
X011060Y019754D01*
X011047Y019802D01*
X011038Y019851D01*
X011032Y019900D01*
X011030Y019950D01*
X011680Y020650D02*
X011680Y020900D01*
X011980Y020900D01*
X011980Y021050D02*
X011380Y021050D01*
X011380Y021250D01*
X011980Y021250D01*
X011980Y021050D01*
X011680Y020900D02*
X011380Y020900D01*
X011380Y021400D02*
X011680Y021400D01*
X011680Y021650D01*
X011680Y021400D02*
X011980Y021400D01*
X013280Y029550D02*
X017080Y029550D01*
X017097Y029552D01*
X017114Y029556D01*
X017130Y029563D01*
X017144Y029573D01*
X017157Y029586D01*
X017167Y029600D01*
X017174Y029616D01*
X017178Y029633D01*
X017180Y029650D01*
X017180Y030650D01*
X017178Y030667D01*
X017174Y030684D01*
X017167Y030700D01*
X017157Y030714D01*
X017144Y030727D01*
X017130Y030737D01*
X017114Y030744D01*
X017097Y030748D01*
X017080Y030750D01*
X013280Y030750D01*
X013263Y030748D01*
X013246Y030744D01*
X013230Y030737D01*
X013216Y030727D01*
X013203Y030714D01*
X013193Y030700D01*
X013186Y030684D01*
X013182Y030667D01*
X013180Y030650D01*
X013180Y029650D01*
X013182Y029633D01*
X013186Y029616D01*
X013193Y029600D01*
X013203Y029586D01*
X013216Y029573D01*
X013230Y029563D01*
X013246Y029556D01*
X013263Y029552D01*
X013280Y029550D01*
X014180Y030150D02*
X014980Y030150D01*
X015380Y030150D02*
X016180Y030150D01*
X018680Y030650D02*
X018680Y029650D01*
X018682Y029633D01*
X018686Y029616D01*
X018693Y029600D01*
X018703Y029586D01*
X018716Y029573D01*
X018730Y029563D01*
X018746Y029556D01*
X018763Y029552D01*
X018780Y029550D01*
X022580Y029550D01*
X022597Y029552D01*
X022614Y029556D01*
X022630Y029563D01*
X022644Y029573D01*
X022657Y029586D01*
X022667Y029600D01*
X022674Y029616D01*
X022678Y029633D01*
X022680Y029650D01*
X022680Y030650D01*
X022678Y030667D01*
X022674Y030684D01*
X022667Y030700D01*
X022657Y030714D01*
X022644Y030727D01*
X022630Y030737D01*
X022614Y030744D01*
X022597Y030748D01*
X022580Y030750D01*
X018780Y030750D01*
X018763Y030748D01*
X018746Y030744D01*
X018730Y030737D01*
X018716Y030727D01*
X018703Y030714D01*
X018693Y030700D01*
X018686Y030684D01*
X018682Y030667D01*
X018680Y030650D01*
X019680Y030150D02*
X020480Y030150D01*
X020880Y030150D02*
X021680Y030150D01*
X026080Y029650D02*
X026080Y025650D01*
X026930Y025650D01*
X026932Y025680D01*
X026937Y025710D01*
X026946Y025739D01*
X026959Y025766D01*
X026974Y025792D01*
X026993Y025816D01*
X027014Y025837D01*
X027038Y025856D01*
X027064Y025871D01*
X027091Y025884D01*
X027120Y025893D01*
X027150Y025898D01*
X027180Y025900D01*
X027210Y025898D01*
X027240Y025893D01*
X027269Y025884D01*
X027296Y025871D01*
X027322Y025856D01*
X027346Y025837D01*
X027367Y025816D01*
X027386Y025792D01*
X027401Y025766D01*
X027414Y025739D01*
X027423Y025710D01*
X027428Y025680D01*
X027430Y025650D01*
X028280Y025650D01*
X028280Y029650D01*
X026080Y029650D01*
X026230Y024150D02*
X026230Y004150D01*
X028180Y004150D01*
X028182Y004194D01*
X028188Y004237D01*
X028197Y004279D01*
X028210Y004321D01*
X028227Y004361D01*
X028247Y004400D01*
X028270Y004437D01*
X028297Y004471D01*
X028326Y004504D01*
X028359Y004533D01*
X028393Y004560D01*
X028430Y004583D01*
X028469Y004603D01*
X028509Y004620D01*
X028551Y004633D01*
X028593Y004642D01*
X028636Y004648D01*
X028680Y004650D01*
X028724Y004648D01*
X028767Y004642D01*
X028809Y004633D01*
X028851Y004620D01*
X028891Y004603D01*
X028930Y004583D01*
X028967Y004560D01*
X029001Y004533D01*
X029034Y004504D01*
X029063Y004471D01*
X029090Y004437D01*
X029113Y004400D01*
X029133Y004361D01*
X029150Y004321D01*
X029163Y004279D01*
X029172Y004237D01*
X029178Y004194D01*
X029180Y004150D01*
X031130Y004150D01*
X031130Y024150D01*
X026230Y024150D01*
X033280Y022450D02*
X033280Y010850D01*
X033282Y010824D01*
X033287Y010798D01*
X033295Y010773D01*
X033307Y010750D01*
X033321Y010728D01*
X033339Y010709D01*
X033358Y010691D01*
X033380Y010677D01*
X033403Y010665D01*
X033428Y010657D01*
X033454Y010652D01*
X033480Y010650D01*
X033880Y010650D01*
X033906Y010652D01*
X033932Y010657D01*
X033957Y010665D01*
X033980Y010677D01*
X034002Y010691D01*
X034021Y010709D01*
X034039Y010728D01*
X034053Y010750D01*
X034065Y010773D01*
X034073Y010798D01*
X034078Y010824D01*
X034080Y010850D01*
X034080Y022450D01*
X034030Y022500D02*
X034030Y021800D01*
X033330Y021800D01*
X033330Y022500D01*
X034030Y022500D01*
X034080Y022450D02*
X034078Y022476D01*
X034073Y022502D01*
X034065Y022527D01*
X034053Y022550D01*
X034039Y022572D01*
X034021Y022591D01*
X034002Y022609D01*
X033980Y022623D01*
X033957Y022635D01*
X033932Y022643D01*
X033906Y022648D01*
X033880Y022650D01*
X033480Y022650D01*
X033454Y022648D01*
X033428Y022643D01*
X033403Y022635D01*
X033380Y022623D01*
X033358Y022609D01*
X033339Y022591D01*
X033321Y022572D01*
X033307Y022550D01*
X033295Y022527D01*
X033287Y022502D01*
X033282Y022476D01*
X033280Y022450D01*
X019370Y003650D02*
X019372Y003703D01*
X019378Y003756D01*
X019388Y003808D01*
X019402Y003859D01*
X019419Y003909D01*
X019440Y003958D01*
X019465Y004005D01*
X019493Y004050D01*
X019525Y004093D01*
X019560Y004133D01*
X019597Y004170D01*
X019637Y004205D01*
X019680Y004237D01*
X019725Y004265D01*
X019772Y004290D01*
X019821Y004311D01*
X019871Y004328D01*
X019922Y004342D01*
X019974Y004352D01*
X020027Y004358D01*
X020080Y004360D01*
X020133Y004358D01*
X020186Y004352D01*
X020238Y004342D01*
X020289Y004328D01*
X020339Y004311D01*
X020388Y004290D01*
X020435Y004265D01*
X020480Y004237D01*
X020523Y004205D01*
X020563Y004170D01*
X020600Y004133D01*
X020635Y004093D01*
X020667Y004050D01*
X020695Y004005D01*
X020720Y003958D01*
X020741Y003909D01*
X020758Y003859D01*
X020772Y003808D01*
X020782Y003756D01*
X020788Y003703D01*
X020790Y003650D01*
X020788Y003597D01*
X020782Y003544D01*
X020772Y003492D01*
X020758Y003441D01*
X020741Y003391D01*
X020720Y003342D01*
X020695Y003295D01*
X020667Y003250D01*
X020635Y003207D01*
X020600Y003167D01*
X020563Y003130D01*
X020523Y003095D01*
X020480Y003063D01*
X020435Y003035D01*
X020388Y003010D01*
X020339Y002989D01*
X020289Y002972D01*
X020238Y002958D01*
X020186Y002948D01*
X020133Y002942D01*
X020080Y002940D01*
X020027Y002942D01*
X019974Y002948D01*
X019922Y002958D01*
X019871Y002972D01*
X019821Y002989D01*
X019772Y003010D01*
X019725Y003035D01*
X019680Y003063D01*
X019637Y003095D01*
X019597Y003130D01*
X019560Y003167D01*
X019525Y003207D01*
X019493Y003250D01*
X019465Y003295D01*
X019440Y003342D01*
X019419Y003391D01*
X019402Y003441D01*
X019388Y003492D01*
X019378Y003544D01*
X019372Y003597D01*
X019370Y003650D01*
X027380Y002450D02*
X027380Y001850D01*
X027480Y001850D01*
X027480Y001750D01*
X027480Y002450D02*
X027380Y002450D01*
X027480Y002450D02*
X027480Y002550D01*
X027830Y003350D02*
X028230Y003350D01*
X029180Y003350D01*
X029530Y003350D01*
X029880Y002550D02*
X029880Y002450D01*
X029980Y002450D01*
X029980Y001850D01*
X029880Y001850D01*
X029880Y001750D01*
X029530Y000950D02*
X029180Y000950D01*
X028180Y000950D01*
X027830Y000950D01*
X028580Y002150D02*
X028582Y002170D01*
X028588Y002188D01*
X028597Y002206D01*
X028609Y002221D01*
X028624Y002233D01*
X028642Y002242D01*
X028660Y002248D01*
X028680Y002250D01*
X028700Y002248D01*
X028718Y002242D01*
X028736Y002233D01*
X028751Y002221D01*
X028763Y002206D01*
X028772Y002188D01*
X028778Y002170D01*
X028780Y002150D01*
X028778Y002130D01*
X028772Y002112D01*
X028763Y002094D01*
X028751Y002079D01*
X028736Y002067D01*
X028718Y002058D01*
X028700Y002052D01*
X028680Y002050D01*
X028660Y002052D01*
X028642Y002058D01*
X028624Y002067D01*
X028609Y002079D01*
X028597Y002094D01*
X028588Y002112D01*
X028582Y002130D01*
X028580Y002150D01*
X027980Y002150D02*
X027982Y002202D01*
X027988Y002254D01*
X027998Y002306D01*
X028011Y002356D01*
X028028Y002406D01*
X028049Y002454D01*
X028074Y002500D01*
X028102Y002544D01*
X028133Y002586D01*
X028167Y002626D01*
X028204Y002663D01*
X028244Y002697D01*
X028286Y002728D01*
X028330Y002756D01*
X028376Y002781D01*
X028424Y002802D01*
X028474Y002819D01*
X028524Y002832D01*
X028576Y002842D01*
X028628Y002848D01*
X028680Y002850D01*
X028732Y002848D01*
X028784Y002842D01*
X028836Y002832D01*
X028886Y002819D01*
X028936Y002802D01*
X028984Y002781D01*
X029030Y002756D01*
X029074Y002728D01*
X029116Y002697D01*
X029156Y002663D01*
X029193Y002626D01*
X029227Y002586D01*
X029258Y002544D01*
X029286Y002500D01*
X029311Y002454D01*
X029332Y002406D01*
X029349Y002356D01*
X029362Y002306D01*
X029372Y002254D01*
X029378Y002202D01*
X029380Y002150D01*
X029378Y002098D01*
X029372Y002046D01*
X029362Y001994D01*
X029349Y001944D01*
X029332Y001894D01*
X029311Y001846D01*
X029286Y001800D01*
X029258Y001756D01*
X029227Y001714D01*
X029193Y001674D01*
X029156Y001637D01*
X029116Y001603D01*
X029074Y001572D01*
X029030Y001544D01*
X028984Y001519D01*
X028936Y001498D01*
X028886Y001481D01*
X028836Y001468D01*
X028784Y001458D01*
X028732Y001452D01*
X028680Y001450D01*
X028628Y001452D01*
X028576Y001458D01*
X028524Y001468D01*
X028474Y001481D01*
X028424Y001498D01*
X028376Y001519D01*
X028330Y001544D01*
X028286Y001572D01*
X028244Y001603D01*
X028204Y001637D01*
X028167Y001674D01*
X028133Y001714D01*
X028102Y001756D01*
X028074Y001800D01*
X028049Y001846D01*
X028028Y001894D01*
X028011Y001944D01*
X027998Y001994D01*
X027988Y002046D01*
X027982Y002098D01*
X027980Y002150D01*
X032680Y002150D02*
X032682Y002213D01*
X032688Y002275D01*
X032698Y002337D01*
X032711Y002399D01*
X032729Y002459D01*
X032750Y002518D01*
X032775Y002576D01*
X032804Y002632D01*
X032836Y002686D01*
X032871Y002738D01*
X032909Y002787D01*
X032951Y002835D01*
X032995Y002879D01*
X033043Y002921D01*
X033092Y002959D01*
X033144Y002994D01*
X033198Y003026D01*
X033254Y003055D01*
X033312Y003080D01*
X033371Y003101D01*
X033431Y003119D01*
X033493Y003132D01*
X033555Y003142D01*
X033617Y003148D01*
X033680Y003150D01*
X033743Y003148D01*
X033805Y003142D01*
X033867Y003132D01*
X033929Y003119D01*
X033989Y003101D01*
X034048Y003080D01*
X034106Y003055D01*
X034162Y003026D01*
X034216Y002994D01*
X034268Y002959D01*
X034317Y002921D01*
X034365Y002879D01*
X034409Y002835D01*
X034451Y002787D01*
X034489Y002738D01*
X034524Y002686D01*
X034556Y002632D01*
X034585Y002576D01*
X034610Y002518D01*
X034631Y002459D01*
X034649Y002399D01*
X034662Y002337D01*
X034672Y002275D01*
X034678Y002213D01*
X034680Y002150D01*
X034678Y002087D01*
X034672Y002025D01*
X034662Y001963D01*
X034649Y001901D01*
X034631Y001841D01*
X034610Y001782D01*
X034585Y001724D01*
X034556Y001668D01*
X034524Y001614D01*
X034489Y001562D01*
X034451Y001513D01*
X034409Y001465D01*
X034365Y001421D01*
X034317Y001379D01*
X034268Y001341D01*
X034216Y001306D01*
X034162Y001274D01*
X034106Y001245D01*
X034048Y001220D01*
X033989Y001199D01*
X033929Y001181D01*
X033867Y001168D01*
X033805Y001158D01*
X033743Y001152D01*
X033680Y001150D01*
X033617Y001152D01*
X033555Y001158D01*
X033493Y001168D01*
X033431Y001181D01*
X033371Y001199D01*
X033312Y001220D01*
X033254Y001245D01*
X033198Y001274D01*
X033144Y001306D01*
X033092Y001341D01*
X033043Y001379D01*
X032995Y001421D01*
X032951Y001465D01*
X032909Y001513D01*
X032871Y001562D01*
X032836Y001614D01*
X032804Y001668D01*
X032775Y001724D01*
X032750Y001782D01*
X032729Y001841D01*
X032711Y001901D01*
X032698Y001963D01*
X032688Y002025D01*
X032682Y002087D01*
X032680Y002150D01*
X007280Y030050D02*
X007282Y030113D01*
X007288Y030175D01*
X007298Y030237D01*
X007311Y030299D01*
X007329Y030359D01*
X007350Y030418D01*
X007375Y030476D01*
X007404Y030532D01*
X007436Y030586D01*
X007471Y030638D01*
X007509Y030687D01*
X007551Y030735D01*
X007595Y030779D01*
X007643Y030821D01*
X007692Y030859D01*
X007744Y030894D01*
X007798Y030926D01*
X007854Y030955D01*
X007912Y030980D01*
X007971Y031001D01*
X008031Y031019D01*
X008093Y031032D01*
X008155Y031042D01*
X008217Y031048D01*
X008280Y031050D01*
X008343Y031048D01*
X008405Y031042D01*
X008467Y031032D01*
X008529Y031019D01*
X008589Y031001D01*
X008648Y030980D01*
X008706Y030955D01*
X008762Y030926D01*
X008816Y030894D01*
X008868Y030859D01*
X008917Y030821D01*
X008965Y030779D01*
X009009Y030735D01*
X009051Y030687D01*
X009089Y030638D01*
X009124Y030586D01*
X009156Y030532D01*
X009185Y030476D01*
X009210Y030418D01*
X009231Y030359D01*
X009249Y030299D01*
X009262Y030237D01*
X009272Y030175D01*
X009278Y030113D01*
X009280Y030050D01*
X009278Y029987D01*
X009272Y029925D01*
X009262Y029863D01*
X009249Y029801D01*
X009231Y029741D01*
X009210Y029682D01*
X009185Y029624D01*
X009156Y029568D01*
X009124Y029514D01*
X009089Y029462D01*
X009051Y029413D01*
X009009Y029365D01*
X008965Y029321D01*
X008917Y029279D01*
X008868Y029241D01*
X008816Y029206D01*
X008762Y029174D01*
X008706Y029145D01*
X008648Y029120D01*
X008589Y029099D01*
X008529Y029081D01*
X008467Y029068D01*
X008405Y029058D01*
X008343Y029052D01*
X008280Y029050D01*
X008217Y029052D01*
X008155Y029058D01*
X008093Y029068D01*
X008031Y029081D01*
X007971Y029099D01*
X007912Y029120D01*
X007854Y029145D01*
X007798Y029174D01*
X007744Y029206D01*
X007692Y029241D01*
X007643Y029279D01*
X007595Y029321D01*
X007551Y029365D01*
X007509Y029413D01*
X007471Y029462D01*
X007436Y029514D01*
X007404Y029568D01*
X007375Y029624D01*
X007350Y029682D01*
X007329Y029741D01*
X007311Y029801D01*
X007298Y029863D01*
X007288Y029925D01*
X007282Y029987D01*
X007280Y030050D01*
D17*
X013180Y026650D02*
X013180Y022650D01*
X021180Y022650D01*
X021180Y026650D01*
X013180Y026650D01*
X013680Y025650D02*
X013680Y025250D01*
X013682Y025227D01*
X013687Y025204D01*
X013696Y025182D01*
X013709Y025162D01*
X013724Y025144D01*
X013742Y025129D01*
X013762Y025116D01*
X013784Y025107D01*
X013807Y025102D01*
X013830Y025100D01*
X013853Y025102D01*
X013876Y025107D01*
X013898Y025116D01*
X013918Y025129D01*
X013936Y025144D01*
X013951Y025162D01*
X013964Y025182D01*
X013973Y025204D01*
X013978Y025227D01*
X013980Y025250D01*
X013982Y025227D01*
X013987Y025204D01*
X013996Y025182D01*
X014009Y025162D01*
X014024Y025144D01*
X014042Y025129D01*
X014062Y025116D01*
X014084Y025107D01*
X014107Y025102D01*
X014130Y025100D01*
X014153Y025102D01*
X014176Y025107D01*
X014198Y025116D01*
X014218Y025129D01*
X014236Y025144D01*
X014251Y025162D01*
X014264Y025182D01*
X014273Y025204D01*
X014278Y025227D01*
X014280Y025250D01*
X014282Y025227D01*
X014287Y025204D01*
X014296Y025182D01*
X014309Y025162D01*
X014324Y025144D01*
X014342Y025129D01*
X014362Y025116D01*
X014384Y025107D01*
X014407Y025102D01*
X014430Y025100D01*
X014453Y025102D01*
X014476Y025107D01*
X014498Y025116D01*
X014518Y025129D01*
X014536Y025144D01*
X014551Y025162D01*
X014564Y025182D01*
X014573Y025204D01*
X014578Y025227D01*
X014580Y025250D01*
X014680Y025250D01*
X014680Y025650D01*
X014680Y025250D02*
X014780Y025250D01*
X014782Y025227D01*
X014787Y025204D01*
X014796Y025182D01*
X014809Y025162D01*
X014824Y025144D01*
X014842Y025129D01*
X014862Y025116D01*
X014884Y025107D01*
X014907Y025102D01*
X014930Y025100D01*
X014953Y025102D01*
X014976Y025107D01*
X014998Y025116D01*
X015018Y025129D01*
X015036Y025144D01*
X015051Y025162D01*
X015064Y025182D01*
X015073Y025204D01*
X015078Y025227D01*
X015080Y025250D01*
X015082Y025227D01*
X015087Y025204D01*
X015096Y025182D01*
X015109Y025162D01*
X015124Y025144D01*
X015142Y025129D01*
X015162Y025116D01*
X015184Y025107D01*
X015207Y025102D01*
X015230Y025100D01*
X015253Y025102D01*
X015276Y025107D01*
X015298Y025116D01*
X015318Y025129D01*
X015336Y025144D01*
X015351Y025162D01*
X015364Y025182D01*
X015373Y025204D01*
X015378Y025227D01*
X015380Y025250D01*
X015382Y025227D01*
X015387Y025204D01*
X015396Y025182D01*
X015409Y025162D01*
X015424Y025144D01*
X015442Y025129D01*
X015462Y025116D01*
X015484Y025107D01*
X015507Y025102D01*
X015530Y025100D01*
X015553Y025102D01*
X015576Y025107D01*
X015598Y025116D01*
X015618Y025129D01*
X015636Y025144D01*
X015651Y025162D01*
X015664Y025182D01*
X015673Y025204D01*
X015678Y025227D01*
X015680Y025250D01*
X015680Y025650D01*
X015680Y024850D02*
X013680Y024850D01*
X013680Y024450D02*
X015680Y024450D01*
X015680Y024050D02*
X015680Y023650D01*
X015680Y024050D02*
X015678Y024073D01*
X015673Y024096D01*
X015664Y024118D01*
X015651Y024138D01*
X015636Y024156D01*
X015618Y024171D01*
X015598Y024184D01*
X015576Y024193D01*
X015553Y024198D01*
X015530Y024200D01*
X015507Y024198D01*
X015484Y024193D01*
X015462Y024184D01*
X015442Y024171D01*
X015424Y024156D01*
X015409Y024138D01*
X015396Y024118D01*
X015387Y024096D01*
X015382Y024073D01*
X015380Y024050D01*
X015378Y024073D01*
X015373Y024096D01*
X015364Y024118D01*
X015351Y024138D01*
X015336Y024156D01*
X015318Y024171D01*
X015298Y024184D01*
X015276Y024193D01*
X015253Y024198D01*
X015230Y024200D01*
X015207Y024198D01*
X015184Y024193D01*
X015162Y024184D01*
X015142Y024171D01*
X015124Y024156D01*
X015109Y024138D01*
X015096Y024118D01*
X015087Y024096D01*
X015082Y024073D01*
X015080Y024050D01*
X015078Y024073D01*
X015073Y024096D01*
X015064Y024118D01*
X015051Y024138D01*
X015036Y024156D01*
X015018Y024171D01*
X014998Y024184D01*
X014976Y024193D01*
X014953Y024198D01*
X014930Y024200D01*
X014907Y024198D01*
X014884Y024193D01*
X014862Y024184D01*
X014842Y024171D01*
X014824Y024156D01*
X014809Y024138D01*
X014796Y024118D01*
X014787Y024096D01*
X014782Y024073D01*
X014780Y024050D01*
X014680Y024050D01*
X014680Y023650D01*
X014680Y024050D02*
X014580Y024050D01*
X014578Y024073D01*
X014573Y024096D01*
X014564Y024118D01*
X014551Y024138D01*
X014536Y024156D01*
X014518Y024171D01*
X014498Y024184D01*
X014476Y024193D01*
X014453Y024198D01*
X014430Y024200D01*
X014407Y024198D01*
X014384Y024193D01*
X014362Y024184D01*
X014342Y024171D01*
X014324Y024156D01*
X014309Y024138D01*
X014296Y024118D01*
X014287Y024096D01*
X014282Y024073D01*
X014280Y024050D01*
X014278Y024073D01*
X014273Y024096D01*
X014264Y024118D01*
X014251Y024138D01*
X014236Y024156D01*
X014218Y024171D01*
X014198Y024184D01*
X014176Y024193D01*
X014153Y024198D01*
X014130Y024200D01*
X014107Y024198D01*
X014084Y024193D01*
X014062Y024184D01*
X014042Y024171D01*
X014024Y024156D01*
X014009Y024138D01*
X013996Y024118D01*
X013987Y024096D01*
X013982Y024073D01*
X013980Y024050D01*
X013978Y024073D01*
X013973Y024096D01*
X013964Y024118D01*
X013951Y024138D01*
X013936Y024156D01*
X013918Y024171D01*
X013898Y024184D01*
X013876Y024193D01*
X013853Y024198D01*
X013830Y024200D01*
X013807Y024198D01*
X013784Y024193D01*
X013762Y024184D01*
X013742Y024171D01*
X013724Y024156D01*
X013709Y024138D01*
X013696Y024118D01*
X013687Y024096D01*
X013682Y024073D01*
X013680Y024050D01*
X013680Y023650D01*
X018680Y023650D02*
X018680Y024050D01*
X018682Y024073D01*
X018687Y024096D01*
X018696Y024118D01*
X018709Y024138D01*
X018724Y024156D01*
X018742Y024171D01*
X018762Y024184D01*
X018784Y024193D01*
X018807Y024198D01*
X018830Y024200D01*
X018853Y024198D01*
X018876Y024193D01*
X018898Y024184D01*
X018918Y024171D01*
X018936Y024156D01*
X018951Y024138D01*
X018964Y024118D01*
X018973Y024096D01*
X018978Y024073D01*
X018980Y024050D01*
X018982Y024073D01*
X018987Y024096D01*
X018996Y024118D01*
X019009Y024138D01*
X019024Y024156D01*
X019042Y024171D01*
X019062Y024184D01*
X019084Y024193D01*
X019107Y024198D01*
X019130Y024200D01*
X019153Y024198D01*
X019176Y024193D01*
X019198Y024184D01*
X019218Y024171D01*
X019236Y024156D01*
X019251Y024138D01*
X019264Y024118D01*
X019273Y024096D01*
X019278Y024073D01*
X019280Y024050D01*
X019282Y024073D01*
X019287Y024096D01*
X019296Y024118D01*
X019309Y024138D01*
X019324Y024156D01*
X019342Y024171D01*
X019362Y024184D01*
X019384Y024193D01*
X019407Y024198D01*
X019430Y024200D01*
X019453Y024198D01*
X019476Y024193D01*
X019498Y024184D01*
X019518Y024171D01*
X019536Y024156D01*
X019551Y024138D01*
X019564Y024118D01*
X019573Y024096D01*
X019578Y024073D01*
X019580Y024050D01*
X019680Y024050D01*
X019680Y023650D01*
X019680Y024050D02*
X019780Y024050D01*
X019782Y024073D01*
X019787Y024096D01*
X019796Y024118D01*
X019809Y024138D01*
X019824Y024156D01*
X019842Y024171D01*
X019862Y024184D01*
X019884Y024193D01*
X019907Y024198D01*
X019930Y024200D01*
X019953Y024198D01*
X019976Y024193D01*
X019998Y024184D01*
X020018Y024171D01*
X020036Y024156D01*
X020051Y024138D01*
X020064Y024118D01*
X020073Y024096D01*
X020078Y024073D01*
X020080Y024050D01*
X020082Y024073D01*
X020087Y024096D01*
X020096Y024118D01*
X020109Y024138D01*
X020124Y024156D01*
X020142Y024171D01*
X020162Y024184D01*
X020184Y024193D01*
X020207Y024198D01*
X020230Y024200D01*
X020253Y024198D01*
X020276Y024193D01*
X020298Y024184D01*
X020318Y024171D01*
X020336Y024156D01*
X020351Y024138D01*
X020364Y024118D01*
X020373Y024096D01*
X020378Y024073D01*
X020380Y024050D01*
X020382Y024073D01*
X020387Y024096D01*
X020396Y024118D01*
X020409Y024138D01*
X020424Y024156D01*
X020442Y024171D01*
X020462Y024184D01*
X020484Y024193D01*
X020507Y024198D01*
X020530Y024200D01*
X020553Y024198D01*
X020576Y024193D01*
X020598Y024184D01*
X020618Y024171D01*
X020636Y024156D01*
X020651Y024138D01*
X020664Y024118D01*
X020673Y024096D01*
X020678Y024073D01*
X020680Y024050D01*
X020680Y023650D01*
X020680Y024450D02*
X018680Y024450D01*
X018680Y024850D02*
X020680Y024850D01*
X020680Y025250D02*
X020680Y025650D01*
X020680Y025250D02*
X020678Y025227D01*
X020673Y025204D01*
X020664Y025182D01*
X020651Y025162D01*
X020636Y025144D01*
X020618Y025129D01*
X020598Y025116D01*
X020576Y025107D01*
X020553Y025102D01*
X020530Y025100D01*
X020507Y025102D01*
X020484Y025107D01*
X020462Y025116D01*
X020442Y025129D01*
X020424Y025144D01*
X020409Y025162D01*
X020396Y025182D01*
X020387Y025204D01*
X020382Y025227D01*
X020380Y025250D01*
X020378Y025227D01*
X020373Y025204D01*
X020364Y025182D01*
X020351Y025162D01*
X020336Y025144D01*
X020318Y025129D01*
X020298Y025116D01*
X020276Y025107D01*
X020253Y025102D01*
X020230Y025100D01*
X020207Y025102D01*
X020184Y025107D01*
X020162Y025116D01*
X020142Y025129D01*
X020124Y025144D01*
X020109Y025162D01*
X020096Y025182D01*
X020087Y025204D01*
X020082Y025227D01*
X020080Y025250D01*
X020078Y025227D01*
X020073Y025204D01*
X020064Y025182D01*
X020051Y025162D01*
X020036Y025144D01*
X020018Y025129D01*
X019998Y025116D01*
X019976Y025107D01*
X019953Y025102D01*
X019930Y025100D01*
X019907Y025102D01*
X019884Y025107D01*
X019862Y025116D01*
X019842Y025129D01*
X019824Y025144D01*
X019809Y025162D01*
X019796Y025182D01*
X019787Y025204D01*
X019782Y025227D01*
X019780Y025250D01*
X019680Y025250D01*
X019680Y025650D01*
X019680Y025250D02*
X019580Y025250D01*
X019578Y025227D01*
X019573Y025204D01*
X019564Y025182D01*
X019551Y025162D01*
X019536Y025144D01*
X019518Y025129D01*
X019498Y025116D01*
X019476Y025107D01*
X019453Y025102D01*
X019430Y025100D01*
X019407Y025102D01*
X019384Y025107D01*
X019362Y025116D01*
X019342Y025129D01*
X019324Y025144D01*
X019309Y025162D01*
X019296Y025182D01*
X019287Y025204D01*
X019282Y025227D01*
X019280Y025250D01*
X019278Y025227D01*
X019273Y025204D01*
X019264Y025182D01*
X019251Y025162D01*
X019236Y025144D01*
X019218Y025129D01*
X019198Y025116D01*
X019176Y025107D01*
X019153Y025102D01*
X019130Y025100D01*
X019107Y025102D01*
X019084Y025107D01*
X019062Y025116D01*
X019042Y025129D01*
X019024Y025144D01*
X019009Y025162D01*
X018996Y025182D01*
X018987Y025204D01*
X018982Y025227D01*
X018980Y025250D01*
X018978Y025227D01*
X018973Y025204D01*
X018964Y025182D01*
X018951Y025162D01*
X018936Y025144D01*
X018918Y025129D01*
X018898Y025116D01*
X018876Y025107D01*
X018853Y025102D01*
X018830Y025100D01*
X018807Y025102D01*
X018784Y025107D01*
X018762Y025116D01*
X018742Y025129D01*
X018724Y025144D01*
X018709Y025162D01*
X018696Y025182D01*
X018687Y025204D01*
X018682Y025227D01*
X018680Y025250D01*
X018680Y025650D01*
X020641Y018587D02*
X015719Y018587D01*
X015591Y018587D01*
X015424Y018420D01*
X015424Y018292D01*
X015424Y011107D01*
X015424Y010880D01*
X015591Y010713D01*
X015719Y010713D01*
X020641Y010713D01*
X020769Y010713D01*
X020936Y010880D01*
X020936Y011008D01*
X020936Y018292D01*
X020936Y018420D01*
X020769Y018587D01*
X020641Y018587D01*
X019203Y011839D02*
X019205Y011887D01*
X019211Y011935D01*
X019221Y011982D01*
X019234Y012028D01*
X019252Y012073D01*
X019272Y012117D01*
X019297Y012159D01*
X019325Y012198D01*
X019355Y012235D01*
X019389Y012269D01*
X019426Y012301D01*
X019464Y012330D01*
X019505Y012355D01*
X019548Y012377D01*
X019593Y012395D01*
X019639Y012409D01*
X019686Y012420D01*
X019734Y012427D01*
X019782Y012430D01*
X019830Y012429D01*
X019878Y012424D01*
X019926Y012415D01*
X019972Y012403D01*
X020017Y012386D01*
X020061Y012366D01*
X020103Y012343D01*
X020143Y012316D01*
X020181Y012286D01*
X020216Y012253D01*
X020248Y012217D01*
X020278Y012179D01*
X020304Y012138D01*
X020326Y012095D01*
X020346Y012051D01*
X020361Y012006D01*
X020373Y011959D01*
X020381Y011911D01*
X020385Y011863D01*
X020385Y011815D01*
X020381Y011767D01*
X020373Y011719D01*
X020361Y011672D01*
X020346Y011627D01*
X020326Y011583D01*
X020304Y011540D01*
X020278Y011499D01*
X020248Y011461D01*
X020216Y011425D01*
X020181Y011392D01*
X020143Y011362D01*
X020103Y011335D01*
X020061Y011312D01*
X020017Y011292D01*
X019972Y011275D01*
X019926Y011263D01*
X019878Y011254D01*
X019830Y011249D01*
X019782Y011248D01*
X019734Y011251D01*
X019686Y011258D01*
X019639Y011269D01*
X019593Y011283D01*
X019548Y011301D01*
X019505Y011323D01*
X019464Y011348D01*
X019426Y011377D01*
X019389Y011409D01*
X019355Y011443D01*
X019325Y011480D01*
X019297Y011519D01*
X019272Y011561D01*
X019252Y011605D01*
X019234Y011650D01*
X019221Y011696D01*
X019211Y011743D01*
X019205Y011791D01*
X019203Y011839D01*
X013668Y011275D02*
X013480Y011275D01*
X013480Y011371D01*
X013480Y011275D02*
X013292Y011275D01*
X013480Y011025D01*
X013480Y010929D01*
X013480Y011025D02*
X013292Y011025D01*
X013480Y011025D02*
X013668Y011025D01*
X013480Y011025D02*
X013668Y011275D01*
X012568Y011275D02*
X012380Y011025D01*
X012380Y010929D01*
X012380Y011025D02*
X012192Y011025D01*
X012380Y011025D02*
X012192Y011275D01*
X012380Y011275D01*
X012380Y011371D01*
X012380Y011275D02*
X012568Y011275D01*
X012568Y011025D02*
X012380Y011025D01*
X007905Y011675D02*
X007905Y011975D01*
X007905Y011825D02*
X007455Y011825D01*
X007605Y011675D01*
X006905Y011750D02*
X006905Y011900D01*
X006830Y011975D01*
X006755Y011975D01*
X006680Y011900D01*
X006680Y011675D01*
X006830Y011675D01*
X006905Y011750D01*
X006680Y011675D02*
X006530Y011825D01*
X006455Y011975D01*
X003805Y012210D02*
X003730Y012135D01*
X003430Y012436D01*
X003730Y012436D01*
X003805Y012361D01*
X003805Y012210D01*
X003730Y012135D02*
X003430Y012135D01*
X003355Y012210D01*
X003355Y012361D01*
X003430Y012436D01*
X003430Y012596D02*
X003505Y012596D01*
X003580Y012671D01*
X003580Y012896D01*
X003730Y012896D02*
X003430Y012896D01*
X003355Y012821D01*
X003355Y012671D01*
X003430Y012596D01*
X003730Y012596D02*
X003805Y012671D01*
X003805Y012821D01*
X003730Y012896D01*
X003355Y011975D02*
X003355Y011675D01*
X003805Y011675D01*
X003580Y011675D02*
X003580Y011825D01*
X006530Y017425D02*
X006605Y017425D01*
X006680Y017500D01*
X006680Y017725D01*
X006830Y017725D02*
X006530Y017725D01*
X006455Y017650D01*
X006455Y017500D01*
X006530Y017425D01*
X006830Y017425D02*
X006905Y017500D01*
X006905Y017650D01*
X006830Y017725D01*
X007455Y017725D02*
X007455Y017425D01*
X007680Y017425D01*
X007605Y017575D01*
X007605Y017650D01*
X007680Y017725D01*
X007830Y017725D01*
X007905Y017650D01*
X007905Y017500D01*
X007830Y017425D01*
X005127Y020075D02*
X004977Y019925D01*
X005052Y020075D02*
X005127Y020075D01*
X005127Y020150D01*
X005052Y020150D01*
X005052Y020075D01*
X004817Y020075D02*
X004517Y020075D01*
X004817Y020375D01*
X004817Y020450D01*
X004742Y020525D01*
X004592Y020525D01*
X004517Y020450D01*
X005284Y020525D02*
X005284Y020300D01*
X005434Y020375D01*
X005509Y020375D01*
X005584Y020300D01*
X005584Y020150D01*
X005509Y020075D01*
X005359Y020075D01*
X005284Y020150D01*
X005284Y020525D02*
X005584Y020525D01*
X005745Y020300D02*
X006045Y020300D01*
X005970Y020075D02*
X005970Y020525D01*
X005745Y020300D01*
X011287Y002475D02*
X011514Y002475D01*
X011400Y002475D02*
X011400Y002135D01*
X011759Y002135D02*
X011759Y002475D01*
X011646Y002475D02*
X011873Y002475D01*
X009491Y001165D02*
X009264Y001165D01*
X009378Y001165D02*
X009378Y000825D01*
X009018Y000825D02*
X009018Y001165D01*
X008905Y001165D02*
X009132Y001165D01*
X033505Y022829D02*
X033845Y022829D01*
X033845Y022716D02*
X033845Y022943D01*
X033618Y022716D02*
X033505Y022829D01*
D18*
X020936Y018292D02*
X020739Y018292D01*
X020739Y011008D01*
X020936Y011008D01*
X020739Y011008D02*
X020641Y010910D01*
X020641Y010713D01*
X020641Y010910D02*
X015719Y010910D01*
X015719Y010713D01*
X015719Y010910D02*
X015621Y011008D01*
X015621Y011107D01*
X015424Y011107D01*
X015621Y011107D02*
X015621Y018292D01*
X015424Y018292D01*
X015621Y018292D02*
X015719Y018390D01*
X015719Y018587D01*
X015719Y018390D02*
X020641Y018390D01*
X020641Y018587D01*
X020641Y018390D02*
X020739Y018292D01*
X018680Y005450D02*
X015430Y005450D01*
X015430Y001850D01*
X018680Y001850D01*
X018680Y005450D01*
X028230Y003350D02*
X028230Y003250D01*
X029180Y003250D01*
X029180Y003350D01*
X029180Y001050D02*
X028180Y001050D01*
X028180Y000950D01*
X029180Y000950D02*
X029180Y001050D01*
D19*
X036604Y005778D02*
X036646Y005752D01*
X036687Y005726D01*
X036728Y005699D01*
X036778Y005665D02*
X036778Y006148D01*
X036728Y006114D02*
X036687Y006088D01*
X036646Y006061D01*
X036604Y006035D02*
X036596Y006031D01*
X036589Y006026D01*
X036582Y006022D02*
X035893Y007157D01*
X035893Y008407D01*
X035893Y009657D01*
X036582Y008522D01*
X036582Y008407D01*
X036778Y008407D01*
X036778Y008648D01*
X036728Y008614D02*
X036687Y008588D01*
X036646Y008561D01*
X036604Y008535D02*
X036596Y008531D01*
X036589Y008526D01*
X036582Y008407D02*
X035893Y008407D01*
X035773Y008407D01*
X035364Y008407D01*
X035201Y008407D01*
X035086Y008407D01*
X034889Y008407D01*
X034889Y015907D01*
X034889Y023407D01*
X034889Y030907D01*
X035086Y030907D01*
X035773Y030907D01*
X035893Y030907D01*
X035893Y029657D01*
X036582Y028522D01*
X036582Y028292D01*
X036589Y028288D02*
X036596Y028283D01*
X036604Y028278D01*
X036646Y028252D02*
X036687Y028226D01*
X036728Y028199D01*
X036778Y028165D02*
X036778Y028648D01*
X036728Y028614D02*
X036687Y028588D01*
X036646Y028561D01*
X036604Y028535D02*
X036596Y028531D01*
X036589Y028526D01*
X036580Y027943D02*
X036580Y027943D01*
X037959Y026565D01*
X037657Y026088D02*
X037698Y026061D01*
X037657Y026088D02*
X037617Y026114D01*
X037566Y026148D02*
X037566Y025665D01*
X037617Y025699D02*
X037657Y025726D01*
X037698Y025752D01*
X037740Y025778D02*
X037748Y025783D01*
X037756Y025788D01*
X037763Y025792D02*
X037763Y026022D01*
X037756Y026026D02*
X037748Y026031D01*
X037740Y026035D01*
X036778Y026148D02*
X036778Y025665D01*
X036728Y025699D02*
X036687Y025726D01*
X036646Y025752D01*
X036604Y025778D02*
X036596Y025783D01*
X036589Y025788D01*
X036582Y025792D02*
X036582Y026022D01*
X035893Y027157D01*
X035893Y029657D01*
X036580Y030443D02*
X037959Y029065D01*
X037566Y028648D02*
X037566Y028165D01*
X037617Y028199D02*
X037657Y028226D01*
X037698Y028252D01*
X037740Y028278D02*
X037748Y028283D01*
X037756Y028288D01*
X037763Y028292D02*
X037763Y028522D01*
X037756Y028526D02*
X037748Y028531D01*
X037740Y028535D01*
X037698Y028561D02*
X037657Y028588D01*
X037617Y028614D01*
X037764Y028871D02*
X037807Y028905D01*
X037848Y028942D01*
X037887Y028981D01*
X037924Y029022D01*
X037958Y029066D01*
X036148Y029657D02*
X036150Y029721D01*
X036156Y029784D01*
X036166Y029847D01*
X036180Y029909D01*
X036197Y029970D01*
X036219Y030030D01*
X036244Y030089D01*
X036272Y030146D01*
X036304Y030201D01*
X036340Y030254D01*
X036379Y030304D01*
X036420Y030352D01*
X036465Y030398D01*
X036512Y030440D01*
X036562Y030480D01*
X036615Y030516D01*
X036669Y030549D01*
X036726Y030579D01*
X036784Y030605D01*
X036843Y030627D01*
X036904Y030645D01*
X036966Y030660D01*
X037029Y030671D01*
X037092Y030678D01*
X037156Y030681D01*
X037220Y030680D01*
X037283Y030675D01*
X037346Y030666D01*
X037409Y030653D01*
X037470Y030637D01*
X037531Y030616D01*
X037589Y030592D01*
X037647Y030564D01*
X037702Y030533D01*
X037756Y030498D01*
X037807Y030460D01*
X037856Y030419D01*
X037902Y030375D01*
X037945Y030329D01*
X037985Y030279D01*
X038022Y030228D01*
X038056Y030174D01*
X038087Y030118D01*
X038113Y030060D01*
X038137Y030001D01*
X038156Y029940D01*
X038172Y029878D01*
X038184Y029816D01*
X038192Y029752D01*
X038196Y029689D01*
X038196Y029625D01*
X038192Y029562D01*
X038184Y029498D01*
X038172Y029436D01*
X038156Y029374D01*
X038137Y029313D01*
X038113Y029254D01*
X038087Y029196D01*
X038056Y029140D01*
X038022Y029086D01*
X037985Y029035D01*
X037945Y028985D01*
X037902Y028939D01*
X037856Y028895D01*
X037807Y028854D01*
X037756Y028816D01*
X037702Y028781D01*
X037647Y028750D01*
X037589Y028722D01*
X037531Y028698D01*
X037470Y028677D01*
X037409Y028661D01*
X037346Y028648D01*
X037283Y028639D01*
X037220Y028634D01*
X037156Y028633D01*
X037092Y028636D01*
X037029Y028643D01*
X036966Y028654D01*
X036904Y028669D01*
X036843Y028687D01*
X036784Y028709D01*
X036726Y028735D01*
X036669Y028765D01*
X036615Y028798D01*
X036562Y028834D01*
X036512Y028874D01*
X036465Y028916D01*
X036420Y028962D01*
X036379Y029010D01*
X036340Y029060D01*
X036304Y029113D01*
X036272Y029168D01*
X036244Y029225D01*
X036219Y029284D01*
X036197Y029344D01*
X036180Y029405D01*
X036166Y029467D01*
X036156Y029530D01*
X036150Y029593D01*
X036148Y029657D01*
X036580Y030443D02*
X036580Y030443D01*
X036728Y030699D02*
X036687Y030726D01*
X036646Y030752D01*
X036604Y030778D02*
X036596Y030783D01*
X036589Y030788D01*
X036582Y030792D02*
X036582Y030907D01*
X035893Y030907D01*
X035773Y030907D02*
X035773Y023407D01*
X035364Y023407D01*
X035201Y023407D01*
X035086Y023407D01*
X034889Y023407D01*
X035086Y023407D01*
X035086Y030907D01*
X036727Y028614D02*
X036778Y028648D01*
X037764Y028871D02*
X037714Y028835D01*
X037661Y028803D01*
X037607Y028775D01*
X037552Y028749D01*
X037495Y028727D01*
X037436Y028709D01*
X037377Y028695D01*
X037317Y028684D01*
X037256Y028677D01*
X037195Y028673D01*
X037134Y028674D01*
X037073Y028678D01*
X037012Y028686D01*
X036952Y028698D01*
X036893Y028713D01*
X036835Y028733D01*
X036778Y028755D01*
X036722Y028782D01*
X036669Y028811D01*
X036617Y028844D01*
X036568Y028880D01*
X036521Y028919D01*
X036476Y028961D01*
X036434Y029006D01*
X036395Y029053D01*
X036359Y029102D01*
X036326Y029154D01*
X036297Y029207D01*
X036270Y029263D01*
X036248Y029320D01*
X036228Y029378D01*
X036213Y029437D01*
X036201Y029497D01*
X036193Y029558D01*
X036189Y029619D01*
X036188Y029680D01*
X036192Y029741D01*
X036199Y029802D01*
X036210Y029862D01*
X036224Y029921D01*
X036242Y029980D01*
X036264Y030037D01*
X036290Y030092D01*
X036318Y030146D01*
X036350Y030199D01*
X036386Y030249D01*
X036778Y030665D02*
X036778Y030907D01*
X036582Y030907D01*
X036778Y030907D02*
X037566Y030907D01*
X037763Y030907D01*
X037763Y030792D01*
X037756Y030788D02*
X037748Y030783D01*
X037740Y030778D01*
X037698Y030752D02*
X037657Y030726D01*
X037617Y030699D01*
X037566Y030665D02*
X037566Y030907D01*
X037763Y030907D02*
X038561Y030907D01*
X039652Y030907D01*
X039810Y030907D01*
X039810Y023407D01*
X039652Y023407D01*
X038750Y023407D01*
X038587Y023407D01*
X038561Y023407D01*
X037763Y023407D01*
X037763Y023522D01*
X037756Y023526D02*
X037748Y023531D01*
X037740Y023535D01*
X037698Y023561D02*
X037657Y023588D01*
X037617Y023614D01*
X037566Y023648D02*
X037566Y023407D01*
X037763Y023407D01*
X037566Y023407D01*
X036778Y023407D01*
X036778Y023648D01*
X036728Y023614D02*
X036687Y023588D01*
X036646Y023561D01*
X036604Y023535D02*
X036596Y023531D01*
X036589Y023526D01*
X036582Y023522D02*
X035893Y024657D01*
X035893Y027157D01*
X036646Y026061D02*
X036687Y026088D01*
X036728Y026114D01*
X036604Y026035D02*
X036596Y026031D01*
X036589Y026026D01*
X036580Y025443D02*
X037959Y024065D01*
X037764Y023870D02*
X037764Y023870D01*
X037763Y023407D02*
X037763Y023292D01*
X037756Y023288D02*
X037748Y023283D01*
X037740Y023278D01*
X037698Y023252D02*
X037657Y023226D01*
X037617Y023199D01*
X037566Y023165D02*
X037566Y023407D01*
X036778Y023407D01*
X036582Y023407D01*
X036582Y023522D01*
X036582Y023407D02*
X035893Y023407D01*
X035893Y024657D01*
X036778Y028165D02*
X036727Y028199D01*
X036580Y027943D02*
X036537Y027909D01*
X036496Y027872D01*
X036457Y027833D01*
X036420Y027792D01*
X036386Y027749D01*
X036581Y028293D02*
X036520Y028259D01*
X036461Y028221D01*
X036404Y028181D01*
X036349Y028138D01*
X036297Y028091D01*
X036248Y028042D01*
X036201Y027991D01*
X036157Y027936D01*
X036116Y027880D01*
X036078Y027821D01*
X036043Y027761D01*
X036012Y027698D01*
X035984Y027634D01*
X035960Y027569D01*
X035939Y027502D01*
X035922Y027434D01*
X035909Y027366D01*
X035900Y027296D01*
X035894Y027227D01*
X035892Y027157D01*
X036779Y030666D02*
X036728Y030700D01*
X036580Y030443D02*
X036537Y030409D01*
X036496Y030372D01*
X036457Y030333D01*
X036420Y030292D01*
X036386Y030249D01*
X036581Y030793D02*
X036520Y030759D01*
X036461Y030721D01*
X036404Y030681D01*
X036349Y030638D01*
X036297Y030591D01*
X036248Y030542D01*
X036201Y030491D01*
X036157Y030436D01*
X036116Y030380D01*
X036078Y030321D01*
X036043Y030261D01*
X036012Y030198D01*
X035984Y030134D01*
X035960Y030069D01*
X035939Y030002D01*
X035922Y029934D01*
X035909Y029866D01*
X035900Y029796D01*
X035894Y029727D01*
X035892Y029657D01*
X036778Y026148D02*
X036727Y026114D01*
X037764Y026371D02*
X037807Y026405D01*
X037848Y026442D01*
X037887Y026481D01*
X037924Y026522D01*
X037958Y026566D01*
X036148Y027157D02*
X036150Y027221D01*
X036156Y027284D01*
X036166Y027347D01*
X036180Y027409D01*
X036197Y027470D01*
X036219Y027530D01*
X036244Y027589D01*
X036272Y027646D01*
X036304Y027701D01*
X036340Y027754D01*
X036379Y027804D01*
X036420Y027852D01*
X036465Y027898D01*
X036512Y027940D01*
X036562Y027980D01*
X036615Y028016D01*
X036669Y028049D01*
X036726Y028079D01*
X036784Y028105D01*
X036843Y028127D01*
X036904Y028145D01*
X036966Y028160D01*
X037029Y028171D01*
X037092Y028178D01*
X037156Y028181D01*
X037220Y028180D01*
X037283Y028175D01*
X037346Y028166D01*
X037409Y028153D01*
X037470Y028137D01*
X037531Y028116D01*
X037589Y028092D01*
X037647Y028064D01*
X037702Y028033D01*
X037756Y027998D01*
X037807Y027960D01*
X037856Y027919D01*
X037902Y027875D01*
X037945Y027829D01*
X037985Y027779D01*
X038022Y027728D01*
X038056Y027674D01*
X038087Y027618D01*
X038113Y027560D01*
X038137Y027501D01*
X038156Y027440D01*
X038172Y027378D01*
X038184Y027316D01*
X038192Y027252D01*
X038196Y027189D01*
X038196Y027125D01*
X038192Y027062D01*
X038184Y026998D01*
X038172Y026936D01*
X038156Y026874D01*
X038137Y026813D01*
X038113Y026754D01*
X038087Y026696D01*
X038056Y026640D01*
X038022Y026586D01*
X037985Y026535D01*
X037945Y026485D01*
X037902Y026439D01*
X037856Y026395D01*
X037807Y026354D01*
X037756Y026316D01*
X037702Y026281D01*
X037647Y026250D01*
X037589Y026222D01*
X037531Y026198D01*
X037470Y026177D01*
X037409Y026161D01*
X037346Y026148D01*
X037283Y026139D01*
X037220Y026134D01*
X037156Y026133D01*
X037092Y026136D01*
X037029Y026143D01*
X036966Y026154D01*
X036904Y026169D01*
X036843Y026187D01*
X036784Y026209D01*
X036726Y026235D01*
X036669Y026265D01*
X036615Y026298D01*
X036562Y026334D01*
X036512Y026374D01*
X036465Y026416D01*
X036420Y026462D01*
X036379Y026510D01*
X036340Y026560D01*
X036304Y026613D01*
X036272Y026668D01*
X036244Y026725D01*
X036219Y026784D01*
X036197Y026844D01*
X036180Y026905D01*
X036166Y026967D01*
X036156Y027030D01*
X036150Y027093D01*
X036148Y027157D01*
X036386Y027749D02*
X036350Y027699D01*
X036318Y027646D01*
X036290Y027592D01*
X036264Y027537D01*
X036242Y027480D01*
X036224Y027421D01*
X036210Y027362D01*
X036199Y027302D01*
X036192Y027241D01*
X036188Y027180D01*
X036189Y027119D01*
X036193Y027058D01*
X036201Y026997D01*
X036213Y026937D01*
X036228Y026878D01*
X036248Y026820D01*
X036270Y026763D01*
X036297Y026707D01*
X036326Y026654D01*
X036359Y026602D01*
X036395Y026553D01*
X036434Y026506D01*
X036476Y026461D01*
X036521Y026419D01*
X036568Y026380D01*
X036617Y026344D01*
X036669Y026311D01*
X036722Y026282D01*
X036778Y026255D01*
X036835Y026233D01*
X036893Y026213D01*
X036952Y026198D01*
X037012Y026186D01*
X037073Y026178D01*
X037134Y026174D01*
X037195Y026173D01*
X037256Y026177D01*
X037317Y026184D01*
X037377Y026195D01*
X037436Y026209D01*
X037495Y026227D01*
X037552Y026249D01*
X037607Y026275D01*
X037661Y026303D01*
X037714Y026335D01*
X037764Y026371D01*
X037958Y026565D02*
X037994Y026615D01*
X038026Y026668D01*
X038054Y026722D01*
X038080Y026777D01*
X038102Y026834D01*
X038120Y026893D01*
X038134Y026952D01*
X038145Y027012D01*
X038152Y027073D01*
X038156Y027134D01*
X038155Y027196D01*
X038151Y027257D01*
X038143Y027317D01*
X038131Y027377D01*
X038116Y027436D01*
X038096Y027494D01*
X038074Y027551D01*
X038047Y027607D01*
X038018Y027660D01*
X037985Y027712D01*
X037949Y027761D01*
X037910Y027808D01*
X037868Y027853D01*
X037823Y027895D01*
X037776Y027934D01*
X037727Y027970D01*
X037675Y028003D01*
X037622Y028032D01*
X037566Y028059D01*
X037509Y028081D01*
X037451Y028101D01*
X037392Y028116D01*
X037332Y028128D01*
X037272Y028136D01*
X037211Y028140D01*
X037149Y028141D01*
X037088Y028137D01*
X037027Y028130D01*
X036967Y028119D01*
X036908Y028105D01*
X036849Y028087D01*
X036792Y028065D01*
X036737Y028039D01*
X036683Y028011D01*
X036630Y027979D01*
X036580Y027943D01*
X036779Y023648D02*
X036728Y023614D01*
X036778Y023407D02*
X036582Y023407D01*
X035893Y023407D01*
X035773Y023407D01*
X035086Y023407D01*
X035086Y015907D01*
X035201Y015907D01*
X035364Y015907D01*
X035773Y015907D01*
X035893Y015907D01*
X035893Y017157D01*
X036582Y016022D01*
X036582Y015907D01*
X036778Y015907D01*
X036778Y016148D01*
X036728Y016114D02*
X036687Y016088D01*
X036646Y016061D01*
X036604Y016035D02*
X036596Y016031D01*
X036589Y016026D01*
X036582Y015907D02*
X035893Y015907D01*
X035893Y014657D01*
X036582Y013522D01*
X036582Y013292D01*
X036589Y013288D02*
X036596Y013283D01*
X036604Y013278D01*
X036646Y013252D02*
X036687Y013226D01*
X036728Y013199D01*
X036778Y013165D02*
X036778Y013648D01*
X036728Y013614D02*
X036687Y013588D01*
X036646Y013561D01*
X036604Y013535D02*
X036596Y013531D01*
X036589Y013526D01*
X036580Y012943D02*
X036580Y012943D01*
X037959Y011565D01*
X037566Y011148D02*
X037566Y010665D01*
X037617Y010699D02*
X037657Y010726D01*
X037698Y010752D01*
X037740Y010778D02*
X037748Y010783D01*
X037756Y010788D01*
X037763Y010792D02*
X037763Y011022D01*
X037756Y011026D02*
X037748Y011031D01*
X037740Y011035D01*
X037698Y011061D02*
X037657Y011088D01*
X037617Y011114D01*
X036778Y011148D02*
X036778Y010665D01*
X036728Y010699D02*
X036687Y010726D01*
X036646Y010752D01*
X036604Y010778D02*
X036596Y010783D01*
X036589Y010788D01*
X036582Y010792D02*
X036582Y011022D01*
X035893Y012157D01*
X035893Y014657D01*
X036580Y015443D02*
X037959Y014065D01*
X037657Y013588D02*
X037617Y013614D01*
X037657Y013588D02*
X037698Y013561D01*
X037740Y013535D02*
X037748Y013531D01*
X037756Y013526D01*
X037763Y013522D02*
X037763Y013292D01*
X037756Y013288D02*
X037748Y013283D01*
X037740Y013278D01*
X037698Y013252D02*
X037657Y013226D01*
X037617Y013199D01*
X037566Y013165D02*
X037566Y013648D01*
X037764Y013871D02*
X037807Y013905D01*
X037848Y013942D01*
X037887Y013981D01*
X037924Y014022D01*
X037958Y014066D01*
X036148Y014657D02*
X036150Y014721D01*
X036156Y014784D01*
X036166Y014847D01*
X036180Y014909D01*
X036197Y014970D01*
X036219Y015030D01*
X036244Y015089D01*
X036272Y015146D01*
X036304Y015201D01*
X036340Y015254D01*
X036379Y015304D01*
X036420Y015352D01*
X036465Y015398D01*
X036512Y015440D01*
X036562Y015480D01*
X036615Y015516D01*
X036669Y015549D01*
X036726Y015579D01*
X036784Y015605D01*
X036843Y015627D01*
X036904Y015645D01*
X036966Y015660D01*
X037029Y015671D01*
X037092Y015678D01*
X037156Y015681D01*
X037220Y015680D01*
X037283Y015675D01*
X037346Y015666D01*
X037409Y015653D01*
X037470Y015637D01*
X037531Y015616D01*
X037589Y015592D01*
X037647Y015564D01*
X037702Y015533D01*
X037756Y015498D01*
X037807Y015460D01*
X037856Y015419D01*
X037902Y015375D01*
X037945Y015329D01*
X037985Y015279D01*
X038022Y015228D01*
X038056Y015174D01*
X038087Y015118D01*
X038113Y015060D01*
X038137Y015001D01*
X038156Y014940D01*
X038172Y014878D01*
X038184Y014816D01*
X038192Y014752D01*
X038196Y014689D01*
X038196Y014625D01*
X038192Y014562D01*
X038184Y014498D01*
X038172Y014436D01*
X038156Y014374D01*
X038137Y014313D01*
X038113Y014254D01*
X038087Y014196D01*
X038056Y014140D01*
X038022Y014086D01*
X037985Y014035D01*
X037945Y013985D01*
X037902Y013939D01*
X037856Y013895D01*
X037807Y013854D01*
X037756Y013816D01*
X037702Y013781D01*
X037647Y013750D01*
X037589Y013722D01*
X037531Y013698D01*
X037470Y013677D01*
X037409Y013661D01*
X037346Y013648D01*
X037283Y013639D01*
X037220Y013634D01*
X037156Y013633D01*
X037092Y013636D01*
X037029Y013643D01*
X036966Y013654D01*
X036904Y013669D01*
X036843Y013687D01*
X036784Y013709D01*
X036726Y013735D01*
X036669Y013765D01*
X036615Y013798D01*
X036562Y013834D01*
X036512Y013874D01*
X036465Y013916D01*
X036420Y013962D01*
X036379Y014010D01*
X036340Y014060D01*
X036304Y014113D01*
X036272Y014168D01*
X036244Y014225D01*
X036219Y014284D01*
X036197Y014344D01*
X036180Y014405D01*
X036166Y014467D01*
X036156Y014530D01*
X036150Y014593D01*
X036148Y014657D01*
X036580Y015443D02*
X036580Y015443D01*
X036728Y015699D02*
X036687Y015726D01*
X036646Y015752D01*
X036604Y015778D02*
X036596Y015783D01*
X036589Y015788D01*
X036582Y015792D02*
X036582Y015907D01*
X035893Y015907D01*
X035773Y015907D01*
X035773Y023407D01*
X035893Y023407D01*
X035893Y022157D01*
X036582Y021022D01*
X036582Y020792D01*
X036589Y020788D02*
X036596Y020783D01*
X036604Y020778D01*
X036646Y020752D02*
X036687Y020726D01*
X036728Y020699D01*
X036778Y020665D02*
X036778Y021148D01*
X036728Y021114D02*
X036687Y021088D01*
X036646Y021061D01*
X036604Y021035D02*
X036596Y021031D01*
X036589Y021026D01*
X036580Y020443D02*
X036580Y020443D01*
X037959Y019065D01*
X037657Y018588D02*
X037698Y018561D01*
X037657Y018588D02*
X037617Y018614D01*
X037566Y018648D02*
X037566Y018165D01*
X037617Y018199D02*
X037657Y018226D01*
X037698Y018252D01*
X037740Y018278D02*
X037748Y018283D01*
X037756Y018288D01*
X037763Y018292D02*
X037763Y018522D01*
X037756Y018526D02*
X037748Y018531D01*
X037740Y018535D01*
X036778Y018648D02*
X036778Y018165D01*
X036728Y018199D02*
X036687Y018226D01*
X036646Y018252D01*
X036604Y018278D02*
X036596Y018283D01*
X036589Y018288D01*
X036582Y018292D02*
X036582Y018522D01*
X035893Y019657D01*
X035893Y022157D01*
X036580Y022943D02*
X037959Y021565D01*
X037657Y021088D02*
X037617Y021114D01*
X037657Y021088D02*
X037698Y021061D01*
X037740Y021035D02*
X037748Y021031D01*
X037756Y021026D01*
X037763Y021022D02*
X037763Y020792D01*
X037756Y020788D02*
X037748Y020783D01*
X037740Y020778D01*
X037698Y020752D02*
X037657Y020726D01*
X037617Y020699D01*
X037566Y020665D02*
X037566Y021148D01*
X037764Y021371D02*
X037807Y021405D01*
X037848Y021442D01*
X037887Y021481D01*
X037924Y021522D01*
X037958Y021566D01*
X036148Y022157D02*
X036150Y022221D01*
X036156Y022284D01*
X036166Y022347D01*
X036180Y022409D01*
X036197Y022470D01*
X036219Y022530D01*
X036244Y022589D01*
X036272Y022646D01*
X036304Y022701D01*
X036340Y022754D01*
X036379Y022804D01*
X036420Y022852D01*
X036465Y022898D01*
X036512Y022940D01*
X036562Y022980D01*
X036615Y023016D01*
X036669Y023049D01*
X036726Y023079D01*
X036784Y023105D01*
X036843Y023127D01*
X036904Y023145D01*
X036966Y023160D01*
X037029Y023171D01*
X037092Y023178D01*
X037156Y023181D01*
X037220Y023180D01*
X037283Y023175D01*
X037346Y023166D01*
X037409Y023153D01*
X037470Y023137D01*
X037531Y023116D01*
X037589Y023092D01*
X037647Y023064D01*
X037702Y023033D01*
X037756Y022998D01*
X037807Y022960D01*
X037856Y022919D01*
X037902Y022875D01*
X037945Y022829D01*
X037985Y022779D01*
X038022Y022728D01*
X038056Y022674D01*
X038087Y022618D01*
X038113Y022560D01*
X038137Y022501D01*
X038156Y022440D01*
X038172Y022378D01*
X038184Y022316D01*
X038192Y022252D01*
X038196Y022189D01*
X038196Y022125D01*
X038192Y022062D01*
X038184Y021998D01*
X038172Y021936D01*
X038156Y021874D01*
X038137Y021813D01*
X038113Y021754D01*
X038087Y021696D01*
X038056Y021640D01*
X038022Y021586D01*
X037985Y021535D01*
X037945Y021485D01*
X037902Y021439D01*
X037856Y021395D01*
X037807Y021354D01*
X037756Y021316D01*
X037702Y021281D01*
X037647Y021250D01*
X037589Y021222D01*
X037531Y021198D01*
X037470Y021177D01*
X037409Y021161D01*
X037346Y021148D01*
X037283Y021139D01*
X037220Y021134D01*
X037156Y021133D01*
X037092Y021136D01*
X037029Y021143D01*
X036966Y021154D01*
X036904Y021169D01*
X036843Y021187D01*
X036784Y021209D01*
X036726Y021235D01*
X036669Y021265D01*
X036615Y021298D01*
X036562Y021334D01*
X036512Y021374D01*
X036465Y021416D01*
X036420Y021462D01*
X036379Y021510D01*
X036340Y021560D01*
X036304Y021613D01*
X036272Y021668D01*
X036244Y021725D01*
X036219Y021784D01*
X036197Y021844D01*
X036180Y021905D01*
X036166Y021967D01*
X036156Y022030D01*
X036150Y022093D01*
X036148Y022157D01*
X036580Y022943D02*
X036580Y022943D01*
X036728Y023199D02*
X036687Y023226D01*
X036646Y023252D01*
X036604Y023278D02*
X036596Y023283D01*
X036589Y023288D01*
X036582Y023292D02*
X036582Y023407D01*
X036778Y023407D02*
X036778Y023165D01*
X037763Y023407D02*
X038561Y023407D01*
X038561Y030907D01*
X037566Y028648D02*
X037617Y028614D01*
X037958Y029065D02*
X037994Y029115D01*
X038026Y029168D01*
X038054Y029222D01*
X038080Y029277D01*
X038102Y029334D01*
X038120Y029393D01*
X038134Y029452D01*
X038145Y029512D01*
X038152Y029573D01*
X038156Y029634D01*
X038155Y029696D01*
X038151Y029757D01*
X038143Y029817D01*
X038131Y029877D01*
X038116Y029936D01*
X038096Y029994D01*
X038074Y030051D01*
X038047Y030107D01*
X038018Y030160D01*
X037985Y030212D01*
X037949Y030261D01*
X037910Y030308D01*
X037868Y030353D01*
X037823Y030395D01*
X037776Y030434D01*
X037727Y030470D01*
X037675Y030503D01*
X037622Y030532D01*
X037566Y030559D01*
X037509Y030581D01*
X037451Y030601D01*
X037392Y030616D01*
X037332Y030628D01*
X037272Y030636D01*
X037211Y030640D01*
X037149Y030641D01*
X037088Y030637D01*
X037027Y030630D01*
X036967Y030619D01*
X036908Y030605D01*
X036849Y030587D01*
X036792Y030565D01*
X036737Y030539D01*
X036683Y030511D01*
X036630Y030479D01*
X036580Y030443D01*
X036646Y026061D02*
X036604Y026036D01*
X036580Y025443D02*
X036537Y025409D01*
X036496Y025372D01*
X036457Y025333D01*
X036420Y025292D01*
X036386Y025248D01*
X036582Y025792D02*
X036521Y025758D01*
X036462Y025721D01*
X036405Y025680D01*
X036350Y025637D01*
X036298Y025591D01*
X036248Y025542D01*
X036201Y025490D01*
X036157Y025436D01*
X036116Y025379D01*
X036079Y025321D01*
X036044Y025260D01*
X036013Y025198D01*
X035985Y025134D01*
X035961Y025068D01*
X035940Y025002D01*
X035923Y024934D01*
X035910Y024865D01*
X035901Y024796D01*
X035895Y024727D01*
X035893Y024657D01*
X036778Y021148D02*
X036727Y021114D01*
X037764Y021371D02*
X037714Y021335D01*
X037661Y021303D01*
X037607Y021275D01*
X037552Y021249D01*
X037495Y021227D01*
X037436Y021209D01*
X037377Y021195D01*
X037317Y021184D01*
X037256Y021177D01*
X037195Y021173D01*
X037134Y021174D01*
X037073Y021178D01*
X037012Y021186D01*
X036952Y021198D01*
X036893Y021213D01*
X036835Y021233D01*
X036778Y021255D01*
X036722Y021282D01*
X036669Y021311D01*
X036617Y021344D01*
X036568Y021380D01*
X036521Y021419D01*
X036476Y021461D01*
X036434Y021506D01*
X036395Y021553D01*
X036359Y021602D01*
X036326Y021654D01*
X036297Y021707D01*
X036270Y021763D01*
X036248Y021820D01*
X036228Y021878D01*
X036213Y021937D01*
X036201Y021997D01*
X036193Y022058D01*
X036189Y022119D01*
X036188Y022180D01*
X036192Y022241D01*
X036199Y022302D01*
X036210Y022362D01*
X036224Y022421D01*
X036242Y022480D01*
X036264Y022537D01*
X036290Y022592D01*
X036318Y022646D01*
X036350Y022699D01*
X036386Y022749D01*
X036420Y022792D01*
X036457Y022833D01*
X036496Y022872D01*
X036537Y022909D01*
X036580Y022943D01*
X036581Y023293D02*
X036520Y023259D01*
X036461Y023221D01*
X036404Y023181D01*
X036349Y023138D01*
X036297Y023091D01*
X036248Y023042D01*
X036201Y022991D01*
X036157Y022936D01*
X036116Y022880D01*
X036078Y022821D01*
X036043Y022761D01*
X036012Y022698D01*
X035984Y022634D01*
X035960Y022569D01*
X035939Y022502D01*
X035922Y022434D01*
X035909Y022366D01*
X035900Y022296D01*
X035894Y022227D01*
X035892Y022157D01*
X035423Y023182D02*
X035423Y023286D01*
X035364Y023356D01*
X035364Y023407D01*
X035201Y023407D02*
X035201Y023356D01*
X035142Y023286D01*
X035142Y023182D01*
X035423Y023182D01*
X036778Y025665D02*
X036727Y025699D01*
X036386Y025249D02*
X036350Y025199D01*
X036318Y025146D01*
X036290Y025092D01*
X036264Y025037D01*
X036242Y024980D01*
X036224Y024921D01*
X036210Y024862D01*
X036199Y024802D01*
X036192Y024741D01*
X036188Y024680D01*
X036189Y024618D01*
X036193Y024557D01*
X036201Y024497D01*
X036213Y024437D01*
X036228Y024378D01*
X036248Y024320D01*
X036270Y024263D01*
X036297Y024207D01*
X036326Y024154D01*
X036359Y024102D01*
X036395Y024053D01*
X036434Y024006D01*
X036476Y023961D01*
X036521Y023919D01*
X036568Y023880D01*
X036617Y023844D01*
X036669Y023811D01*
X036722Y023782D01*
X036778Y023755D01*
X036835Y023733D01*
X036893Y023713D01*
X036952Y023698D01*
X037012Y023686D01*
X037072Y023678D01*
X037133Y023674D01*
X037195Y023673D01*
X037256Y023677D01*
X037317Y023684D01*
X037377Y023695D01*
X037436Y023709D01*
X037495Y023727D01*
X037552Y023749D01*
X037607Y023775D01*
X037661Y023803D01*
X037714Y023835D01*
X037764Y023871D01*
X038561Y023407D02*
X039652Y023407D01*
X039810Y023407D01*
X039810Y015907D01*
X039652Y015907D01*
X038750Y015907D01*
X038587Y015907D01*
X038561Y015907D01*
X037763Y015907D01*
X037763Y016022D01*
X037756Y016026D02*
X037748Y016031D01*
X037740Y016035D01*
X037698Y016061D02*
X037657Y016088D01*
X037617Y016114D01*
X037566Y016148D02*
X037566Y015907D01*
X037763Y015907D01*
X037566Y015907D01*
X036778Y015907D01*
X036778Y015665D01*
X036778Y015907D02*
X036582Y015907D01*
X036778Y015907D02*
X037566Y015907D01*
X037566Y015665D01*
X037617Y015699D02*
X037657Y015726D01*
X037698Y015752D01*
X037740Y015778D02*
X037748Y015783D01*
X037756Y015788D01*
X037763Y015792D02*
X037763Y015907D01*
X038561Y015907D01*
X038561Y023407D01*
X038587Y023407D02*
X038587Y023356D01*
X038528Y023286D01*
X038528Y023182D01*
X038809Y023182D01*
X038809Y023286D01*
X038750Y023356D01*
X038750Y023407D01*
X037566Y021148D02*
X037617Y021114D01*
X037958Y021565D02*
X037994Y021615D01*
X038026Y021668D01*
X038054Y021722D01*
X038080Y021777D01*
X038102Y021834D01*
X038120Y021893D01*
X038134Y021952D01*
X038145Y022012D01*
X038152Y022073D01*
X038156Y022134D01*
X038155Y022196D01*
X038151Y022257D01*
X038143Y022317D01*
X038131Y022377D01*
X038116Y022436D01*
X038096Y022494D01*
X038074Y022551D01*
X038047Y022607D01*
X038018Y022660D01*
X037985Y022712D01*
X037949Y022761D01*
X037910Y022808D01*
X037868Y022853D01*
X037823Y022895D01*
X037776Y022934D01*
X037727Y022970D01*
X037675Y023003D01*
X037622Y023032D01*
X037566Y023059D01*
X037509Y023081D01*
X037451Y023101D01*
X037392Y023116D01*
X037332Y023128D01*
X037272Y023136D01*
X037211Y023140D01*
X037149Y023141D01*
X037088Y023137D01*
X037027Y023130D01*
X036967Y023119D01*
X036908Y023105D01*
X036849Y023087D01*
X036792Y023065D01*
X036737Y023039D01*
X036683Y023011D01*
X036630Y022979D01*
X036580Y022943D01*
X037958Y024065D02*
X037994Y024116D01*
X038026Y024168D01*
X038054Y024222D01*
X038080Y024277D01*
X038102Y024334D01*
X038120Y024393D01*
X038134Y024452D01*
X038145Y024512D01*
X038152Y024573D01*
X038156Y024634D01*
X038155Y024696D01*
X038151Y024757D01*
X038143Y024817D01*
X038131Y024877D01*
X038116Y024936D01*
X038096Y024994D01*
X038074Y025051D01*
X038047Y025107D01*
X038018Y025160D01*
X037985Y025212D01*
X037949Y025261D01*
X037910Y025308D01*
X037868Y025353D01*
X037823Y025395D01*
X037776Y025434D01*
X037727Y025470D01*
X037675Y025503D01*
X037622Y025532D01*
X037566Y025559D01*
X037509Y025581D01*
X037451Y025601D01*
X037392Y025616D01*
X037332Y025628D01*
X037272Y025636D01*
X037211Y025640D01*
X037149Y025641D01*
X037088Y025637D01*
X037027Y025630D01*
X036967Y025619D01*
X036908Y025605D01*
X036849Y025587D01*
X036792Y025565D01*
X036737Y025539D01*
X036683Y025511D01*
X036631Y025479D01*
X036580Y025443D01*
X036148Y024657D02*
X036150Y024721D01*
X036156Y024784D01*
X036166Y024847D01*
X036180Y024909D01*
X036197Y024970D01*
X036219Y025030D01*
X036244Y025089D01*
X036272Y025146D01*
X036304Y025201D01*
X036340Y025254D01*
X036379Y025304D01*
X036420Y025352D01*
X036465Y025398D01*
X036512Y025440D01*
X036562Y025480D01*
X036615Y025516D01*
X036669Y025549D01*
X036726Y025579D01*
X036784Y025605D01*
X036843Y025627D01*
X036904Y025645D01*
X036966Y025660D01*
X037029Y025671D01*
X037092Y025678D01*
X037156Y025681D01*
X037220Y025680D01*
X037283Y025675D01*
X037346Y025666D01*
X037409Y025653D01*
X037470Y025637D01*
X037531Y025616D01*
X037589Y025592D01*
X037647Y025564D01*
X037702Y025533D01*
X037756Y025498D01*
X037807Y025460D01*
X037856Y025419D01*
X037902Y025375D01*
X037945Y025329D01*
X037985Y025279D01*
X038022Y025228D01*
X038056Y025174D01*
X038087Y025118D01*
X038113Y025060D01*
X038137Y025001D01*
X038156Y024940D01*
X038172Y024878D01*
X038184Y024816D01*
X038192Y024752D01*
X038196Y024689D01*
X038196Y024625D01*
X038192Y024562D01*
X038184Y024498D01*
X038172Y024436D01*
X038156Y024374D01*
X038137Y024313D01*
X038113Y024254D01*
X038087Y024196D01*
X038056Y024140D01*
X038022Y024086D01*
X037985Y024035D01*
X037945Y023985D01*
X037902Y023939D01*
X037856Y023895D01*
X037807Y023854D01*
X037756Y023816D01*
X037702Y023781D01*
X037647Y023750D01*
X037589Y023722D01*
X037531Y023698D01*
X037470Y023677D01*
X037409Y023661D01*
X037346Y023648D01*
X037283Y023639D01*
X037220Y023634D01*
X037156Y023633D01*
X037092Y023636D01*
X037029Y023643D01*
X036966Y023654D01*
X036904Y023669D01*
X036843Y023687D01*
X036784Y023709D01*
X036726Y023735D01*
X036669Y023765D01*
X036615Y023798D01*
X036562Y023834D01*
X036512Y023874D01*
X036465Y023916D01*
X036420Y023962D01*
X036379Y024010D01*
X036340Y024060D01*
X036304Y024113D01*
X036272Y024168D01*
X036244Y024225D01*
X036219Y024284D01*
X036197Y024344D01*
X036180Y024405D01*
X036166Y024467D01*
X036156Y024530D01*
X036150Y024593D01*
X036148Y024657D01*
X037764Y023871D02*
X037807Y023905D01*
X037848Y023942D01*
X037887Y023981D01*
X037924Y024022D01*
X037958Y024065D01*
X037565Y028165D02*
X037616Y028199D01*
X037566Y030665D02*
X037617Y030699D01*
X037566Y026149D02*
X037617Y026115D01*
X037566Y023649D02*
X037617Y023615D01*
X037565Y025666D02*
X037616Y025700D01*
X037698Y021061D02*
X037740Y021036D01*
X036580Y020443D02*
X036537Y020409D01*
X036496Y020372D01*
X036457Y020333D01*
X036420Y020292D01*
X036386Y020249D01*
X035893Y019657D02*
X035893Y017157D01*
X036580Y017943D02*
X037959Y016565D01*
X037764Y016370D02*
X037764Y016370D01*
X038561Y015907D02*
X039652Y015907D01*
X039810Y015907D01*
X039810Y008407D01*
X039652Y008407D01*
X038750Y008407D01*
X038587Y008407D01*
X038561Y008407D01*
X037763Y008407D01*
X037763Y008522D01*
X037756Y008526D02*
X037748Y008531D01*
X037740Y008535D01*
X037698Y008561D02*
X037657Y008588D01*
X037617Y008614D01*
X037566Y008648D02*
X037566Y008407D01*
X037763Y008407D01*
X037566Y008407D01*
X036778Y008407D01*
X036778Y008165D01*
X036728Y008199D02*
X036687Y008226D01*
X036646Y008252D01*
X036604Y008278D02*
X036596Y008283D01*
X036589Y008288D01*
X036582Y008292D02*
X036582Y008407D01*
X035893Y008407D01*
X035773Y008407D01*
X035773Y015907D01*
X035086Y015907D01*
X034889Y015907D01*
X035086Y015907D01*
X035086Y008407D01*
X035773Y008407D01*
X035773Y000907D01*
X035364Y000907D01*
X035201Y000907D01*
X035086Y000907D01*
X034889Y000907D01*
X034889Y008407D01*
X035086Y008407D01*
X035086Y000907D01*
X035201Y000907D02*
X035201Y000856D01*
X035142Y000786D01*
X035142Y000682D01*
X035423Y000682D01*
X035423Y000786D01*
X035364Y000856D01*
X035364Y000907D01*
X035773Y000907D02*
X035893Y000907D01*
X035893Y002157D01*
X036582Y001022D01*
X036582Y000907D01*
X036778Y000907D01*
X036778Y001148D01*
X036728Y001114D02*
X036687Y001088D01*
X036646Y001061D01*
X036604Y001035D02*
X036596Y001031D01*
X036589Y001026D01*
X036582Y000907D02*
X035893Y000907D01*
X036778Y000907D02*
X037566Y000907D01*
X037763Y000907D01*
X037763Y001022D01*
X037756Y001026D02*
X037748Y001031D01*
X037740Y001035D01*
X037698Y001061D02*
X037657Y001088D01*
X037617Y001114D01*
X037566Y001148D02*
X037566Y000907D01*
X037763Y000907D02*
X038561Y000907D01*
X038561Y008407D01*
X038561Y015907D01*
X038587Y015907D02*
X038587Y015856D01*
X038528Y015786D01*
X038528Y015682D01*
X038809Y015682D01*
X038809Y015786D01*
X038750Y015856D01*
X038750Y015907D01*
X037566Y013648D02*
X037617Y013614D01*
X037764Y013871D02*
X037714Y013835D01*
X037661Y013803D01*
X037607Y013775D01*
X037552Y013749D01*
X037495Y013727D01*
X037436Y013709D01*
X037377Y013695D01*
X037317Y013684D01*
X037256Y013677D01*
X037195Y013673D01*
X037134Y013674D01*
X037073Y013678D01*
X037012Y013686D01*
X036952Y013698D01*
X036893Y013713D01*
X036835Y013733D01*
X036778Y013755D01*
X036722Y013782D01*
X036669Y013811D01*
X036617Y013844D01*
X036568Y013880D01*
X036521Y013919D01*
X036476Y013961D01*
X036434Y014006D01*
X036395Y014053D01*
X036359Y014102D01*
X036326Y014154D01*
X036297Y014207D01*
X036270Y014263D01*
X036248Y014320D01*
X036228Y014378D01*
X036213Y014437D01*
X036201Y014497D01*
X036193Y014558D01*
X036189Y014619D01*
X036188Y014680D01*
X036192Y014741D01*
X036199Y014802D01*
X036210Y014862D01*
X036224Y014921D01*
X036242Y014980D01*
X036264Y015037D01*
X036290Y015092D01*
X036318Y015146D01*
X036350Y015199D01*
X036386Y015249D01*
X036420Y015292D01*
X036457Y015333D01*
X036496Y015372D01*
X036537Y015409D01*
X036580Y015443D01*
X036581Y015793D02*
X036520Y015759D01*
X036461Y015721D01*
X036404Y015681D01*
X036349Y015638D01*
X036297Y015591D01*
X036248Y015542D01*
X036201Y015491D01*
X036157Y015436D01*
X036116Y015380D01*
X036078Y015321D01*
X036043Y015261D01*
X036012Y015198D01*
X035984Y015134D01*
X035960Y015069D01*
X035939Y015002D01*
X035922Y014934D01*
X035909Y014866D01*
X035900Y014796D01*
X035894Y014727D01*
X035892Y014657D01*
X035423Y015682D02*
X035423Y015786D01*
X035364Y015856D01*
X035364Y015907D01*
X035201Y015907D02*
X035201Y015856D01*
X035142Y015786D01*
X035142Y015682D01*
X035423Y015682D01*
X036778Y018165D02*
X036727Y018199D01*
X036589Y018526D02*
X036596Y018531D01*
X036604Y018535D01*
X036646Y018561D02*
X036687Y018588D01*
X036728Y018614D01*
X037764Y018871D02*
X037807Y018905D01*
X037848Y018942D01*
X037887Y018981D01*
X037924Y019022D01*
X037958Y019066D01*
X036148Y019657D02*
X036150Y019721D01*
X036156Y019784D01*
X036166Y019847D01*
X036180Y019909D01*
X036197Y019970D01*
X036219Y020030D01*
X036244Y020089D01*
X036272Y020146D01*
X036304Y020201D01*
X036340Y020254D01*
X036379Y020304D01*
X036420Y020352D01*
X036465Y020398D01*
X036512Y020440D01*
X036562Y020480D01*
X036615Y020516D01*
X036669Y020549D01*
X036726Y020579D01*
X036784Y020605D01*
X036843Y020627D01*
X036904Y020645D01*
X036966Y020660D01*
X037029Y020671D01*
X037092Y020678D01*
X037156Y020681D01*
X037220Y020680D01*
X037283Y020675D01*
X037346Y020666D01*
X037409Y020653D01*
X037470Y020637D01*
X037531Y020616D01*
X037589Y020592D01*
X037647Y020564D01*
X037702Y020533D01*
X037756Y020498D01*
X037807Y020460D01*
X037856Y020419D01*
X037902Y020375D01*
X037945Y020329D01*
X037985Y020279D01*
X038022Y020228D01*
X038056Y020174D01*
X038087Y020118D01*
X038113Y020060D01*
X038137Y020001D01*
X038156Y019940D01*
X038172Y019878D01*
X038184Y019816D01*
X038192Y019752D01*
X038196Y019689D01*
X038196Y019625D01*
X038192Y019562D01*
X038184Y019498D01*
X038172Y019436D01*
X038156Y019374D01*
X038137Y019313D01*
X038113Y019254D01*
X038087Y019196D01*
X038056Y019140D01*
X038022Y019086D01*
X037985Y019035D01*
X037945Y018985D01*
X037902Y018939D01*
X037856Y018895D01*
X037807Y018854D01*
X037756Y018816D01*
X037702Y018781D01*
X037647Y018750D01*
X037589Y018722D01*
X037531Y018698D01*
X037470Y018677D01*
X037409Y018661D01*
X037346Y018648D01*
X037283Y018639D01*
X037220Y018634D01*
X037156Y018633D01*
X037092Y018636D01*
X037029Y018643D01*
X036966Y018654D01*
X036904Y018669D01*
X036843Y018687D01*
X036784Y018709D01*
X036726Y018735D01*
X036669Y018765D01*
X036615Y018798D01*
X036562Y018834D01*
X036512Y018874D01*
X036465Y018916D01*
X036420Y018962D01*
X036379Y019010D01*
X036340Y019060D01*
X036304Y019113D01*
X036272Y019168D01*
X036244Y019225D01*
X036219Y019284D01*
X036197Y019344D01*
X036180Y019405D01*
X036166Y019467D01*
X036156Y019530D01*
X036150Y019593D01*
X036148Y019657D01*
X035892Y019657D02*
X035894Y019727D01*
X035900Y019796D01*
X035909Y019866D01*
X035922Y019934D01*
X035939Y020002D01*
X035960Y020069D01*
X035984Y020134D01*
X036012Y020198D01*
X036043Y020261D01*
X036078Y020321D01*
X036116Y020380D01*
X036157Y020436D01*
X036201Y020491D01*
X036248Y020542D01*
X036297Y020591D01*
X036349Y020638D01*
X036404Y020681D01*
X036461Y020721D01*
X036520Y020759D01*
X036581Y020793D01*
X036580Y020443D02*
X036630Y020479D01*
X036683Y020511D01*
X036737Y020539D01*
X036792Y020565D01*
X036849Y020587D01*
X036908Y020605D01*
X036967Y020619D01*
X037027Y020630D01*
X037088Y020637D01*
X037149Y020641D01*
X037211Y020640D01*
X037272Y020636D01*
X037332Y020628D01*
X037392Y020616D01*
X037451Y020601D01*
X037509Y020581D01*
X037566Y020559D01*
X037622Y020532D01*
X037675Y020503D01*
X037727Y020470D01*
X037776Y020434D01*
X037823Y020395D01*
X037868Y020353D01*
X037910Y020308D01*
X037949Y020261D01*
X037985Y020212D01*
X038018Y020160D01*
X038047Y020107D01*
X038074Y020051D01*
X038096Y019994D01*
X038116Y019936D01*
X038131Y019877D01*
X038143Y019817D01*
X038151Y019757D01*
X038155Y019696D01*
X038156Y019634D01*
X038152Y019573D01*
X038145Y019512D01*
X038134Y019452D01*
X038120Y019393D01*
X038102Y019334D01*
X038080Y019277D01*
X038054Y019222D01*
X038026Y019168D01*
X037994Y019115D01*
X037958Y019065D01*
X037764Y018871D02*
X037714Y018835D01*
X037661Y018803D01*
X037607Y018775D01*
X037552Y018749D01*
X037495Y018727D01*
X037436Y018709D01*
X037377Y018695D01*
X037317Y018684D01*
X037256Y018677D01*
X037195Y018673D01*
X037134Y018674D01*
X037073Y018678D01*
X037012Y018686D01*
X036952Y018698D01*
X036893Y018713D01*
X036835Y018733D01*
X036778Y018755D01*
X036722Y018782D01*
X036669Y018811D01*
X036617Y018844D01*
X036568Y018880D01*
X036521Y018919D01*
X036476Y018961D01*
X036434Y019006D01*
X036395Y019053D01*
X036359Y019102D01*
X036326Y019154D01*
X036297Y019207D01*
X036270Y019263D01*
X036248Y019320D01*
X036228Y019378D01*
X036213Y019437D01*
X036201Y019497D01*
X036193Y019558D01*
X036189Y019619D01*
X036188Y019680D01*
X036192Y019741D01*
X036199Y019802D01*
X036210Y019862D01*
X036224Y019921D01*
X036242Y019980D01*
X036264Y020037D01*
X036290Y020092D01*
X036318Y020146D01*
X036350Y020199D01*
X036386Y020249D01*
X036779Y023166D02*
X036728Y023200D01*
X036778Y018648D02*
X036727Y018614D01*
X036580Y017943D02*
X036537Y017909D01*
X036496Y017872D01*
X036457Y017833D01*
X036420Y017792D01*
X036386Y017748D01*
X036582Y018292D02*
X036521Y018258D01*
X036462Y018221D01*
X036405Y018180D01*
X036350Y018137D01*
X036298Y018091D01*
X036248Y018042D01*
X036201Y017990D01*
X036157Y017936D01*
X036116Y017879D01*
X036079Y017821D01*
X036044Y017760D01*
X036013Y017698D01*
X035985Y017634D01*
X035961Y017568D01*
X035940Y017502D01*
X035923Y017434D01*
X035910Y017365D01*
X035901Y017296D01*
X035895Y017227D01*
X035893Y017157D01*
X036778Y020665D02*
X036727Y020699D01*
X036779Y016148D02*
X036728Y016114D01*
X037958Y016565D02*
X037994Y016616D01*
X038026Y016668D01*
X038054Y016722D01*
X038080Y016777D01*
X038102Y016834D01*
X038120Y016893D01*
X038134Y016952D01*
X038145Y017012D01*
X038152Y017073D01*
X038156Y017134D01*
X038155Y017196D01*
X038151Y017257D01*
X038143Y017317D01*
X038131Y017377D01*
X038116Y017436D01*
X038096Y017494D01*
X038074Y017551D01*
X038047Y017607D01*
X038018Y017660D01*
X037985Y017712D01*
X037949Y017761D01*
X037910Y017808D01*
X037868Y017853D01*
X037823Y017895D01*
X037776Y017934D01*
X037727Y017970D01*
X037675Y018003D01*
X037622Y018032D01*
X037566Y018059D01*
X037509Y018081D01*
X037451Y018101D01*
X037392Y018116D01*
X037332Y018128D01*
X037272Y018136D01*
X037211Y018140D01*
X037149Y018141D01*
X037088Y018137D01*
X037027Y018130D01*
X036967Y018119D01*
X036908Y018105D01*
X036849Y018087D01*
X036792Y018065D01*
X036737Y018039D01*
X036683Y018011D01*
X036631Y017979D01*
X036580Y017943D01*
X036386Y017749D02*
X036350Y017699D01*
X036318Y017646D01*
X036290Y017592D01*
X036264Y017537D01*
X036242Y017480D01*
X036224Y017421D01*
X036210Y017362D01*
X036199Y017302D01*
X036192Y017241D01*
X036188Y017180D01*
X036189Y017118D01*
X036193Y017057D01*
X036201Y016997D01*
X036213Y016937D01*
X036228Y016878D01*
X036248Y016820D01*
X036270Y016763D01*
X036297Y016707D01*
X036326Y016654D01*
X036359Y016602D01*
X036395Y016553D01*
X036434Y016506D01*
X036476Y016461D01*
X036521Y016419D01*
X036568Y016380D01*
X036617Y016344D01*
X036669Y016311D01*
X036722Y016282D01*
X036778Y016255D01*
X036835Y016233D01*
X036893Y016213D01*
X036952Y016198D01*
X037012Y016186D01*
X037072Y016178D01*
X037133Y016174D01*
X037195Y016173D01*
X037256Y016177D01*
X037317Y016184D01*
X037377Y016195D01*
X037436Y016209D01*
X037495Y016227D01*
X037552Y016249D01*
X037607Y016275D01*
X037661Y016303D01*
X037714Y016335D01*
X037764Y016371D01*
X037807Y016405D01*
X037848Y016442D01*
X037887Y016481D01*
X037924Y016522D01*
X037958Y016565D01*
X036148Y017157D02*
X036150Y017221D01*
X036156Y017284D01*
X036166Y017347D01*
X036180Y017409D01*
X036197Y017470D01*
X036219Y017530D01*
X036244Y017589D01*
X036272Y017646D01*
X036304Y017701D01*
X036340Y017754D01*
X036379Y017804D01*
X036420Y017852D01*
X036465Y017898D01*
X036512Y017940D01*
X036562Y017980D01*
X036615Y018016D01*
X036669Y018049D01*
X036726Y018079D01*
X036784Y018105D01*
X036843Y018127D01*
X036904Y018145D01*
X036966Y018160D01*
X037029Y018171D01*
X037092Y018178D01*
X037156Y018181D01*
X037220Y018180D01*
X037283Y018175D01*
X037346Y018166D01*
X037409Y018153D01*
X037470Y018137D01*
X037531Y018116D01*
X037589Y018092D01*
X037647Y018064D01*
X037702Y018033D01*
X037756Y017998D01*
X037807Y017960D01*
X037856Y017919D01*
X037902Y017875D01*
X037945Y017829D01*
X037985Y017779D01*
X038022Y017728D01*
X038056Y017674D01*
X038087Y017618D01*
X038113Y017560D01*
X038137Y017501D01*
X038156Y017440D01*
X038172Y017378D01*
X038184Y017316D01*
X038192Y017252D01*
X038196Y017189D01*
X038196Y017125D01*
X038192Y017062D01*
X038184Y016998D01*
X038172Y016936D01*
X038156Y016874D01*
X038137Y016813D01*
X038113Y016754D01*
X038087Y016696D01*
X038056Y016640D01*
X038022Y016586D01*
X037985Y016535D01*
X037945Y016485D01*
X037902Y016439D01*
X037856Y016395D01*
X037807Y016354D01*
X037756Y016316D01*
X037702Y016281D01*
X037647Y016250D01*
X037589Y016222D01*
X037531Y016198D01*
X037470Y016177D01*
X037409Y016161D01*
X037346Y016148D01*
X037283Y016139D01*
X037220Y016134D01*
X037156Y016133D01*
X037092Y016136D01*
X037029Y016143D01*
X036966Y016154D01*
X036904Y016169D01*
X036843Y016187D01*
X036784Y016209D01*
X036726Y016235D01*
X036669Y016265D01*
X036615Y016298D01*
X036562Y016334D01*
X036512Y016374D01*
X036465Y016416D01*
X036420Y016462D01*
X036379Y016510D01*
X036340Y016560D01*
X036304Y016613D01*
X036272Y016668D01*
X036244Y016725D01*
X036219Y016784D01*
X036197Y016844D01*
X036180Y016905D01*
X036166Y016967D01*
X036156Y017030D01*
X036150Y017093D01*
X036148Y017157D01*
X036778Y013648D02*
X036727Y013614D01*
X037958Y014065D02*
X037994Y014115D01*
X038026Y014168D01*
X038054Y014222D01*
X038080Y014277D01*
X038102Y014334D01*
X038120Y014393D01*
X038134Y014452D01*
X038145Y014512D01*
X038152Y014573D01*
X038156Y014634D01*
X038155Y014696D01*
X038151Y014757D01*
X038143Y014817D01*
X038131Y014877D01*
X038116Y014936D01*
X038096Y014994D01*
X038074Y015051D01*
X038047Y015107D01*
X038018Y015160D01*
X037985Y015212D01*
X037949Y015261D01*
X037910Y015308D01*
X037868Y015353D01*
X037823Y015395D01*
X037776Y015434D01*
X037727Y015470D01*
X037675Y015503D01*
X037622Y015532D01*
X037566Y015559D01*
X037509Y015581D01*
X037451Y015601D01*
X037392Y015616D01*
X037332Y015628D01*
X037272Y015636D01*
X037211Y015640D01*
X037149Y015641D01*
X037088Y015637D01*
X037027Y015630D01*
X036967Y015619D01*
X036908Y015605D01*
X036849Y015587D01*
X036792Y015565D01*
X036737Y015539D01*
X036683Y015511D01*
X036630Y015479D01*
X036580Y015443D01*
X036778Y011148D02*
X036727Y011114D01*
X036728Y011114D02*
X036687Y011088D01*
X036646Y011061D01*
X036604Y011035D02*
X036596Y011031D01*
X036589Y011026D01*
X036580Y010443D02*
X037959Y009065D01*
X037764Y008870D02*
X037764Y008870D01*
X037763Y008407D02*
X037763Y008292D01*
X037756Y008288D02*
X037748Y008283D01*
X037740Y008278D01*
X037698Y008252D02*
X037657Y008226D01*
X037617Y008199D01*
X037566Y008165D02*
X037566Y008407D01*
X036778Y008407D01*
X036582Y008407D01*
X036580Y007943D02*
X036580Y007943D01*
X037959Y006565D01*
X037657Y006088D02*
X037617Y006114D01*
X037657Y006088D02*
X037698Y006061D01*
X037740Y006035D02*
X037748Y006031D01*
X037756Y006026D01*
X037763Y006022D02*
X037763Y005792D01*
X037756Y005788D02*
X037748Y005783D01*
X037740Y005778D01*
X037698Y005752D02*
X037657Y005726D01*
X037617Y005699D01*
X037566Y005665D02*
X037566Y006148D01*
X036582Y006022D02*
X036582Y005792D01*
X036589Y005788D02*
X036596Y005783D01*
X036604Y005778D01*
X036580Y005443D02*
X036580Y005443D01*
X037959Y004065D01*
X037657Y003588D02*
X037698Y003561D01*
X037657Y003588D02*
X037617Y003614D01*
X037566Y003648D02*
X037566Y003165D01*
X037617Y003199D02*
X037657Y003226D01*
X037698Y003252D01*
X037740Y003278D02*
X037748Y003283D01*
X037756Y003288D01*
X037763Y003292D02*
X037763Y003522D01*
X037756Y003526D02*
X037748Y003531D01*
X037740Y003535D01*
X036778Y003648D02*
X036778Y003165D01*
X036728Y003199D02*
X036687Y003226D01*
X036646Y003252D01*
X036604Y003278D02*
X036596Y003283D01*
X036589Y003288D01*
X036582Y003292D02*
X036582Y003522D01*
X035893Y004657D01*
X035893Y007157D01*
X035423Y008182D02*
X035423Y008286D01*
X035364Y008356D01*
X035364Y008407D01*
X035201Y008407D02*
X035201Y008356D01*
X035142Y008286D01*
X035142Y008182D01*
X035423Y008182D01*
X036778Y010665D02*
X036727Y010699D01*
X036580Y010443D02*
X036537Y010409D01*
X036496Y010372D01*
X036457Y010333D01*
X036420Y010292D01*
X036386Y010248D01*
X035893Y009657D02*
X035893Y012157D01*
X036779Y015666D02*
X036728Y015700D01*
X036646Y011061D02*
X036604Y011036D01*
X037764Y011371D02*
X037807Y011405D01*
X037848Y011442D01*
X037887Y011481D01*
X037924Y011522D01*
X037958Y011566D01*
X036148Y012157D02*
X036150Y012221D01*
X036156Y012284D01*
X036166Y012347D01*
X036180Y012409D01*
X036197Y012470D01*
X036219Y012530D01*
X036244Y012589D01*
X036272Y012646D01*
X036304Y012701D01*
X036340Y012754D01*
X036379Y012804D01*
X036420Y012852D01*
X036465Y012898D01*
X036512Y012940D01*
X036562Y012980D01*
X036615Y013016D01*
X036669Y013049D01*
X036726Y013079D01*
X036784Y013105D01*
X036843Y013127D01*
X036904Y013145D01*
X036966Y013160D01*
X037029Y013171D01*
X037092Y013178D01*
X037156Y013181D01*
X037220Y013180D01*
X037283Y013175D01*
X037346Y013166D01*
X037409Y013153D01*
X037470Y013137D01*
X037531Y013116D01*
X037589Y013092D01*
X037647Y013064D01*
X037702Y013033D01*
X037756Y012998D01*
X037807Y012960D01*
X037856Y012919D01*
X037902Y012875D01*
X037945Y012829D01*
X037985Y012779D01*
X038022Y012728D01*
X038056Y012674D01*
X038087Y012618D01*
X038113Y012560D01*
X038137Y012501D01*
X038156Y012440D01*
X038172Y012378D01*
X038184Y012316D01*
X038192Y012252D01*
X038196Y012189D01*
X038196Y012125D01*
X038192Y012062D01*
X038184Y011998D01*
X038172Y011936D01*
X038156Y011874D01*
X038137Y011813D01*
X038113Y011754D01*
X038087Y011696D01*
X038056Y011640D01*
X038022Y011586D01*
X037985Y011535D01*
X037945Y011485D01*
X037902Y011439D01*
X037856Y011395D01*
X037807Y011354D01*
X037756Y011316D01*
X037702Y011281D01*
X037647Y011250D01*
X037589Y011222D01*
X037531Y011198D01*
X037470Y011177D01*
X037409Y011161D01*
X037346Y011148D01*
X037283Y011139D01*
X037220Y011134D01*
X037156Y011133D01*
X037092Y011136D01*
X037029Y011143D01*
X036966Y011154D01*
X036904Y011169D01*
X036843Y011187D01*
X036784Y011209D01*
X036726Y011235D01*
X036669Y011265D01*
X036615Y011298D01*
X036562Y011334D01*
X036512Y011374D01*
X036465Y011416D01*
X036420Y011462D01*
X036379Y011510D01*
X036340Y011560D01*
X036304Y011613D01*
X036272Y011668D01*
X036244Y011725D01*
X036219Y011784D01*
X036197Y011844D01*
X036180Y011905D01*
X036166Y011967D01*
X036156Y012030D01*
X036150Y012093D01*
X036148Y012157D01*
X035892Y012157D02*
X035894Y012227D01*
X035900Y012296D01*
X035909Y012366D01*
X035922Y012434D01*
X035939Y012502D01*
X035960Y012569D01*
X035984Y012634D01*
X036012Y012698D01*
X036043Y012761D01*
X036078Y012821D01*
X036116Y012880D01*
X036157Y012936D01*
X036201Y012991D01*
X036248Y013042D01*
X036297Y013091D01*
X036349Y013138D01*
X036404Y013181D01*
X036461Y013221D01*
X036520Y013259D01*
X036581Y013293D01*
X036580Y012943D02*
X036537Y012909D01*
X036496Y012872D01*
X036457Y012833D01*
X036420Y012792D01*
X036386Y012749D01*
X036350Y012699D01*
X036318Y012646D01*
X036290Y012592D01*
X036264Y012537D01*
X036242Y012480D01*
X036224Y012421D01*
X036210Y012362D01*
X036199Y012302D01*
X036192Y012241D01*
X036188Y012180D01*
X036189Y012119D01*
X036193Y012058D01*
X036201Y011997D01*
X036213Y011937D01*
X036228Y011878D01*
X036248Y011820D01*
X036270Y011763D01*
X036297Y011707D01*
X036326Y011654D01*
X036359Y011602D01*
X036395Y011553D01*
X036434Y011506D01*
X036476Y011461D01*
X036521Y011419D01*
X036568Y011380D01*
X036617Y011344D01*
X036669Y011311D01*
X036722Y011282D01*
X036778Y011255D01*
X036835Y011233D01*
X036893Y011213D01*
X036952Y011198D01*
X037012Y011186D01*
X037073Y011178D01*
X037134Y011174D01*
X037195Y011173D01*
X037256Y011177D01*
X037317Y011184D01*
X037377Y011195D01*
X037436Y011209D01*
X037495Y011227D01*
X037552Y011249D01*
X037607Y011275D01*
X037661Y011303D01*
X037714Y011335D01*
X037764Y011371D01*
X037958Y011565D02*
X037994Y011615D01*
X038026Y011668D01*
X038054Y011722D01*
X038080Y011777D01*
X038102Y011834D01*
X038120Y011893D01*
X038134Y011952D01*
X038145Y012012D01*
X038152Y012073D01*
X038156Y012134D01*
X038155Y012196D01*
X038151Y012257D01*
X038143Y012317D01*
X038131Y012377D01*
X038116Y012436D01*
X038096Y012494D01*
X038074Y012551D01*
X038047Y012607D01*
X038018Y012660D01*
X037985Y012712D01*
X037949Y012761D01*
X037910Y012808D01*
X037868Y012853D01*
X037823Y012895D01*
X037776Y012934D01*
X037727Y012970D01*
X037675Y013003D01*
X037622Y013032D01*
X037566Y013059D01*
X037509Y013081D01*
X037451Y013101D01*
X037392Y013116D01*
X037332Y013128D01*
X037272Y013136D01*
X037211Y013140D01*
X037149Y013141D01*
X037088Y013137D01*
X037027Y013130D01*
X036967Y013119D01*
X036908Y013105D01*
X036849Y013087D01*
X036792Y013065D01*
X036737Y013039D01*
X036683Y013011D01*
X036630Y012979D01*
X036580Y012943D01*
X036779Y008648D02*
X036728Y008614D01*
X037763Y008407D02*
X038561Y008407D01*
X039652Y008407D01*
X039810Y008407D01*
X039810Y000907D01*
X039652Y000907D01*
X038750Y000907D01*
X038587Y000907D01*
X038561Y000907D01*
X038587Y000907D02*
X038587Y000856D01*
X038528Y000786D01*
X038528Y000682D01*
X038809Y000682D01*
X038809Y000786D01*
X038750Y000856D01*
X038750Y000907D01*
X037959Y001565D02*
X036580Y002943D01*
X036589Y003526D02*
X036596Y003531D01*
X036604Y003535D01*
X036646Y003561D02*
X036687Y003588D01*
X036728Y003614D01*
X037764Y003871D02*
X037807Y003905D01*
X037848Y003942D01*
X037887Y003981D01*
X037924Y004022D01*
X037958Y004066D01*
X036148Y004657D02*
X036150Y004721D01*
X036156Y004784D01*
X036166Y004847D01*
X036180Y004909D01*
X036197Y004970D01*
X036219Y005030D01*
X036244Y005089D01*
X036272Y005146D01*
X036304Y005201D01*
X036340Y005254D01*
X036379Y005304D01*
X036420Y005352D01*
X036465Y005398D01*
X036512Y005440D01*
X036562Y005480D01*
X036615Y005516D01*
X036669Y005549D01*
X036726Y005579D01*
X036784Y005605D01*
X036843Y005627D01*
X036904Y005645D01*
X036966Y005660D01*
X037029Y005671D01*
X037092Y005678D01*
X037156Y005681D01*
X037220Y005680D01*
X037283Y005675D01*
X037346Y005666D01*
X037409Y005653D01*
X037470Y005637D01*
X037531Y005616D01*
X037589Y005592D01*
X037647Y005564D01*
X037702Y005533D01*
X037756Y005498D01*
X037807Y005460D01*
X037856Y005419D01*
X037902Y005375D01*
X037945Y005329D01*
X037985Y005279D01*
X038022Y005228D01*
X038056Y005174D01*
X038087Y005118D01*
X038113Y005060D01*
X038137Y005001D01*
X038156Y004940D01*
X038172Y004878D01*
X038184Y004816D01*
X038192Y004752D01*
X038196Y004689D01*
X038196Y004625D01*
X038192Y004562D01*
X038184Y004498D01*
X038172Y004436D01*
X038156Y004374D01*
X038137Y004313D01*
X038113Y004254D01*
X038087Y004196D01*
X038056Y004140D01*
X038022Y004086D01*
X037985Y004035D01*
X037945Y003985D01*
X037902Y003939D01*
X037856Y003895D01*
X037807Y003854D01*
X037756Y003816D01*
X037702Y003781D01*
X037647Y003750D01*
X037589Y003722D01*
X037531Y003698D01*
X037470Y003677D01*
X037409Y003661D01*
X037346Y003648D01*
X037283Y003639D01*
X037220Y003634D01*
X037156Y003633D01*
X037092Y003636D01*
X037029Y003643D01*
X036966Y003654D01*
X036904Y003669D01*
X036843Y003687D01*
X036784Y003709D01*
X036726Y003735D01*
X036669Y003765D01*
X036615Y003798D01*
X036562Y003834D01*
X036512Y003874D01*
X036465Y003916D01*
X036420Y003962D01*
X036379Y004010D01*
X036340Y004060D01*
X036304Y004113D01*
X036272Y004168D01*
X036244Y004225D01*
X036219Y004284D01*
X036197Y004344D01*
X036180Y004405D01*
X036166Y004467D01*
X036156Y004530D01*
X036150Y004593D01*
X036148Y004657D01*
X035893Y004657D02*
X035893Y002157D01*
X036778Y005665D02*
X036727Y005699D01*
X036580Y005443D02*
X036537Y005409D01*
X036496Y005372D01*
X036457Y005333D01*
X036420Y005292D01*
X036386Y005249D01*
X036581Y005793D02*
X036520Y005759D01*
X036461Y005721D01*
X036404Y005681D01*
X036349Y005638D01*
X036297Y005591D01*
X036248Y005542D01*
X036201Y005491D01*
X036157Y005436D01*
X036116Y005380D01*
X036078Y005321D01*
X036043Y005261D01*
X036012Y005198D01*
X035984Y005134D01*
X035960Y005069D01*
X035939Y005002D01*
X035922Y004934D01*
X035909Y004866D01*
X035900Y004796D01*
X035894Y004727D01*
X035892Y004657D01*
X036779Y008166D02*
X036728Y008200D01*
X036580Y007943D02*
X036537Y007909D01*
X036496Y007872D01*
X036457Y007833D01*
X036420Y007792D01*
X036386Y007749D01*
X036581Y008293D02*
X036520Y008259D01*
X036461Y008221D01*
X036404Y008181D01*
X036349Y008138D01*
X036297Y008091D01*
X036248Y008042D01*
X036201Y007991D01*
X036157Y007936D01*
X036116Y007880D01*
X036078Y007821D01*
X036043Y007761D01*
X036012Y007698D01*
X035984Y007634D01*
X035960Y007569D01*
X035939Y007502D01*
X035922Y007434D01*
X035909Y007366D01*
X035900Y007296D01*
X035894Y007227D01*
X035892Y007157D01*
X036778Y003648D02*
X036727Y003614D01*
X037764Y003871D02*
X037714Y003835D01*
X037661Y003803D01*
X037607Y003775D01*
X037552Y003749D01*
X037495Y003727D01*
X037436Y003709D01*
X037377Y003695D01*
X037317Y003684D01*
X037256Y003677D01*
X037195Y003673D01*
X037134Y003674D01*
X037073Y003678D01*
X037012Y003686D01*
X036952Y003698D01*
X036893Y003713D01*
X036835Y003733D01*
X036778Y003755D01*
X036722Y003782D01*
X036669Y003811D01*
X036617Y003844D01*
X036568Y003880D01*
X036521Y003919D01*
X036476Y003961D01*
X036434Y004006D01*
X036395Y004053D01*
X036359Y004102D01*
X036326Y004154D01*
X036297Y004207D01*
X036270Y004263D01*
X036248Y004320D01*
X036228Y004378D01*
X036213Y004437D01*
X036201Y004497D01*
X036193Y004558D01*
X036189Y004619D01*
X036188Y004680D01*
X036192Y004741D01*
X036199Y004802D01*
X036210Y004862D01*
X036224Y004921D01*
X036242Y004980D01*
X036264Y005037D01*
X036290Y005092D01*
X036318Y005146D01*
X036350Y005199D01*
X036386Y005249D01*
X036580Y005443D02*
X036630Y005479D01*
X036683Y005511D01*
X036737Y005539D01*
X036792Y005565D01*
X036849Y005587D01*
X036908Y005605D01*
X036967Y005619D01*
X037027Y005630D01*
X037088Y005637D01*
X037149Y005641D01*
X037211Y005640D01*
X037272Y005636D01*
X037332Y005628D01*
X037392Y005616D01*
X037451Y005601D01*
X037509Y005581D01*
X037566Y005559D01*
X037622Y005532D01*
X037675Y005503D01*
X037727Y005470D01*
X037776Y005434D01*
X037823Y005395D01*
X037868Y005353D01*
X037910Y005308D01*
X037949Y005261D01*
X037985Y005212D01*
X038018Y005160D01*
X038047Y005107D01*
X038074Y005051D01*
X038096Y004994D01*
X038116Y004936D01*
X038131Y004877D01*
X038143Y004817D01*
X038151Y004757D01*
X038155Y004696D01*
X038156Y004634D01*
X038152Y004573D01*
X038145Y004512D01*
X038134Y004452D01*
X038120Y004393D01*
X038102Y004334D01*
X038080Y004277D01*
X038054Y004222D01*
X038026Y004168D01*
X037994Y004115D01*
X037958Y004065D01*
X037566Y001149D02*
X037617Y001115D01*
X037764Y001370D02*
X037764Y001370D01*
X037764Y001371D02*
X037807Y001405D01*
X037848Y001442D01*
X037887Y001481D01*
X037924Y001522D01*
X037958Y001565D01*
X036148Y002157D02*
X036150Y002221D01*
X036156Y002284D01*
X036166Y002347D01*
X036180Y002409D01*
X036197Y002470D01*
X036219Y002530D01*
X036244Y002589D01*
X036272Y002646D01*
X036304Y002701D01*
X036340Y002754D01*
X036379Y002804D01*
X036420Y002852D01*
X036465Y002898D01*
X036512Y002940D01*
X036562Y002980D01*
X036615Y003016D01*
X036669Y003049D01*
X036726Y003079D01*
X036784Y003105D01*
X036843Y003127D01*
X036904Y003145D01*
X036966Y003160D01*
X037029Y003171D01*
X037092Y003178D01*
X037156Y003181D01*
X037220Y003180D01*
X037283Y003175D01*
X037346Y003166D01*
X037409Y003153D01*
X037470Y003137D01*
X037531Y003116D01*
X037589Y003092D01*
X037647Y003064D01*
X037702Y003033D01*
X037756Y002998D01*
X037807Y002960D01*
X037856Y002919D01*
X037902Y002875D01*
X037945Y002829D01*
X037985Y002779D01*
X038022Y002728D01*
X038056Y002674D01*
X038087Y002618D01*
X038113Y002560D01*
X038137Y002501D01*
X038156Y002440D01*
X038172Y002378D01*
X038184Y002316D01*
X038192Y002252D01*
X038196Y002189D01*
X038196Y002125D01*
X038192Y002062D01*
X038184Y001998D01*
X038172Y001936D01*
X038156Y001874D01*
X038137Y001813D01*
X038113Y001754D01*
X038087Y001696D01*
X038056Y001640D01*
X038022Y001586D01*
X037985Y001535D01*
X037945Y001485D01*
X037902Y001439D01*
X037856Y001395D01*
X037807Y001354D01*
X037756Y001316D01*
X037702Y001281D01*
X037647Y001250D01*
X037589Y001222D01*
X037531Y001198D01*
X037470Y001177D01*
X037409Y001161D01*
X037346Y001148D01*
X037283Y001139D01*
X037220Y001134D01*
X037156Y001133D01*
X037092Y001136D01*
X037029Y001143D01*
X036966Y001154D01*
X036904Y001169D01*
X036843Y001187D01*
X036784Y001209D01*
X036726Y001235D01*
X036669Y001265D01*
X036615Y001298D01*
X036562Y001334D01*
X036512Y001374D01*
X036465Y001416D01*
X036420Y001462D01*
X036379Y001510D01*
X036340Y001560D01*
X036304Y001613D01*
X036272Y001668D01*
X036244Y001725D01*
X036219Y001784D01*
X036197Y001844D01*
X036180Y001905D01*
X036166Y001967D01*
X036156Y002030D01*
X036150Y002093D01*
X036148Y002157D01*
X036580Y002943D02*
X036631Y002979D01*
X036683Y003011D01*
X036737Y003039D01*
X036792Y003065D01*
X036849Y003087D01*
X036908Y003105D01*
X036967Y003119D01*
X037027Y003130D01*
X037088Y003137D01*
X037149Y003141D01*
X037211Y003140D01*
X037272Y003136D01*
X037332Y003128D01*
X037392Y003116D01*
X037451Y003101D01*
X037509Y003081D01*
X037566Y003059D01*
X037622Y003032D01*
X037675Y003003D01*
X037727Y002970D01*
X037776Y002934D01*
X037823Y002895D01*
X037868Y002853D01*
X037910Y002808D01*
X037949Y002761D01*
X037985Y002712D01*
X038018Y002660D01*
X038047Y002607D01*
X038074Y002551D01*
X038096Y002494D01*
X038116Y002436D01*
X038131Y002377D01*
X038143Y002317D01*
X038151Y002257D01*
X038155Y002196D01*
X038156Y002134D01*
X038152Y002073D01*
X038145Y002012D01*
X038134Y001952D01*
X038120Y001893D01*
X038102Y001834D01*
X038080Y001777D01*
X038054Y001722D01*
X038026Y001668D01*
X037994Y001616D01*
X037958Y001565D01*
X037764Y001371D02*
X037714Y001335D01*
X037661Y001303D01*
X037607Y001275D01*
X037552Y001249D01*
X037495Y001227D01*
X037436Y001209D01*
X037377Y001195D01*
X037317Y001184D01*
X037256Y001177D01*
X037195Y001173D01*
X037133Y001174D01*
X037072Y001178D01*
X037012Y001186D01*
X036952Y001198D01*
X036893Y001213D01*
X036835Y001233D01*
X036778Y001255D01*
X036722Y001282D01*
X036669Y001311D01*
X036617Y001344D01*
X036568Y001380D01*
X036521Y001419D01*
X036476Y001461D01*
X036434Y001506D01*
X036395Y001553D01*
X036359Y001602D01*
X036326Y001654D01*
X036297Y001707D01*
X036270Y001763D01*
X036248Y001820D01*
X036228Y001878D01*
X036213Y001937D01*
X036201Y001997D01*
X036193Y002057D01*
X036189Y002118D01*
X036188Y002180D01*
X036192Y002241D01*
X036199Y002302D01*
X036210Y002362D01*
X036224Y002421D01*
X036242Y002480D01*
X036264Y002537D01*
X036290Y002592D01*
X036318Y002646D01*
X036350Y002699D01*
X036386Y002749D01*
X036386Y002748D02*
X036420Y002792D01*
X036457Y002833D01*
X036496Y002872D01*
X036537Y002909D01*
X036580Y002943D01*
X036582Y003292D02*
X036521Y003258D01*
X036462Y003221D01*
X036405Y003180D01*
X036350Y003137D01*
X036298Y003091D01*
X036248Y003042D01*
X036201Y002990D01*
X036157Y002936D01*
X036116Y002879D01*
X036079Y002821D01*
X036044Y002760D01*
X036013Y002698D01*
X035985Y002634D01*
X035961Y002568D01*
X035940Y002502D01*
X035923Y002434D01*
X035910Y002365D01*
X035901Y002296D01*
X035895Y002227D01*
X035893Y002157D01*
X036727Y003199D02*
X036778Y003165D01*
X036779Y001148D02*
X036728Y001114D01*
X036646Y003252D02*
X036604Y003278D01*
X036646Y008252D02*
X036604Y008278D01*
X036148Y007157D02*
X036150Y007221D01*
X036156Y007284D01*
X036166Y007347D01*
X036180Y007409D01*
X036197Y007470D01*
X036219Y007530D01*
X036244Y007589D01*
X036272Y007646D01*
X036304Y007701D01*
X036340Y007754D01*
X036379Y007804D01*
X036420Y007852D01*
X036465Y007898D01*
X036512Y007940D01*
X036562Y007980D01*
X036615Y008016D01*
X036669Y008049D01*
X036726Y008079D01*
X036784Y008105D01*
X036843Y008127D01*
X036904Y008145D01*
X036966Y008160D01*
X037029Y008171D01*
X037092Y008178D01*
X037156Y008181D01*
X037220Y008180D01*
X037283Y008175D01*
X037346Y008166D01*
X037409Y008153D01*
X037470Y008137D01*
X037531Y008116D01*
X037589Y008092D01*
X037647Y008064D01*
X037702Y008033D01*
X037756Y007998D01*
X037807Y007960D01*
X037856Y007919D01*
X037902Y007875D01*
X037945Y007829D01*
X037985Y007779D01*
X038022Y007728D01*
X038056Y007674D01*
X038087Y007618D01*
X038113Y007560D01*
X038137Y007501D01*
X038156Y007440D01*
X038172Y007378D01*
X038184Y007316D01*
X038192Y007252D01*
X038196Y007189D01*
X038196Y007125D01*
X038192Y007062D01*
X038184Y006998D01*
X038172Y006936D01*
X038156Y006874D01*
X038137Y006813D01*
X038113Y006754D01*
X038087Y006696D01*
X038056Y006640D01*
X038022Y006586D01*
X037985Y006535D01*
X037945Y006485D01*
X037902Y006439D01*
X037856Y006395D01*
X037807Y006354D01*
X037756Y006316D01*
X037702Y006281D01*
X037647Y006250D01*
X037589Y006222D01*
X037531Y006198D01*
X037470Y006177D01*
X037409Y006161D01*
X037346Y006148D01*
X037283Y006139D01*
X037220Y006134D01*
X037156Y006133D01*
X037092Y006136D01*
X037029Y006143D01*
X036966Y006154D01*
X036904Y006169D01*
X036843Y006187D01*
X036784Y006209D01*
X036726Y006235D01*
X036669Y006265D01*
X036615Y006298D01*
X036562Y006334D01*
X036512Y006374D01*
X036465Y006416D01*
X036420Y006462D01*
X036379Y006510D01*
X036340Y006560D01*
X036304Y006613D01*
X036272Y006668D01*
X036244Y006725D01*
X036219Y006784D01*
X036197Y006844D01*
X036180Y006905D01*
X036166Y006967D01*
X036156Y007030D01*
X036150Y007093D01*
X036148Y007157D01*
X036386Y007749D02*
X036350Y007699D01*
X036318Y007646D01*
X036290Y007592D01*
X036264Y007537D01*
X036242Y007480D01*
X036224Y007421D01*
X036210Y007362D01*
X036199Y007302D01*
X036192Y007241D01*
X036188Y007180D01*
X036189Y007119D01*
X036193Y007058D01*
X036201Y006997D01*
X036213Y006937D01*
X036228Y006878D01*
X036248Y006820D01*
X036270Y006763D01*
X036297Y006707D01*
X036326Y006654D01*
X036359Y006602D01*
X036395Y006553D01*
X036434Y006506D01*
X036476Y006461D01*
X036521Y006419D01*
X036568Y006380D01*
X036617Y006344D01*
X036669Y006311D01*
X036722Y006282D01*
X036778Y006255D01*
X036835Y006233D01*
X036893Y006213D01*
X036952Y006198D01*
X037012Y006186D01*
X037073Y006178D01*
X037134Y006174D01*
X037195Y006173D01*
X037256Y006177D01*
X037317Y006184D01*
X037377Y006195D01*
X037436Y006209D01*
X037495Y006227D01*
X037552Y006249D01*
X037607Y006275D01*
X037661Y006303D01*
X037714Y006335D01*
X037764Y006371D01*
X037807Y006405D01*
X037848Y006442D01*
X037887Y006481D01*
X037924Y006522D01*
X037958Y006566D01*
X037958Y006565D02*
X037994Y006615D01*
X038026Y006668D01*
X038054Y006722D01*
X038080Y006777D01*
X038102Y006834D01*
X038120Y006893D01*
X038134Y006952D01*
X038145Y007012D01*
X038152Y007073D01*
X038156Y007134D01*
X038155Y007196D01*
X038151Y007257D01*
X038143Y007317D01*
X038131Y007377D01*
X038116Y007436D01*
X038096Y007494D01*
X038074Y007551D01*
X038047Y007607D01*
X038018Y007660D01*
X037985Y007712D01*
X037949Y007761D01*
X037910Y007808D01*
X037868Y007853D01*
X037823Y007895D01*
X037776Y007934D01*
X037727Y007970D01*
X037675Y008003D01*
X037622Y008032D01*
X037566Y008059D01*
X037509Y008081D01*
X037451Y008101D01*
X037392Y008116D01*
X037332Y008128D01*
X037272Y008136D01*
X037211Y008140D01*
X037149Y008141D01*
X037088Y008137D01*
X037027Y008130D01*
X036967Y008119D01*
X036908Y008105D01*
X036849Y008087D01*
X036792Y008065D01*
X036737Y008039D01*
X036683Y008011D01*
X036630Y007979D01*
X036580Y007943D01*
X038528Y008182D02*
X038809Y008182D01*
X038809Y008286D01*
X038750Y008356D01*
X038750Y008407D01*
X038587Y008407D02*
X038587Y008356D01*
X038528Y008286D01*
X038528Y008182D01*
X037565Y010666D02*
X037616Y010700D01*
X036386Y010249D02*
X036350Y010199D01*
X036318Y010146D01*
X036290Y010092D01*
X036264Y010037D01*
X036242Y009980D01*
X036224Y009921D01*
X036210Y009862D01*
X036199Y009802D01*
X036192Y009741D01*
X036188Y009680D01*
X036189Y009618D01*
X036193Y009557D01*
X036201Y009497D01*
X036213Y009437D01*
X036228Y009378D01*
X036248Y009320D01*
X036270Y009263D01*
X036297Y009207D01*
X036326Y009154D01*
X036359Y009102D01*
X036395Y009053D01*
X036434Y009006D01*
X036476Y008961D01*
X036521Y008919D01*
X036568Y008880D01*
X036617Y008844D01*
X036669Y008811D01*
X036722Y008782D01*
X036778Y008755D01*
X036835Y008733D01*
X036893Y008713D01*
X036952Y008698D01*
X037012Y008686D01*
X037072Y008678D01*
X037133Y008674D01*
X037195Y008673D01*
X037256Y008677D01*
X037317Y008684D01*
X037377Y008695D01*
X037436Y008709D01*
X037495Y008727D01*
X037552Y008749D01*
X037607Y008775D01*
X037661Y008803D01*
X037714Y008835D01*
X037764Y008871D01*
X037807Y008905D01*
X037848Y008942D01*
X037887Y008981D01*
X037924Y009022D01*
X037958Y009065D01*
X036148Y009657D02*
X036150Y009721D01*
X036156Y009784D01*
X036166Y009847D01*
X036180Y009909D01*
X036197Y009970D01*
X036219Y010030D01*
X036244Y010089D01*
X036272Y010146D01*
X036304Y010201D01*
X036340Y010254D01*
X036379Y010304D01*
X036420Y010352D01*
X036465Y010398D01*
X036512Y010440D01*
X036562Y010480D01*
X036615Y010516D01*
X036669Y010549D01*
X036726Y010579D01*
X036784Y010605D01*
X036843Y010627D01*
X036904Y010645D01*
X036966Y010660D01*
X037029Y010671D01*
X037092Y010678D01*
X037156Y010681D01*
X037220Y010680D01*
X037283Y010675D01*
X037346Y010666D01*
X037409Y010653D01*
X037470Y010637D01*
X037531Y010616D01*
X037589Y010592D01*
X037647Y010564D01*
X037702Y010533D01*
X037756Y010498D01*
X037807Y010460D01*
X037856Y010419D01*
X037902Y010375D01*
X037945Y010329D01*
X037985Y010279D01*
X038022Y010228D01*
X038056Y010174D01*
X038087Y010118D01*
X038113Y010060D01*
X038137Y010001D01*
X038156Y009940D01*
X038172Y009878D01*
X038184Y009816D01*
X038192Y009752D01*
X038196Y009689D01*
X038196Y009625D01*
X038192Y009562D01*
X038184Y009498D01*
X038172Y009436D01*
X038156Y009374D01*
X038137Y009313D01*
X038113Y009254D01*
X038087Y009196D01*
X038056Y009140D01*
X038022Y009086D01*
X037985Y009035D01*
X037945Y008985D01*
X037902Y008939D01*
X037856Y008895D01*
X037807Y008854D01*
X037756Y008816D01*
X037702Y008781D01*
X037647Y008750D01*
X037589Y008722D01*
X037531Y008698D01*
X037470Y008677D01*
X037409Y008661D01*
X037346Y008648D01*
X037283Y008639D01*
X037220Y008634D01*
X037156Y008633D01*
X037092Y008636D01*
X037029Y008643D01*
X036966Y008654D01*
X036904Y008669D01*
X036843Y008687D01*
X036784Y008709D01*
X036726Y008735D01*
X036669Y008765D01*
X036615Y008798D01*
X036562Y008834D01*
X036512Y008874D01*
X036465Y008916D01*
X036420Y008962D01*
X036379Y009010D01*
X036340Y009060D01*
X036304Y009113D01*
X036272Y009168D01*
X036244Y009225D01*
X036219Y009284D01*
X036197Y009344D01*
X036180Y009405D01*
X036166Y009467D01*
X036156Y009530D01*
X036150Y009593D01*
X036148Y009657D01*
X036580Y010443D02*
X036631Y010479D01*
X036683Y010511D01*
X036737Y010539D01*
X036792Y010565D01*
X036849Y010587D01*
X036908Y010605D01*
X036967Y010619D01*
X037027Y010630D01*
X037088Y010637D01*
X037149Y010641D01*
X037211Y010640D01*
X037272Y010636D01*
X037332Y010628D01*
X037392Y010616D01*
X037451Y010601D01*
X037509Y010581D01*
X037566Y010559D01*
X037622Y010532D01*
X037675Y010503D01*
X037727Y010470D01*
X037776Y010434D01*
X037823Y010395D01*
X037868Y010353D01*
X037910Y010308D01*
X037949Y010261D01*
X037985Y010212D01*
X038018Y010160D01*
X038047Y010107D01*
X038074Y010051D01*
X038096Y009994D01*
X038116Y009936D01*
X038131Y009877D01*
X038143Y009817D01*
X038151Y009757D01*
X038155Y009696D01*
X038156Y009634D01*
X038152Y009573D01*
X038145Y009512D01*
X038134Y009452D01*
X038120Y009393D01*
X038102Y009334D01*
X038080Y009277D01*
X038054Y009222D01*
X038026Y009168D01*
X037994Y009116D01*
X037958Y009065D01*
X035893Y009657D02*
X035895Y009727D01*
X035901Y009796D01*
X035910Y009865D01*
X035923Y009934D01*
X035940Y010002D01*
X035961Y010068D01*
X035985Y010134D01*
X036013Y010198D01*
X036044Y010260D01*
X036079Y010321D01*
X036116Y010379D01*
X036157Y010436D01*
X036201Y010490D01*
X036248Y010542D01*
X036298Y010591D01*
X036350Y010637D01*
X036405Y010680D01*
X036462Y010721D01*
X036521Y010758D01*
X036582Y010792D01*
X036778Y013165D02*
X036727Y013199D01*
X036645Y008561D02*
X036604Y008536D01*
X036778Y006148D02*
X036727Y006114D01*
X036646Y010752D02*
X036604Y010778D01*
X036645Y006061D02*
X036604Y006036D01*
X036645Y001061D02*
X036604Y001036D01*
X037565Y003166D02*
X037616Y003200D01*
X037565Y005665D02*
X037616Y005699D01*
X037566Y008165D02*
X037617Y008199D01*
X037566Y006148D02*
X037617Y006114D01*
X037566Y003649D02*
X037617Y003615D01*
X037699Y008252D02*
X037740Y008278D01*
X037565Y013165D02*
X037616Y013199D01*
X037566Y015665D02*
X037617Y015699D01*
X037565Y018166D02*
X037616Y018200D01*
X037565Y020665D02*
X037616Y020699D01*
X037566Y023165D02*
X037617Y023199D01*
X037566Y018649D02*
X037617Y018615D01*
X037566Y016149D02*
X037617Y016115D01*
X037566Y011149D02*
X037617Y011115D01*
X037566Y008649D02*
X037617Y008615D01*
X037699Y013253D02*
X037740Y013278D01*
X037699Y008561D02*
X037740Y008535D01*
X037698Y003561D02*
X037740Y003535D01*
X037699Y001061D02*
X037740Y001035D01*
X037699Y005753D02*
X037740Y005778D01*
X037699Y010753D02*
X037740Y010778D01*
X037698Y006061D02*
X037740Y006036D01*
X036646Y003561D02*
X036604Y003536D01*
X037699Y003253D02*
X037740Y003278D01*
X036646Y013252D02*
X036604Y013278D01*
X036646Y018252D02*
X036604Y018278D01*
X036645Y013561D02*
X036604Y013536D01*
X036646Y015752D02*
X036604Y015778D01*
X036646Y020752D02*
X036604Y020778D01*
X036645Y016061D02*
X036604Y016036D01*
X037699Y020753D02*
X037740Y020778D01*
X037699Y016061D02*
X037740Y016035D01*
X037698Y011061D02*
X037740Y011035D01*
X037699Y015752D02*
X037740Y015778D01*
X037699Y018253D02*
X037740Y018278D01*
X037698Y013561D02*
X037740Y013536D01*
X037699Y023252D02*
X037740Y023278D01*
X037698Y018561D02*
X037740Y018535D01*
X036646Y023252D02*
X036604Y023278D01*
X036646Y018561D02*
X036604Y018536D01*
X036646Y025752D02*
X036604Y025778D01*
X036645Y021061D02*
X036604Y021036D01*
X037699Y025753D02*
X037740Y025778D01*
X037699Y030752D02*
X037740Y030778D01*
X037698Y026061D02*
X037740Y026035D01*
X037699Y023561D02*
X037740Y023535D01*
X037699Y028253D02*
X037740Y028278D01*
X036645Y023561D02*
X036604Y023536D01*
X036646Y028252D02*
X036604Y028278D01*
X036646Y030752D02*
X036604Y030778D01*
X036645Y028561D02*
X036604Y028536D01*
X037698Y028561D02*
X037740Y028536D01*
X019150Y005294D02*
X018975Y005294D01*
X018916Y005236D01*
X018975Y005178D01*
X019150Y005178D01*
X019150Y005061D02*
X018916Y005061D01*
X018916Y005119D01*
X018975Y005178D01*
X018975Y004935D02*
X019150Y004935D01*
X019150Y004819D02*
X018975Y004819D01*
X018916Y004877D01*
X018975Y004935D01*
X018975Y004819D02*
X018916Y004760D01*
X018916Y004702D01*
X019150Y004702D01*
X019150Y004576D02*
X019150Y004343D01*
X018916Y004576D01*
X018858Y004576D01*
X018800Y004518D01*
X018800Y004401D01*
X018858Y004343D01*
X019092Y004220D02*
X019092Y004162D01*
X019150Y004162D01*
X019150Y004220D01*
X019092Y004220D01*
X019150Y004220D02*
X019267Y004103D01*
X019092Y003978D02*
X019150Y003919D01*
X019150Y003803D01*
X019092Y003744D01*
X018975Y003744D02*
X018916Y003861D01*
X018916Y003919D01*
X018975Y003978D01*
X019092Y003978D01*
X018975Y003744D02*
X018800Y003744D01*
X018800Y003978D01*
X018800Y003502D02*
X019150Y003502D01*
X019150Y003385D02*
X019150Y003619D01*
X018916Y003385D02*
X018800Y003502D01*
X018916Y003259D02*
X019150Y003259D01*
X018975Y003259D02*
X018975Y003026D01*
X018916Y003026D02*
X018800Y003143D01*
X018916Y003259D01*
X018916Y003026D02*
X019150Y003026D01*
D20*
X015005Y002650D03*
X015005Y003650D03*
X015005Y004650D03*
D21*
X007460Y003725D02*
X007460Y003075D01*
X007263Y003075D01*
X007263Y003725D01*
X006672Y003575D02*
X006672Y006225D01*
X007263Y006225D01*
X007263Y005575D01*
X007460Y005575D02*
X007460Y006225D01*
X007263Y006225D01*
X006672Y006225D02*
X006672Y006422D01*
X001948Y006422D01*
X001948Y005910D01*
X002341Y005910D01*
X001948Y005910D02*
X001948Y003390D01*
X002341Y003390D01*
X001948Y003390D02*
X001948Y002878D01*
X005172Y002878D01*
X005097Y003390D02*
X005491Y003390D01*
X005491Y003626D01*
X005491Y004020D02*
X005491Y004256D01*
X005491Y005044D01*
X005491Y005280D01*
X005491Y005674D02*
X005491Y005910D01*
X005097Y005910D01*
X004704Y005910D02*
X004310Y005910D01*
X003916Y005910D02*
X003523Y005910D01*
X003326Y006225D02*
X006672Y006225D01*
X003326Y006225D02*
X003326Y006422D01*
X003326Y006225D02*
X003326Y002878D01*
X003523Y003390D02*
X003916Y003390D01*
X004310Y003390D02*
X004704Y003390D01*
X003129Y003390D02*
X002735Y003390D01*
X002735Y004256D02*
X002696Y004258D01*
X002658Y004264D01*
X002621Y004273D01*
X002584Y004286D01*
X002549Y004303D01*
X002516Y004322D01*
X002485Y004345D01*
X002456Y004371D01*
X002430Y004400D01*
X002407Y004431D01*
X002388Y004464D01*
X002371Y004499D01*
X002358Y004536D01*
X002349Y004573D01*
X002343Y004611D01*
X002341Y004650D01*
X002343Y004689D01*
X002349Y004727D01*
X002358Y004764D01*
X002371Y004801D01*
X002388Y004836D01*
X002407Y004869D01*
X002430Y004900D01*
X002456Y004929D01*
X002485Y004955D01*
X002516Y004978D01*
X002549Y004997D01*
X002584Y005014D01*
X002621Y005027D01*
X002658Y005036D01*
X002696Y005042D01*
X002735Y005044D01*
X002735Y005910D02*
X003129Y005910D01*
D22*
X004330Y014650D03*
D23*
X002680Y014650D03*
D24*
X005905Y014640D03*
X005905Y015730D03*
X005905Y016810D03*
X005905Y013570D03*
X005905Y012490D03*
D25*
X005405Y013030D03*
X005405Y014110D03*
X005405Y015180D03*
X005405Y016270D03*
D26*
X014430Y023950D02*
X014432Y023963D01*
X014437Y023976D01*
X014446Y023987D01*
X014457Y023994D01*
X014470Y023999D01*
X014483Y024000D01*
X014497Y023997D01*
X014509Y023991D01*
X014519Y023982D01*
X014526Y023970D01*
X014530Y023957D01*
X014530Y023943D01*
X014526Y023930D01*
X014519Y023918D01*
X014509Y023909D01*
X014497Y023903D01*
X014483Y023900D01*
X014470Y023901D01*
X014457Y023906D01*
X014446Y023913D01*
X014437Y023924D01*
X014432Y023937D01*
X014430Y023950D01*
X015430Y023950D02*
X015432Y023963D01*
X015437Y023976D01*
X015446Y023987D01*
X015457Y023994D01*
X015470Y023999D01*
X015483Y024000D01*
X015497Y023997D01*
X015509Y023991D01*
X015519Y023982D01*
X015526Y023970D01*
X015530Y023957D01*
X015530Y023943D01*
X015526Y023930D01*
X015519Y023918D01*
X015509Y023909D01*
X015497Y023903D01*
X015483Y023900D01*
X015470Y023901D01*
X015457Y023906D01*
X015446Y023913D01*
X015437Y023924D01*
X015432Y023937D01*
X015430Y023950D01*
X015430Y025350D02*
X015432Y025363D01*
X015437Y025376D01*
X015446Y025387D01*
X015457Y025394D01*
X015470Y025399D01*
X015483Y025400D01*
X015497Y025397D01*
X015509Y025391D01*
X015519Y025382D01*
X015526Y025370D01*
X015530Y025357D01*
X015530Y025343D01*
X015526Y025330D01*
X015519Y025318D01*
X015509Y025309D01*
X015497Y025303D01*
X015483Y025300D01*
X015470Y025301D01*
X015457Y025306D01*
X015446Y025313D01*
X015437Y025324D01*
X015432Y025337D01*
X015430Y025350D01*
X014430Y025350D02*
X014432Y025363D01*
X014437Y025376D01*
X014446Y025387D01*
X014457Y025394D01*
X014470Y025399D01*
X014483Y025400D01*
X014497Y025397D01*
X014509Y025391D01*
X014519Y025382D01*
X014526Y025370D01*
X014530Y025357D01*
X014530Y025343D01*
X014526Y025330D01*
X014519Y025318D01*
X014509Y025309D01*
X014497Y025303D01*
X014483Y025300D01*
X014470Y025301D01*
X014457Y025306D01*
X014446Y025313D01*
X014437Y025324D01*
X014432Y025337D01*
X014430Y025350D01*
X019430Y025350D02*
X019432Y025363D01*
X019437Y025376D01*
X019446Y025387D01*
X019457Y025394D01*
X019470Y025399D01*
X019483Y025400D01*
X019497Y025397D01*
X019509Y025391D01*
X019519Y025382D01*
X019526Y025370D01*
X019530Y025357D01*
X019530Y025343D01*
X019526Y025330D01*
X019519Y025318D01*
X019509Y025309D01*
X019497Y025303D01*
X019483Y025300D01*
X019470Y025301D01*
X019457Y025306D01*
X019446Y025313D01*
X019437Y025324D01*
X019432Y025337D01*
X019430Y025350D01*
X020430Y025350D02*
X020432Y025363D01*
X020437Y025376D01*
X020446Y025387D01*
X020457Y025394D01*
X020470Y025399D01*
X020483Y025400D01*
X020497Y025397D01*
X020509Y025391D01*
X020519Y025382D01*
X020526Y025370D01*
X020530Y025357D01*
X020530Y025343D01*
X020526Y025330D01*
X020519Y025318D01*
X020509Y025309D01*
X020497Y025303D01*
X020483Y025300D01*
X020470Y025301D01*
X020457Y025306D01*
X020446Y025313D01*
X020437Y025324D01*
X020432Y025337D01*
X020430Y025350D01*
X020430Y023950D02*
X020432Y023963D01*
X020437Y023976D01*
X020446Y023987D01*
X020457Y023994D01*
X020470Y023999D01*
X020483Y024000D01*
X020497Y023997D01*
X020509Y023991D01*
X020519Y023982D01*
X020526Y023970D01*
X020530Y023957D01*
X020530Y023943D01*
X020526Y023930D01*
X020519Y023918D01*
X020509Y023909D01*
X020497Y023903D01*
X020483Y023900D01*
X020470Y023901D01*
X020457Y023906D01*
X020446Y023913D01*
X020437Y023924D01*
X020432Y023937D01*
X020430Y023950D01*
X019430Y023950D02*
X019432Y023963D01*
X019437Y023976D01*
X019446Y023987D01*
X019457Y023994D01*
X019470Y023999D01*
X019483Y024000D01*
X019497Y023997D01*
X019509Y023991D01*
X019519Y023982D01*
X019526Y023970D01*
X019530Y023957D01*
X019530Y023943D01*
X019526Y023930D01*
X019519Y023918D01*
X019509Y023909D01*
X019497Y023903D01*
X019483Y023900D01*
X019470Y023901D01*
X019457Y023906D01*
X019446Y023913D01*
X019437Y023924D01*
X019432Y023937D01*
X019430Y023950D01*
X020880Y022850D02*
X020882Y022870D01*
X020888Y022888D01*
X020897Y022906D01*
X020909Y022921D01*
X020924Y022933D01*
X020942Y022942D01*
X020960Y022948D01*
X020980Y022950D01*
X021000Y022948D01*
X021018Y022942D01*
X021036Y022933D01*
X021051Y022921D01*
X021063Y022906D01*
X021072Y022888D01*
X021078Y022870D01*
X021080Y022850D01*
X021078Y022830D01*
X021072Y022812D01*
X021063Y022794D01*
X021051Y022779D01*
X021036Y022767D01*
X021018Y022758D01*
X021000Y022752D01*
X020980Y022750D01*
X020960Y022752D01*
X020942Y022758D01*
X020924Y022767D01*
X020909Y022779D01*
X020897Y022794D01*
X020888Y022812D01*
X020882Y022830D01*
X020880Y022850D01*
X009030Y029050D02*
X009084Y029093D01*
X009136Y029139D01*
X009185Y029188D01*
X009232Y029240D01*
X009275Y029294D01*
X009316Y029350D01*
X009353Y029409D01*
X009387Y029469D01*
X009417Y029532D01*
X009444Y029595D01*
X009468Y029661D01*
X009488Y029727D01*
X009504Y029795D01*
X009516Y029863D01*
X009524Y029932D01*
X009529Y030001D01*
X009530Y030071D01*
X009527Y030140D01*
X009520Y030209D01*
X009509Y030277D01*
X009495Y030345D01*
X009476Y030412D01*
X009454Y030478D01*
X009429Y030543D01*
X009400Y030606D01*
X009367Y030667D01*
X009331Y030726D01*
X009292Y030783D01*
X009250Y030839D01*
X009205Y030891D01*
X009157Y030941D01*
X009106Y030988D01*
X009052Y031033D01*
X008997Y031074D01*
X008939Y031112D01*
X008879Y031147D01*
X008817Y031179D01*
X008754Y031207D01*
X008689Y031231D01*
X008623Y031252D01*
X008555Y031269D01*
X008487Y031283D01*
X008418Y031292D01*
X008349Y031298D01*
X008280Y031300D01*
X008211Y031298D01*
X008142Y031292D01*
X008073Y031283D01*
X008005Y031269D01*
X007937Y031252D01*
X007871Y031231D01*
X007806Y031207D01*
X007743Y031179D01*
X007681Y031147D01*
X007621Y031112D01*
X007563Y031074D01*
X007508Y031033D01*
X007454Y030988D01*
X007403Y030941D01*
X007355Y030891D01*
X007310Y030839D01*
X007268Y030783D01*
X007229Y030726D01*
X007193Y030667D01*
X007160Y030606D01*
X007131Y030543D01*
X007106Y030478D01*
X007084Y030412D01*
X007065Y030345D01*
X007051Y030277D01*
X007040Y030209D01*
X007033Y030140D01*
X007030Y030071D01*
X007031Y030001D01*
X007036Y029932D01*
X007044Y029863D01*
X007056Y029795D01*
X007072Y029727D01*
X007092Y029661D01*
X007116Y029595D01*
X007143Y029532D01*
X007173Y029469D01*
X007207Y029409D01*
X007244Y029350D01*
X007285Y029294D01*
X007328Y029240D01*
X007375Y029188D01*
X007424Y029139D01*
X007476Y029093D01*
X007530Y029050D01*
X034680Y002900D02*
X034637Y002954D01*
X034591Y003006D01*
X034542Y003055D01*
X034490Y003102D01*
X034436Y003145D01*
X034380Y003186D01*
X034321Y003223D01*
X034261Y003257D01*
X034198Y003287D01*
X034135Y003314D01*
X034069Y003338D01*
X034003Y003358D01*
X033935Y003374D01*
X033867Y003386D01*
X033798Y003394D01*
X033729Y003399D01*
X033659Y003400D01*
X033590Y003397D01*
X033521Y003390D01*
X033453Y003379D01*
X033385Y003365D01*
X033318Y003346D01*
X033252Y003324D01*
X033187Y003299D01*
X033124Y003270D01*
X033063Y003237D01*
X033004Y003201D01*
X032947Y003162D01*
X032891Y003120D01*
X032839Y003075D01*
X032789Y003027D01*
X032742Y002976D01*
X032697Y002922D01*
X032656Y002867D01*
X032618Y002809D01*
X032583Y002749D01*
X032551Y002687D01*
X032523Y002624D01*
X032499Y002559D01*
X032478Y002493D01*
X032461Y002425D01*
X032447Y002357D01*
X032438Y002288D01*
X032432Y002219D01*
X032430Y002150D01*
X032432Y002081D01*
X032438Y002012D01*
X032447Y001943D01*
X032461Y001875D01*
X032478Y001807D01*
X032499Y001741D01*
X032523Y001676D01*
X032551Y001613D01*
X032583Y001551D01*
X032618Y001491D01*
X032656Y001433D01*
X032697Y001378D01*
X032742Y001324D01*
X032789Y001273D01*
X032839Y001225D01*
X032891Y001180D01*
X032947Y001138D01*
X033004Y001099D01*
X033063Y001063D01*
X033124Y001030D01*
X033187Y001001D01*
X033252Y000976D01*
X033318Y000954D01*
X033385Y000935D01*
X033453Y000921D01*
X033521Y000910D01*
X033590Y000903D01*
X033659Y000900D01*
X033729Y000901D01*
X033798Y000906D01*
X033867Y000914D01*
X033935Y000926D01*
X034003Y000942D01*
X034069Y000962D01*
X034135Y000986D01*
X034198Y001013D01*
X034261Y001043D01*
X034321Y001077D01*
X034380Y001114D01*
X034436Y001155D01*
X034490Y001198D01*
X034542Y001245D01*
X034591Y001294D01*
X034637Y001346D01*
X034680Y001400D01*
D27*
X012530Y019950D02*
X012530Y022350D01*
X012528Y022407D01*
X012522Y022463D01*
X012513Y022519D01*
X012500Y022575D01*
X012483Y022629D01*
X012463Y022682D01*
X012439Y022733D01*
X012411Y022783D01*
X012381Y022831D01*
X012347Y022877D01*
X012310Y022920D01*
X012271Y022961D01*
X012229Y022999D01*
X012184Y023034D01*
X012137Y023066D01*
X012088Y023095D01*
X012038Y023121D01*
X011985Y023143D01*
X011932Y023162D01*
X011877Y023177D01*
X011821Y023188D01*
X011765Y023196D01*
X011708Y023200D01*
X011652Y023200D01*
X011595Y023196D01*
X011539Y023188D01*
X011483Y023177D01*
X011428Y023162D01*
X011375Y023143D01*
X011322Y023121D01*
X011272Y023095D01*
X011223Y023066D01*
X011176Y023034D01*
X011131Y022999D01*
X011089Y022961D01*
X011050Y022920D01*
X011013Y022877D01*
X010979Y022831D01*
X010949Y022783D01*
X010921Y022733D01*
X010897Y022682D01*
X010877Y022629D01*
X010860Y022575D01*
X010847Y022519D01*
X010838Y022463D01*
X010832Y022407D01*
X010830Y022350D01*
X010830Y019950D01*
X010832Y019893D01*
X010838Y019837D01*
X010847Y019781D01*
X010860Y019725D01*
X010877Y019671D01*
X010897Y019618D01*
X010921Y019567D01*
X010949Y019517D01*
X010979Y019469D01*
X011013Y019423D01*
X011050Y019380D01*
X011089Y019339D01*
X011131Y019301D01*
X011176Y019266D01*
X011223Y019234D01*
X011272Y019205D01*
X011322Y019179D01*
X011375Y019157D01*
X011428Y019138D01*
X011483Y019123D01*
X011539Y019112D01*
X011595Y019104D01*
X011652Y019100D01*
X011708Y019100D01*
X011765Y019104D01*
X011821Y019112D01*
X011877Y019123D01*
X011932Y019138D01*
X011985Y019157D01*
X012038Y019179D01*
X012088Y019205D01*
X012137Y019234D01*
X012184Y019266D01*
X012229Y019301D01*
X012271Y019339D01*
X012310Y019380D01*
X012347Y019423D01*
X012381Y019469D01*
X012411Y019517D01*
X012439Y019567D01*
X012463Y019618D01*
X012483Y019671D01*
X012500Y019725D01*
X012513Y019781D01*
X012522Y019837D01*
X012528Y019893D01*
X012530Y019950D01*
X014980Y029800D02*
X014980Y030150D01*
X014980Y030500D01*
X015380Y030500D02*
X015380Y030150D01*
X015380Y029800D01*
X020480Y029800D02*
X020480Y030150D01*
X020480Y030500D01*
X020880Y030500D02*
X020880Y030150D01*
X020880Y029800D01*
D28*
X011330Y005650D03*
D29*
X011955Y005650D03*
X009405Y005650D03*
M02*
