%
M48
M72
T01C0.0240
T02C0.0250
T03C0.0315
T04C0.0320
T05C0.0354
T06C0.0360
T07C0.0394
T08C0.0400
T09C0.0512
T10C0.0748
T11C0.1280
T12C0.1300
T13C0.1378
%
T01
X11680Y8700
X17030Y9100
X20230Y11200
X20980Y13000
X20880Y13650
X20380Y14900
X19380Y15650
X20180Y16100
X20430Y17250
X19230Y17400
X18580Y16550
X18180Y15650
X22730Y13200
X23330Y13000
X28280Y14300
X29230Y14300
X30330Y13750
X30380Y12950
X30380Y12150
X27880Y15550
X27980Y16350
X24280Y19550
X24330Y20500
X24330Y21350
X24330Y22300
X23130Y22900
X23030Y21950
X22130Y22200
X21230Y21650
X21880Y23350
X19230Y20400
X17280Y20550
X17230Y21400
X15580Y20200
X14680Y21000
X13280Y19600
X12730Y17950
X13180Y17500
X13780Y17850
X13830Y14900
X13930Y13400
X21180Y19650
X27080Y21700
X8980Y21100
X18580Y6450
X19780Y6450
T02
X19680Y23150
X18680Y23150
X20680Y23150
X20680Y26150
X19680Y26150
X18680Y26150
X15680Y26150
X14680Y26150
X13680Y26150
X13680Y23150
X14680Y23150
X15680Y23150
T03
X4999Y4650
X6180Y2760
T04
X8680Y1650
X9680Y1650
X11180Y1650
X12180Y1650
X12680Y5650
X8680Y5650
X25680Y5650
X25680Y4650
X25680Y6650
X25680Y7650
X25680Y8650
X25680Y9650
X25680Y10650
X25680Y11650
X25680Y12650
X25680Y13650
X25680Y14650
X25680Y15650
X25680Y16650
X25680Y17650
X25680Y18650
X25680Y19650
X25680Y20650
X25680Y21650
X25680Y22650
X25680Y23650
X25680Y26150
X25680Y27150
X25680Y28150
X25680Y29150
X28680Y29150
X28680Y28150
X28680Y27150
X28680Y26150
X31680Y23650
X31680Y22650
X31680Y21650
X31680Y20650
X31680Y19650
X31680Y18650
X31680Y17650
X31680Y16650
X31680Y15650
X31680Y14650
X31680Y13650
X31680Y12650
X31680Y11650
X31680Y10650
X31680Y9650
X31680Y8650
X31680Y7650
X31680Y6650
X31680Y5650
X31680Y4650
X33180Y2150
X34180Y2150
X33680Y11150
X33680Y12150
X33680Y13150
X33680Y14150
X33680Y15150
X33680Y16150
X33680Y17150
X33680Y18150
X33680Y19150
X33680Y20150
X33680Y21150
X33680Y22150
X29680Y18100
X29680Y16200
X11680Y20200
X11680Y22100
X8280Y29550
X8280Y30550
T05
X8680Y26900
X9680Y26400
X8680Y25900
X9680Y25400
X8680Y24900
X9680Y24400
X8680Y23900
X9680Y23400
X14380Y19700
X15730Y18350
X11730Y15400
X12230Y13900
X21530Y6150
X18180Y5500
X17130Y5500
X17130Y4450
X17130Y3400
X16130Y3400
X16130Y2250
X17130Y2300
X17130Y1300
X16130Y1300
X15030Y1300
X18180Y1300
X19230Y1300
X20330Y1300
X21380Y1300
X27130Y28750
T06
X22180Y30150
X19180Y30150
X16680Y30150
X13680Y30150
T07
X7361Y4650
T08
X14180Y4650
X14180Y3650
X14180Y2650
X7680Y12490
X7680Y13570
X6680Y13030
X6680Y14110
X6680Y15190
X7680Y14650
X7680Y15730
X7680Y16810
X6680Y16270
X27400Y3040
X27400Y1260
X29960Y1260
X29960Y3040
T09
X36680Y2150
X36680Y4650
X36680Y7150
X36680Y9650
X36680Y12150
X36680Y14650
X36680Y17150
X36680Y19650
X36680Y22150
X36680Y24650
X36680Y27150
X36680Y29650
T10
X9629Y28350
X4082Y28350
X4082Y21950
X9629Y21950
T11
X6180Y22900
X6180Y27400
T12
X7180Y19580
X7180Y9720
X20080Y3650
T13
X4180Y1650
X40680Y1650
X40680Y30150
X4180Y30150
M30
