G75*
%MOIN*%
%OFA0B0*%
%FSLAX24Y24*%
%IPPOS*%
%LPD*%
%AMOC8*
5,1,8,0,0,1.08239X$1,22.5*
%
%ADD10C,0.1458*%
%ADD11R,0.5050X0.4100*%
%ADD12C,0.0634*%
%ADD13C,0.1202*%
%ADD14C,0.1360*%
%ADD15C,0.0600*%
%ADD16R,0.0946X0.0218*%
%ADD17R,0.0218X0.0946*%
%ADD18C,0.0680*%
%ADD19C,0.1380*%
%ADD20C,0.0940*%
%ADD21C,0.1064*%
%ADD22OC8,0.0680*%
%ADD23C,0.2080*%
%ADD24C,0.0530*%
%ADD25OC8,0.0640*%
%ADD26R,0.0867X0.0710*%
%ADD27OC8,0.0600*%
%ADD28C,0.0600*%
%ADD29R,0.0671X0.0867*%
%ADD30R,0.0907X0.0671*%
%ADD31R,0.0710X0.0867*%
D10*
X004180Y001650D03*
X040680Y001650D03*
X040680Y030150D03*
X004180Y030150D03*
D11*
X018905Y003650D03*
D12*
X009680Y023400D03*
X008680Y023900D03*
X009680Y024400D03*
X008680Y024900D03*
X009680Y025400D03*
X008680Y025900D03*
X009680Y026400D03*
X008680Y026900D03*
D13*
X009629Y028350D03*
X004082Y028350D03*
X004082Y021950D03*
X009629Y021950D03*
D14*
X006180Y022900D03*
X006180Y027400D03*
D15*
X025420Y027150D02*
X025940Y027150D01*
X025940Y026150D02*
X025420Y026150D01*
X025420Y028150D02*
X025940Y028150D01*
X025940Y029150D02*
X025420Y029150D01*
X028420Y029150D02*
X028940Y029150D01*
X028940Y028150D02*
X028420Y028150D01*
X028420Y027150D02*
X028940Y027150D01*
X028940Y026150D02*
X028420Y026150D01*
X025940Y023650D02*
X025420Y023650D01*
X025420Y022650D02*
X025940Y022650D01*
X025940Y021650D02*
X025420Y021650D01*
X025420Y020650D02*
X025940Y020650D01*
X025940Y019650D02*
X025420Y019650D01*
X025420Y018650D02*
X025940Y018650D01*
X025940Y017650D02*
X025420Y017650D01*
X025420Y016650D02*
X025940Y016650D01*
X025940Y015650D02*
X025420Y015650D01*
X025420Y014650D02*
X025940Y014650D01*
X025940Y013650D02*
X025420Y013650D01*
X025420Y012650D02*
X025940Y012650D01*
X025940Y011650D02*
X025420Y011650D01*
X025420Y010650D02*
X025940Y010650D01*
X025940Y009650D02*
X025420Y009650D01*
X025420Y008650D02*
X025940Y008650D01*
X025940Y007650D02*
X025420Y007650D01*
X025420Y006650D02*
X025940Y006650D01*
X025940Y005650D02*
X025420Y005650D01*
X025420Y004650D02*
X025940Y004650D01*
X031420Y004650D02*
X031940Y004650D01*
X031940Y005650D02*
X031420Y005650D01*
X031420Y006650D02*
X031940Y006650D01*
X031940Y007650D02*
X031420Y007650D01*
X031420Y008650D02*
X031940Y008650D01*
X031940Y009650D02*
X031420Y009650D01*
X031420Y010650D02*
X031940Y010650D01*
X031940Y011650D02*
X031420Y011650D01*
X031420Y012650D02*
X031940Y012650D01*
X031940Y013650D02*
X031420Y013650D01*
X031420Y014650D02*
X031940Y014650D01*
X031940Y015650D02*
X031420Y015650D01*
X031420Y016650D02*
X031940Y016650D01*
X031940Y017650D02*
X031420Y017650D01*
X031420Y018650D02*
X031940Y018650D01*
X031940Y019650D02*
X031420Y019650D01*
X031420Y020650D02*
X031940Y020650D01*
X031940Y021650D02*
X031420Y021650D01*
X031420Y022650D02*
X031940Y022650D01*
X031940Y023650D02*
X031420Y023650D01*
X033420Y022150D02*
X033940Y022150D01*
X033940Y021150D02*
X033420Y021150D01*
X033420Y020150D02*
X033940Y020150D01*
X033940Y019150D02*
X033420Y019150D01*
X033420Y018150D02*
X033940Y018150D01*
X033940Y017150D02*
X033420Y017150D01*
X033420Y016150D02*
X033940Y016150D01*
X033940Y015150D02*
X033420Y015150D01*
X033420Y014150D02*
X033940Y014150D01*
X033940Y013150D02*
X033420Y013150D01*
X033420Y012150D02*
X033940Y012150D01*
X033940Y011150D02*
X033420Y011150D01*
X012940Y005650D02*
X012420Y005650D01*
X008940Y005650D02*
X008420Y005650D01*
D16*
X014650Y010939D03*
X014650Y011195D03*
X014650Y011451D03*
X014650Y011707D03*
X014650Y011963D03*
X014650Y012219D03*
X014650Y012475D03*
X014650Y012731D03*
X014650Y012987D03*
X014650Y013243D03*
X014650Y013498D03*
X014650Y013754D03*
X014650Y014010D03*
X014650Y014266D03*
X014650Y014522D03*
X014650Y014778D03*
X014650Y015034D03*
X014650Y015290D03*
X014650Y015546D03*
X014650Y015802D03*
X014650Y016057D03*
X014650Y016313D03*
X014650Y016569D03*
X014650Y016825D03*
X014650Y017081D03*
X014650Y017337D03*
X014650Y017593D03*
X014650Y017849D03*
X014650Y018105D03*
X014650Y018361D03*
X021710Y018361D03*
X021710Y018105D03*
X021710Y017849D03*
X021710Y017593D03*
X021710Y017337D03*
X021710Y017081D03*
X021710Y016825D03*
X021710Y016569D03*
X021710Y016313D03*
X021710Y016057D03*
X021710Y015802D03*
X021710Y015546D03*
X021710Y015290D03*
X021710Y015034D03*
X021710Y014778D03*
X021710Y014522D03*
X021710Y014266D03*
X021710Y014010D03*
X021710Y013754D03*
X021710Y013498D03*
X021710Y013243D03*
X021710Y012987D03*
X021710Y012731D03*
X021710Y012475D03*
X021710Y012219D03*
X021710Y011963D03*
X021710Y011707D03*
X021710Y011451D03*
X021710Y011195D03*
X021710Y010939D03*
D17*
X020611Y009939D03*
X020355Y009939D03*
X020099Y009939D03*
X019843Y009939D03*
X019587Y009939D03*
X019332Y009939D03*
X019076Y009939D03*
X018820Y009939D03*
X018564Y009939D03*
X018308Y009939D03*
X018052Y009939D03*
X017796Y009939D03*
X017540Y009939D03*
X017284Y009939D03*
X017028Y009939D03*
X016773Y009939D03*
X016517Y009939D03*
X016261Y009939D03*
X016005Y009939D03*
X015749Y009939D03*
X015749Y019361D03*
X016005Y019361D03*
X016261Y019361D03*
X016517Y019361D03*
X016773Y019361D03*
X017028Y019361D03*
X017284Y019361D03*
X017540Y019361D03*
X017796Y019361D03*
X018052Y019361D03*
X018308Y019361D03*
X018564Y019361D03*
X018820Y019361D03*
X019076Y019361D03*
X019332Y019361D03*
X019587Y019361D03*
X019843Y019361D03*
X020099Y019361D03*
X020355Y019361D03*
X020611Y019361D03*
D18*
X014480Y004650D02*
X013880Y004650D01*
X013880Y003650D02*
X014480Y003650D01*
X014480Y002650D02*
X013880Y002650D01*
X027100Y003040D02*
X027700Y003040D01*
X029660Y003040D02*
X030260Y003040D01*
X030260Y001260D02*
X029660Y001260D01*
X027700Y001260D02*
X027100Y001260D01*
D19*
X020080Y003650D03*
D20*
X007361Y004220D02*
X007361Y005080D01*
X004999Y005080D02*
X004999Y004220D01*
X005750Y002760D02*
X006610Y002760D01*
D21*
X036680Y002150D03*
X036680Y004650D03*
X036680Y007150D03*
X036680Y009650D03*
X036680Y012150D03*
X036680Y014650D03*
X036680Y017150D03*
X036680Y019650D03*
X036680Y022150D03*
X036680Y024650D03*
X036680Y027150D03*
X036680Y029650D03*
D22*
X007680Y016810D03*
X007680Y015730D03*
X007680Y014650D03*
X006680Y014110D03*
X006680Y015190D03*
X006680Y016270D03*
X007680Y013570D03*
X007680Y012490D03*
X006680Y013030D03*
D23*
X007180Y009720D03*
X007180Y019580D03*
D24*
X013680Y023150D03*
X014680Y023150D03*
X015680Y023150D03*
X018680Y023150D03*
X019680Y023150D03*
X020680Y023150D03*
X020680Y026150D03*
X019680Y026150D03*
X018680Y026150D03*
X015680Y026150D03*
X014680Y026150D03*
X013680Y026150D03*
D25*
X013680Y030150D03*
X016680Y030150D03*
X019180Y030150D03*
X022180Y030150D03*
D26*
X030630Y027851D03*
X030630Y026749D03*
X012030Y017251D03*
X012030Y016149D03*
D27*
X008280Y029550D03*
X008280Y030550D03*
X033180Y002150D03*
X034180Y002150D03*
X011180Y001650D03*
X009680Y001650D03*
D28*
X008680Y001650D03*
X012180Y001650D03*
X029680Y016200D03*
X029680Y018100D03*
X011680Y020200D03*
X011680Y022100D03*
D29*
X018589Y008650D03*
X019771Y008650D03*
X019771Y007150D03*
X018589Y007150D03*
D30*
X013480Y010441D03*
X012380Y010441D03*
X012380Y011859D03*
X013480Y011859D03*
D31*
X013679Y008800D03*
X014781Y008800D03*
X033129Y004150D03*
X034231Y004150D03*
M02*
